<svg xmlns="http://www.w3.org/2000/svg" viewBox="0 0 512 512"><path d="M0 0v178h1V96c19.5-.5 37-6.2 57-4 6.6.7 13.8 2.3 20 4.3 3.3 1.1 7.5 4.5 11 3.2 6-2.1 12-9.3 17-13.2a405 405 0 0 1 39-26C190.7 33.7 250 12.8 304 18c32.4 3.1 63.1 14 91 30.3 10.5 6.2 19.4 16.9 30 22.2 5 2.5 16.1-1 22-.5a100 100 0 0 1 30 8.3c11.9 5.3 23 18.2 35 21.7V0H0z" fill="#d3e5d4"/><path d="m1 96-1 91 5 2h1c-.6-7.4-1.1-17.5 8-20.7 2.9-1 6.2.5 9-.5 2.6-.9 2.9-4.7 4.3-6.8 3.7-5.3 9.4-7.7 15.7-7 11.1 1.2 9 12.1 15.2 16.5 2.4 1.7 6.9.2 9.8 1.7a14.4 14.4 0 0 1 2 24.8v13c12.7 0 21.7 18.8 7 23v1c23.9 12 46.2 28.7 69 42.7 5.4 3.3 22.2 10.6 21 17.3h1c13.4-19 28.4-44 49-56a129.6 129.6 0 0 1 42-13c0-4.8.7-12.7-1.5-17-2.3-4.7-7.9-7.2-10.3-12-3.6-7-4.4-17.2-5.2-25-2.3-24.1 15.3-55.4 43-40.8 4.6 2.4 8.5 6 12 9.8a170.1 170.1 0 0 1 36 81c.3 2.8-.8 6.4.5 9 4 7.8 18.3 14.1 24.5 21 20 22.1 48.5 53.9 54 84h1c-2.1-27-27.8-46.9-40-69l42-24v-2c-13.7-5-19.5-19.8-5-27-10-21.3 22-27.3 32-11h1c9-5.4 1.6-8.2 6-16 2.1-3.8 6-3.6 8.7-6.3 2.5-2.6 1.2-6.8 4.3-9.5 11.3-10.1 20.2 3.2 23 12.8 8.5-4.2 18.1-.8 13 10l14-7v-62c0-5.7 2.5-18.9-.5-23.7-7.3-11.8-31-21.4-43.5-25.6-8.5-2.9-17-4.7-26-4.7-4 0-12.7 2-16 .5-10.5-4.8-19.7-16.1-30-22.2A223.9 223.9 0 0 0 305 18c-54.8-5.3-114.6 15.3-161 42.3a383.7 383.7 0 0 0-37 24.5C101.5 89 95.2 96.3 89 99c-3.2 1.4-7-1.7-10-2.7-6.2-2-13.4-3.6-20-4.3-20.4-2.3-38 2.4-58 4z" fill="#75c3c8"/><path d="M374 125c-5-2.5-9.8-4.7-15-.7-5.1 4-4.3 14.8 2 16.7v2l-5 4c20.3 0 41.7 3.3 62 1 9.2-1 12.8-13.9 2-15-.4-14-8.5-9.3-17-12.7-3.2-1.2-4.2-6.8-7-9-11.3-8.6-22 2.5-22 13.7m-228-3h-2c-4.2-10.4-20.6-4-16 7-10.2 0-15.2 5.9-9 15l-4 3c14.3 0 28.6 1 43 1 4.2 0 12.9.9 14.7-4 2.5-6.8-2.6-8.3-5.2-13-3-5.4 1.2-10.3-5.5-14.7-5.8-3.8-14.2-.6-16 5.7z" fill="#d3e5d4"/><path d="M263 127v1h6l-6-1z" fill="#68663f"/><path d="M243 176h1c.2-7 2.5-23.5 9.2-27.5 5.6-3.4 21.4 3.4 26.8 5.8 2.8 1.3 14.2 7.8 9 9.7v1h2v1l-8-1v1c2.4 0 9-.4 10.8.5 9.8 4.9 6.9 25.3 4.2 32.5h1l2-5h1l1 60 2.8 28 10.2 24c-1.1 5.2 2.8 9 8 8-1 5 7.4 2.3 9.7-.2 6.1-6.7 8.2-28.8-1.7-32.8 1.2-5.6-1.6-13.6-1-20 4.3-44-5.9-84-33.3-120-11.4-14.8-38-20.9-48.7-2-7.3 12.8-6.4 23-6 37z" fill="#d75009"/><path d="M274 127v1h4l-4-1m-13.3 1.3.6.4-.6-.4m20 0 .6.4-.6-.4m-22.7.7 1 1-1-1m25 0 1 1-1-1m2 1 1 1-1-1m-30 1 1 1-1-1m32 0 1 1-1-1m-33 1 1 1-1-1m34 0 1 1-1-1m-35 1 1 1-1-1m36.7.3.6.4-.6-.4m1.3.7 1 1-1-1m-40 1 1 1-1-1m41 0 1 1-1-1m1 1 1 1-1-1m1 1 1 1-1-1m-45 1 1 1-1-1m46 0 1 1-1-1m1 1 1 1-1-1m1 1 1 1-1-1m1.3 1.7.4.6-.4-.6m-51.3.3 1 1-1-1m52 1 1 1-1-1m-53 1 1 1-1-1m54.3.7.4.6-.4-.6M245 146l1 1-1-1m56 0 1 1-1-1m1.3 1.7.4.6-.4-.6m-58.3.3 1 1-1-1z" fill="#68663f"/><path d="M241 230c3.4 16.3 35.3 30.4 48.8 17.7 7.6-7.2-.2-29.3 1.2-38.7.7-4.5 5.7-7.1 7.8-11 4-7.4 2.5-15.4-.5-23-1-2.5-1.5-7.9-4.5-8.8-4.6-1.5-13.6 1.8-18.8 1.8v-2l17-2c-3-10-21-13.7-30-15-2.7-.4-7-2.2-9.7-.5-3 2-5.1 9-6 12.5a51.1 51.1 0 0 0 1.7 36c4.3 9.4 13.9 13 12 25-1 6.3-14.3 5.2-19 8z" fill="#f9cd73"/><path d="m303 149 1 1-1-1m-60 2 1 1-1-1m61 0 1 1-1-1m1 1 1 1-1-1z" fill="#68663f"/><path d="M70 210v-13c8-3.2 8.3-14.6 3.7-21-4.4-6-9.7-2.5-14.7-5.5-3-1.7-2.5-6.8-4.3-9.5a18 18 0 0 0-19.7-6.7c-7.2 2.2-6.7 8.3-11.2 12.5-2.7 2.6-7.5.4-10.8 1.5-4.3 1.5-6.7 6.5-7.7 10.7-2.2 9.3 3.6 13.6 10.7 17.8l39 23.5c6.5 3.9 13.8 10.3 21 12.4 8 2.3 9.5-11.5 7.7-16.7-2-5.8-8.6-6-13.7-6z" fill="#d3e5d4"/><path d="m242.3 154.7.4.6-.4-.6m63.7-.7 1 1-1-1m1 2 1 1-1-1m1 2 1 1-1-1m1 1 1 1-1-1m1 2 1 1-1-1m1 2 1 1-1-1z" fill="#68663f"/><path d="M146 182c-10.3-5.1-20-2.8-21 10-7.9 0-17.4 7.5-6 12l-3 4h65c5.5 0 19.4 2.8 23.8-.5 6.7-5-4.1-8.4-7.8-7.5-3.2-10.9-1.6-15-15-15 0-6.1-.3-12.2-5.2-16.7-11.7-10.7-30.4-1.3-30.8 13.7z" fill="#d3e5d4"/><path d="m251 164 4 3v-1l-4-2z" fill="#d75009"/><path d="m253 164 1 1-1-1z" fill="#fca7fc"/><path d="M253 165v1l3 1-3-2z" fill="#c31922"/><path d="M256 165v1h4l-4-1z" fill="#d75009"/><path d="M288 165v1h3l-3-1z" fill="#c31922"/><path d="m312.3 165.7.4.6-.4-.6z" fill="#68663f"/><path d="M256 166v1h5l-5-1z" fill="#7b0659"/><path d="M261 166v1l4 1-4-2z" fill="#c31922"/><path d="m264 166 2 2v-2h-2m11 0 9 2v-1l-9-1z" fill="#d75009"/><path d="M277 166v1h10l-10-1z" fill="#7b0659"/><path d="m287 166 1 1-1-1z" fill="#c31922"/><path d="M259 167v1h3l-3-1z" fill="#d75009"/><path d="m313 167 1 1-1-1z" fill="#68663f"/><path d="M443 202h-1c-6-18.8-46.4-8.5-32 11-16 5-7.3 30.1 7 27.3 8-1.5 17-9.8 24-14 13-7.7 26-15.2 39-23 5.2-3 16.5-6.8 19.5-12.3 5.3-9.7-8.6-12.6-14.5-8-2-10.4-11.2-22.5-23-13.7-3.4 2.6-2 6.6-4.3 9.5-2.4 2.9-6.6 2.7-8.7 6.2-2.5 4.2.9 9.1-.7 13-.8 2-4 2.6-5.3 4z" fill="#d3e5d4"/><path d="m314.3 169.7.4.6-.4-.6z" fill="#68663f"/><path d="m242.3 171.7.4.6-.4-.6z" fill="#cf53b8"/><path d="m315.3 171.7.4.6-.4-.6z" fill="#68663f"/><path d="m252 172 1 1-1-1z" fill="#fca7fc"/><path d="m292 172-13 1c1.4 4.4 7 3 11 3v-1h-10v-1c4.1 0 12.5 2.1 14-2h-2z" fill="#d75009"/><path d="m242 173 1 1-1-1z" fill="#fca7fc"/><path d="m250 173 2 2-2-2z" fill="#d75009"/><path d="M251 173v1h4l-4-1z" fill="#c31922"/><path d="M255 173v1h9v1h-2v1l3-1-10-2z" fill="#d75009"/><path d="m291 173 1 1-1-1z" fill="#c31922"/><path d="m316.3 173.7.4.6-.4-.6z" fill="#68663f"/><path d="M253 174v1h9l-9-1z" fill="#7b0659"/><path d="m262.7 174.3.6.4-.6-.4m18 0 .6.4-.6-.4z" fill="#c31922"/><path d="M282 174v1h8l-8-1z" fill="#7b0659"/><path d="m290 174 1 1-1-1z" fill="#c31922"/><path d="m252 175 1 1-1-1z" fill="#fca7fc"/><path d="m253.7 175.3.6.4-.6-.4z" fill="#d75009"/><path d="M255 175v1h7l-7-1z" fill="#c31922"/><path d="m317 175 1 1-1-1z" fill="#68663f"/><path d="M256 176v1h3l-3-1z" fill="#fca7fc"/><path d="m259 176 1 1-1-1z" fill="#d75009"/><path d="m260 176 1 1-1-1z" fill="#fca7fc"/><path d="m318 177 1 1-1-1m1 2 1 1-1-1m1 2 1 1-1-1m1 2 1 1-1-1m1.3 2.7.4.6-.4-.6z" fill="#68663f"/><path d="M0 430h52l24-1a30 30 0 0 1 10-28.7c3.8-3 8.5-3.5 11.7-7.3 17.8-21.6 31.2-47.5 48.1-70 5.7-7.6 11.4-15.2 16.9-23 1.6-2.4 5.9-5.7 5.1-9-.5-2.6-5.7-4.6-7.8-6-7.9-5.3-16-10-24-15a3815.5 3815.5 0 0 0-98-60.2c-9.4-5.6-18.7-11.4-28-17.1-2.2-1.4-6.9-9.1-9.5-5.5-2.3 3-.5 13-.5 16.8v226z" fill="#4ad10f"/><path d="m244.3 186.7.4.6-.4-.6z" fill="#d3e5d4"/><path d="M373 266c2.3 8 10.7 15.3 15.7 22 8.2 11 16 23.1 21 36 5.7 14.8 8.6 31.4 10.3 47 .7 6.5.4 17.1 3.5 23 1.8 3.5 6.7 4.9 9.2 8 6.7 8.4 7.3 17.5 7.3 28h72V186c-12.8 1-28.7 15.7-40 21.8-33.6 18.2-64.9 41.1-99 58.2z" fill="#4ad10f"/><path d="m323.3 187.7.4.6-.4-.6z" fill="#68663f"/><path d="M245 189v3h1l-1-3z" fill="#d3e5d4"/><path d="m301 189 1 1-1-1z" fill="#fca7fc"/><path d="m6 190 1 1-1-1z" fill="#75c3c8"/><path d="m324.3 190.7.4.6-.4-.6z" fill="#68663f"/><path d="m9 192 1 1-1-1z" fill="#75c3c8"/><path d="M246 192v3h1l-1-3z" fill="#d3e5d4"/><path d="m325.3 192.7.4.6-.4-.6z" fill="#68663f"/><path d="m496 193 1 1-1-1z" fill="#75c3c8"/><path d="m257 194 2 2-2-2z" fill="#cf53b8"/><path d="m258.7 194.3.6.4-.6-.4z" fill="#d75009"/><path d="m260 194 1 1-1-1z" fill="#cf53b8"/><path d="m261 194 1 1-1-1m21.7.3.6.4-.6-.4z" fill="#fca7fc"/><path d="m284 194-6 8 8-8h-2z" fill="#d75009"/><path d="M301 194c-2 4.8-7.2 8.6-8.8 13.2-2.6 7 1.7 15.1 1.8 21.8.2 15.2-6.1 37.9 10 48 0-20.2-1-40.6-1-61 0-5.8 2.2-18-2-22z" fill="#c31922"/><path d="m247.3 195.7.4.6-.4-.6z" fill="#d3e5d4"/><path d="m259 195 1 1-1-1z" fill="#993f99"/><path d="m260 195 3 3-3-3z" fill="#7b0659"/><path d="m261 195 2 2-2-2z" fill="#993f99"/><path d="M262 195v1l10 1-10-2z" fill="#d75009"/><path d="m274 195 1 1-1-1m2.7.3.6.4-.6-.4z" fill="#fca7fc"/><path d="M277 196v1h5l-5-1z" fill="#d75009"/><path d="m281 195 1 3h1v-3h-2z" fill="#c31922"/><path d="M283 195v2l2-2h-2z" fill="#7b0659"/><path d="m326 195 1 1-1-1z" fill="#68663f"/><path d="m493 195 1 1-1-1z" fill="#75c3c8"/><path d="m259 196 2 2-2-2z" fill="#fca7fc"/><path d="m260 196 1 1-1-1z" fill="#d75009"/><path d="m264 196 1 1-1-1z" fill="#993f99"/><path d="M272 196v1h5l-5-1m7 0 1 1-1-1z" fill="#cf53b8"/><path d="m491 196 1 1-1-1m-474 1 1 1-1-1z" fill="#75c3c8"/><path d="m261 197 4 3v-1l-4-2z" fill="#d75009"/><path d="m263 197 1 1-1-1z" fill="#cf53b8"/><path d="m264 197 3 4-2-3h9l-10-1z" fill="#f9cd73"/><path d="M265 198c3 4.5 13 4.5 15-1l-15 1z" fill="#d3e5d4"/><path d="m280 197 1 1-1-1z" fill="#f9cd73"/><path d="m281 197 1 1-1-1z" fill="#cf53b8"/><path d="m327.3 197.7.4.6-.4-.6z" fill="#68663f"/><path d="m248 198 1 1-1-1z" fill="#d3e5d4"/><path d="m261 198 1 1-1-1m19 0 1 1-1-1z" fill="#cf53b8"/><path d="m249 199 1 1-1-1z" fill="#d3e5d4"/><path d="m262 199 1 1-1-1z" fill="#fca7fc"/><path d="m278 199-2 1v1l2-2z" fill="#f9cd73"/><path d="m279 199 1 1-1-1z" fill="#fca7fc"/><path d="m486 199 1 1-1-1m-464 1 1 1-1-1z" fill="#75c3c8"/><path d="m250 200 1 1-1-1z" fill="#d3e5d4"/><path d="m264 200 1 1-1-1z" fill="#fca7fc"/><path d="m265 200 1 1-1-1z" fill="#cf53b8"/><path d="m278 200 1 1-1-1z" fill="#fca7fc"/><path d="m297 200 1 1-1-1z" fill="#d75009"/><path d="m328.3 200.7.4.6-.4-.6z" fill="#68663f"/><path d="m484 200 1 1-1-1z" fill="#75c3c8"/><path d="m266.7 201.3.6.4-.6-.4m4.3.7v1l7-1h-7m8-1 1 1-1-1z" fill="#fca7fc"/><path d="m296 201 1 1-1-1z" fill="#d75009"/><path d="m25 202 1 1-1-1z" fill="#75c3c8"/><path d="m274 202 1 1-1-1z" fill="#cf53b8"/><path d="m295 202-3 4c2.5-.8 4.3-1.7 3-4z" fill="#d75009"/><path d="m479 203 1 1-1-1z" fill="#75c3c8"/><path d="m329.3 204.7.4.6-.4-.6z" fill="#68663f"/><path d="m30 205 1 1-1-1m2 1 1 1-1-1z" fill="#75c3c8"/><path d="M291 206v4h1l-1-4z" fill="#d75009"/><path d="m474 206 1 1-1-1m-439 2 1 1-1-1z" fill="#75c3c8"/><path d="m330.3 208.7.4.6-.4-.6z" fill="#68663f"/><path d="m37 209 1 1-1-1z" fill="#75c3c8"/><path d="m258 209 1 16h1l-2-16z" fill="#d3e5d4"/><path d="M291 210v3h1l-1-3z" fill="#993f99"/><path d="m467 210 1 1-1-1m-427 1 1 1-1-1m2 1 1 1-1-1z" fill="#75c3c8"/><path d="M331 212v3h1l-1-3z" fill="#68663f"/><path d="m282 213-8 2c1.7 5.2 8.8 1.3 8-2m9 0 2 19h1l-3-19z" fill="#d75009"/><path d="m462 213 1 1-1-1m-417 1 1 1-1-1z" fill="#75c3c8"/><path d="m277 216 1 1-1-1z" fill="#f9cd73"/><path d="m279 216 1 1-1-1z" fill="#fca7fc"/><path d="m50 217 1 1-1-1z" fill="#75c3c8"/><path d="m290.3 218.7.4.6-.4-.6z" fill="#fca7fc"/><path d="M332 218v5h1l-1-5z" fill="#68663f"/><path d="m447 222 1 1-1-1z" fill="#75c3c8"/><path d="m291 224 1 1-1-1z" fill="#fca7fc"/><path d="M256 225v1h3l-3-1z" fill="#d3e5d4"/><path d="m442 225 1 1-1-1m-377 1 1 1-1-1z" fill="#75c3c8"/><path d="M250 226v1h4l-4-1z" fill="#d3e5d4"/><path d="M292 226v6h1l-1-6z" fill="#fca7fc"/><path d="m440 226 1 1-1-1z" fill="#75c3c8"/><path d="M244 227v1h5l-5-1m-5 2v1l5-1h-5z" fill="#d3e5d4"/><path d="m70 229 1 1-1-1z" fill="#75c3c8"/><path d="m101 394 7 6c5-1 6.4-4.8 10-8 6.4-5.8 13.5-11.1 20-17 20.7-18.7 41-38.6 57.8-61 5-6.6 14-14 16.2-22h1c.4 5 3.2 19.2 7.3 22.5 6.4 5 19 5.4 26.7 6.7 26.3 4.4 50.1-2.5 76-3.2-1.3-3.6-5.9-5.4-8-9-4.6-8-5-18.6-9.2-27-5-10.1-13.8-16.8-13.8-29-5.6 1.5-26 11-25-2-7-3.5-13.8-5.7-19.8-11.3-3.6-3.3-4.7-10.2-10.2-9.7-19 1.6-34.4 18.1-45.3 32-23 29-44.9 59.3-65.4 90-8.2 12.3-22.6 27.2-25.3 42m232-164c0 6.6.6 13.5 0 20-.6 6-3.8 14.1-1.5 20 5.3 13.7 17 25 26.3 36 17.6 20.8 39.1 48.6 44.2 76l7 12h13c0-64.4-37-127.4-89-164z" fill="#fca7fc"/><path d="m73 231 1 1-1-1z" fill="#75c3c8"/><path d="m334 231 1 1-1-1z" fill="#d3e5d4"/><path d="m432 231 1 1-1-1m-357 1 1 1-1-1z" fill="#75c3c8"/><path d="m292 232 1 1-1-1z" fill="#cf53b8"/><path d="m430 232 1 1-1-1z" fill="#75c3c8"/><path d="m292 233-3 16 3 1v-17z" fill="#d75009"/><path d="m425 235 1 1-1-1m-3 2 1 1-1-1m-5.3 3.3.6.4-.6-.4z" fill="#75c3c8"/><path d="m288 248 1 1-1-1m-2 1 1 1-1-1z" fill="#fca7fc"/><path d="M267 251c-4.2 12.3 20.5 4.3 25 2-.7-6.2-18.5-.1-25-2m65-2v4h1l-1-4z" fill="#cf53b8"/><path d="m284 250 1 1-1-1z" fill="#fca7fc"/><path d="m201 251 1 1-1-1z" fill="#d3e5d4"/><path d="m268.7 251.3.6.4-.6-.4m10.3-.3v1h3l-3-1z" fill="#fca7fc"/><path d="M292 252v3h1l-1-3z" fill="#d75009"/><path d="m199 253 1 1-1-1m-2 2 1 1-1-1z" fill="#d3e5d4"/><path d="m292 255 1 7h1l-2-7z" fill="#cf53b8"/><path d="M293 256v3h1l-1-3z" fill="#d75009"/><path d="m195 257 1 1-1-1z" fill="#d3e5d4"/><path d="M331 258v3h1l-1-3z" fill="#cf53b8"/><path d="m191 262 1 1-1-1z" fill="#d3e5d4"/><path d="m294 262 1 1-1-1z" fill="#d75009"/><path d="m294.3 263.7.4.6-.4-.6m1 2 .4.6-.4-.6z" fill="#cf53b8"/><path d="m370 265 1 1-1-1m-183 2 1 1-1-1z" fill="#d3e5d4"/><path d="m296 267 1 1-1-1z" fill="#993f99"/><path d="m186 268 1 1-1-1z" fill="#d3e5d4"/><path d="m296 268 1 1-1-1m1.3 1.7.4.6-.4-.6m33.7.3 2 2-2-2z" fill="#cf53b8"/><path d="m184 271 1 1-1-1z" fill="#d3e5d4"/><path d="m298 271 1 1-1-1z" fill="#cf53b8"/><path d="m331 271 2 2-2-2z" fill="#993f99"/><path d="m183 272 1 1-1-1z" fill="#d3e5d4"/><path d="m299 272 1 1-1-1z" fill="#cf53b8"/><path d="m331 272 5 9-5-9z" fill="#7b0659"/><path d="m300 273 1 1-1-1z" fill="#d75009"/><path d="m333 273 1 1-1-1m-33 1 1 1-1-1z" fill="#cf53b8"/><path d="M331 274v3h1l-1-3z" fill="#c31922"/><path d="m301 275 1 1-1-1z" fill="#cf53b8"/><path d="m334 275 1 1-1-1z" fill="#993f99"/><path d="m302 276 1 1-1-1m33 0 1 1-1-1z" fill="#cf53b8"/><path d="m332.3 277.7.4.6-.4-.6z" fill="#c31922"/><path d="m335 277 1 1-1-1z" fill="#993f99"/><path d="m303 278 1 1-1-1m33 0 1 1-1-1m-32 1 1 1-1-1z" fill="#cf53b8"/><path d="m336.3 279.7.4.6-.4-.6z" fill="#993f99"/><path d="m177 280 1 1-1-1z" fill="#d3e5d4"/><path d="m332.7 280.3.6.4-.6-.4z" fill="#c31922"/><path d="m337 280 1 1-1-1z" fill="#cf53b8"/><path d="m381 280 1 1-1-1z" fill="#d3e5d4"/><path d="m305 281 1 1-1-1z" fill="#cf53b8"/><path d="M334 281c2.5 12 6.6 17.5 2 30l25 1.5 13 13.5c-6.4-12.8-19.4-25.5-29-36-3.7-4-4.9-8.8-11-9z" fill="#75c3c8"/><path d="m175 283 1 1-1-1z" fill="#d3e5d4"/><path d="m306 283 1 1-1-1z" fill="#cf53b8"/><path d="m334.3 283.7.4.6-.4-.6z" fill="#68663f"/><path d="m307.3 285.7.4.6-.4-.6z" fill="#cf53b8"/><path d="m335.3 285.7.4.6-.4-.6z" fill="#68663f"/><path d="m172.3 287.7.4.6-.4-.6z" fill="#d3e5d4"/><path d="m336 287 1 1-1-1z" fill="#68663f"/><path d="m308 288 1 1-1-1z" fill="#cf53b8"/><path d="m336 288 1 1-1-1z" fill="#993f99"/><path d="m171 289 1 1-1-1z" fill="#d3e5d4"/><path d="m337.3 289.7.4.6-.4-.6z" fill="#68663f"/><path d="m170 290 1 1-1-1z" fill="#d3e5d4"/><path d="m309.3 290.7.4.6-.4-.6z" fill="#cf53b8"/><path d="m169.3 291.7.4.6-.4-.6z" fill="#d3e5d4"/><path d="m212.3 292.7.4.6-.4-.6z" fill="#cf53b8"/><path d="m168 293 1 1-1-1z" fill="#d3e5d4"/><path d="m310.3 293.7.4.6-.4-.6z" fill="#cf53b8"/><path d="m338.3 293.7.4.6-.4-.6z" fill="#68663f"/><path d="m167 294 1 1-1-1z" fill="#d3e5d4"/><path d="m210 297 3-3-3 3z" fill="#68663f"/><path d="m166 295 1 1-1-1z" fill="#d3e5d4"/><path d="m210 295 1 1-1-1m3 0v3h1l-1-3m-48 1 1 1-1-1z" fill="#75c3c8"/><path d="m311.3 296.7.4.6-.4-.6z" fill="#cf53b8"/><path d="m164 297 1 1-1-1m45 0-18 23c4.2-2.5 19-19 18-23z" fill="#75c3c8"/><path d="M164 353c10.9 5.4 21.8 13.5 32 20.3 3.8 2.6 10.1 8.3 15 7.7 3.6-.5 7.4-10.9 9.2-14a52.8 52.8 0 0 0-.9-53c-1.7-3-4.7-17.4-8.3-16.8-3.8.6-7.1 7-9.3 9.8-6.2 7.7-11.9 15.9-18.7 23-5.7 6-16.9 15-19 23z" fill="#4ad10f"/><path d="m163 298-1 3 1-3z" fill="#75c3c8"/><path d="m214 298 1 1-1-1z" fill="#f9cd73"/><path d="M214 299v3h1l-1-3z" fill="#75c3c8"/><path d="M312 299v3h1l-1-3z" fill="#cf53b8"/><path d="m396 299 1 1-1-1z" fill="#68663f"/><path d="m163 300 1 1-1-1m52 0v3h1l-1-3z" fill="#d3e5d4"/><path d="m161.3 301.7.4.6-.4-.6z" fill="#75c3c8"/><path d="m398 302 1 1-1-1z" fill="#68663f"/><path d="m160 303 1 1-1-1m55.3.7.4.6-.4-.6z" fill="#75c3c8"/><path d="M313 303v3h1l-1-3z" fill="#cf53b8"/><path d="m338 303 1 1-1-1m61 0 1 1-1-1z" fill="#68663f"/><path d="m159 304-1 3h1v-3z" fill="#75c3c8"/><path d="m216 304 1 1-1-1m-57 1 1 1-1-1z" fill="#d3e5d4"/><path d="m216.3 305.7.4.6-.4-.6z" fill="#f9cd73"/><path d="m315.3 306.7.4.6-.4-.6z" fill="#c31922"/><path d="m337.3 306.7.4.6-.4-.6z" fill="#68663f"/><path d="m157 307-1 2 1-2m59.3.7.4.6-.4-.6z" fill="#75c3c8"/><path d="m314.3 307.7.4.6-.4-.6z" fill="#cf53b8"/><path d="m157 308 1 1-1-1m-1 1 1 1-1-1z" fill="#d3e5d4"/><path d="m217 309 1 1-1-1z" fill="#f9cd73"/><path d="m315 309 1 1-1-1z" fill="#cf53b8"/><path d="m336 309 1 1-1-1z" fill="#68663f"/><path d="m155 310-2 4 2-4z" fill="#d3e5d4"/><path d="m217 310 1 1-1-1m-63 1 1 1-1-1z" fill="#75c3c8"/><path d="m316 311 1 1-1-1z" fill="#cf53b8"/><path d="m335 311-1 2 1-2z" fill="#68663f"/><path d="M329 377c8.3-1.7 17-9.3 24-14 7.5-5 15.4-9 23-13.7 2-1.2 6.5-3 7.5-5.3 1.2-2.8-2.4-6.8-3.8-9-4.1-6.2-11.1-20.6-18.7-22.8-3-1-7.8-.2-11-.2-4.1 0-10.1-2.6-14-.5-22.3 12-18 47.3-7 65.5z" fill="#4ad10f"/><path d="m153 312 1 1-1-1m65 0 1 1-1-1z" fill="#75c3c8"/><path d="m317 312 1 1-1-1z" fill="#cf53b8"/><path d="m219.3 313.7.4.6-.4-.6z" fill="#75c3c8"/><path d="m318 313 3 2-3-2z" fill="#cf53b8"/><path d="m152 314-5 7 5-7z" fill="#75c3c8"/><path d="m322.7 314.3.6.4-.6-.4z" fill="#c31922"/><path d="m333 314 1 1-1-1z" fill="#68663f"/><path d="m152 315 1 1-1-1z" fill="#d3e5d4"/><path d="m220 315 1 1-1-1z" fill="#75c3c8"/><path d="M221 315c2.1 10.1 13.6 10 22 11 17.1 1.9 35.6 3.7 53 2 10-1 18.6-4.8 23 5 3.9-3.3 6.9-11.9 7-17-13 1.5-26.5 5.7-40 7-22.7 2.2-43.2-4-65-8m100.7.3.6.4-.6-.4z" fill="#cf53b8"/><path d="m331 315 1 1-1-1z" fill="#68663f"/><path d="m151.3 316.7.4.6-.4-.6z" fill="#d3e5d4"/><path d="m330 316 1 1-1-1z" fill="#68663f"/><path d="m221 317 1 1-1-1z" fill="#75c3c8"/><path d="M326 317v2l2-2h-2z" fill="#68663f"/><path d="m150 318 1 1-1-1z" fill="#d3e5d4"/><path d="M225 318v1l2 2v1l25 4 64-1v-1h-7v-1l3-1-25 2-62-6z" fill="#993f99"/><path d="m368 318 1 1-1-1m-219 1-1 2h2l-1-2z" fill="#d3e5d4"/><path d="m222 319 1 1-1-1z" fill="#75c3c8"/><path d="M314 320v1l8-1h-8z" fill="#993f99"/><path d="m326 319 1 1-1-1z" fill="#75c3c8"/><path d="m369 319 1 1-1-1z" fill="#d3e5d4"/><path d="m190 320 1 1-1-1z" fill="#f9cd73"/><path d="M223 320c4.2 13.3 7.5 26.5 1.7 40-2.6 6-7.3 11-9.7 17l67 6 46-5c-5-17.3-10.4-28.5-7-47h-1l-1 2c-3.3-11.4-16-5.1-26-5-22.2.3-50.4 2.8-70-8z" fill="#fca7fc"/><path d="m325 320-1 3 1-3z" fill="#68663f"/><path d="m147 321-8 13h1l7-13z" fill="#d3e5d4"/><path d="m190 321 1 1-1-1m33.3.7.4.6-.4-.6m-77.3.3 1 1-1-1m43 0 1 1-1-1z" fill="#75c3c8"/><path d="m313 322 1 1-1-1m2 0 1 1-1-1z" fill="#993f99"/><path d="m325 322 1 1-1-1m-180 1 1 1-1-1m43 0 1 1-1-1z" fill="#75c3c8"/><path d="M317 323v1h3l-3-1z" fill="#993f99"/><path d="m324 323-2 7h1l1-7m-180 1 1 1-1-1z" fill="#75c3c8"/><path d="m187 324-1 2 1-2m37 0 1 1-1-1z" fill="#f9cd73"/><path d="m305 324 1 1-1-1z" fill="#cf53b8"/><path d="m187 325 1 1-1-1m37 0 1 1-1-1m-81 1 1 1-1-1m43 0 1 1-1-1m-44 1 1 1-1-1m43 0 1 1-1-1z" fill="#75c3c8"/><path d="m225 327 1 1-1-1z" fill="#f9cd73"/><path d="m374 327 1 1-1-1m-190 1 1 1-1-1m41.3.7.4.6-.4-.6M375 328l1 1-1-1m-234 1 1 1-1-1m42 0 1 1-1-1m193 0 1 1-1-1m-236 1 1 1-1-1m42 0 1 1-1-1m139 0-1 9h1v-9m-182 1 1 1-1-1m42 0 1 1-1-1m196 0 1 1-1-1z" fill="#75c3c8"/><path d="m180 332 1 1-1-1z" fill="#f9cd73"/><path d="M226 332v3h1l-1-3m-88 1-1 2 1-2z" fill="#75c3c8"/><path d="m179 333 1 1-1-1z" fill="#f9cd73"/><path d="m378 333 1 1-1-1z" fill="#75c3c8"/><path d="m138 334 1 1-1-1z" fill="#f9cd73"/><path d="m179 334 1 1-1-1m200 0 1 1-1-1z" fill="#75c3c8"/><path d="m137 335 1 1-1-1z" fill="#d3e5d4"/><path d="m178 335 1 1-1-1m202.3.7.4.6-.4-.6M136 336l-1 2 1-2m41 0 1 1-1-1z" fill="#75c3c8"/><path d="M227 336v3h1l-1-3z" fill="#f9cd73"/><path d="M413 336v3h1l-1-3z" fill="#75c3c8"/><path d="m136 337 1 1-1-1z" fill="#d3e5d4"/><path d="m176 337 1 1-1-1m205 0 1 1-1-1z" fill="#75c3c8"/><path d="m135 338 1 1-1-1z" fill="#d3e5d4"/><path d="m175 338 1 1-1-1z" fill="#75c3c8"/><path d="m382 338 1 1-1-1z" fill="#f9cd73"/><path d="m134 339 1 1-1-1m40 0 1 1-1-1m53 0v7h1l-1-7m155 0 1 1-1-1m32 0v5h1l-1-5m-281 1-1 2 1-2m40 0 1 1-1-1m146 0v13h1l-1-13m64.3.7.4.6-.4-.6z" fill="#75c3c8"/><path d="m133 341 1 1-1-1z" fill="#f9cd73"/><path d="m172 341 1 1-1-1z" fill="#75c3c8"/><path d="m132 342 1 1-1-1m39 0 1 1-1-1z" fill="#f9cd73"/><path d="m384 342 1 1-1-1m-253 1-1 2 1-2z" fill="#75c3c8"/><path d="m170 343 1 1-1-1z" fill="#f9cd73"/><path d="m384 343-10 7v1c3-1.2 11.8-4.8 10-8z" fill="#68663f"/><path d="m131 344 1 1-1-1z" fill="#d3e5d4"/><path d="m169 344-1 2 1-2z" fill="#f9cd73"/><path d="m385 344 1 1-1-1z" fill="#993f99"/><path d="m415 344 2 16h1l-3-16z" fill="#75c3c8"/><path d="m130 345 1 1-1-1z" fill="#d3e5d4"/><path d="m169 345 1 1-1-1z" fill="#75c3c8"/><path d="M163 352h-1c-7 7-13.5 14.5-21 20.8-2.9 2.5-9.2 6.1-9.8 10.2-.5 2.8 3 5.3 4.8 7 5.3 5.3 10 10.8 16 15.3a149.7 149.7 0 0 0 45 22.7c5.7 1.9 17.8 1 22 5.2 2.8 2.8-.3 13.2 1.3 17.8.8 2.2 3 4.5 2.4 7-2 7.7-9.7 1-13.7 1-3.5 0-7.6 2.4-11 3.3-7 2-24.2 7.6-31 4.2-13.2-6.5-5.4-26.3-2-35.5-54.3 4.3-110.5 0-165 0v81h512v-81c-25.2 0-51.4-1.6-76 1.8-6.5 1-15.6-1.5-23-.8-15.5 1.5-33.2-4.4-48 1 1.6 8.6 5.7 24-2 30.8-3.5 3.1-6 1.1-10 1.5-12.5 1.2-22.4-4.9-34-7-4.6-.8-7.6 6.1-11.7-.3-2.1-3.4 2.1-7 3.5-10 2.5-5.4 2.2-11.2 2.2-17 25.8 0 53.8-14 72-32 4.5-4.5 14.8-12.3 15.8-19 .5-3.4-3.2-9-4.6-12a255 255 0 0 1-10.2-23c-20.8 4.4-36.3 25.7-56 32.8-25.6 9.3-62.2 6.8-89 4.2-7.6-.7-15.4-3.7-23-4-4-.2-3.7 4.6-7 4.5-4-.1-10.7-6-14-8.2-11.1-7.4-24.1-13.2-34-22.3z" fill="#7b0659"/><path d="m129 346-15 23c4.2-1.5 17-19.5 15-23m38 0-1 2 1-2z" fill="#d3e5d4"/><path d="m168 346 1 1-1-1z" fill="#75c3c8"/><path d="M227 346v3h1l-1-3z" fill="#d3e5d4"/><path d="m386 346 1 1-1-1z" fill="#993f99"/><path d="m128 347 1 1-1-1m39 0 1 1-1-1m-40 1 1 1-1-1z" fill="#75c3c8"/><path d="m165 348 1 1-1-1z" fill="#d3e5d4"/><path d="M226 348v4h1l-1-4z" fill="#75c3c8"/><path d="m387 348 1 1-1-1z" fill="#cf53b8"/><path d="m164 349-1 2 1-2z" fill="#f9cd73"/><path d="m165 349 1 1-1-1z" fill="#75c3c8"/><path d="m227 349 1 1-1-1z" fill="#f9cd73"/><path d="m126 350 1 1-1-1m38 0 1 1-1-1z" fill="#75c3c8"/><path d="m388 350 1 1-1-1z" fill="#cf53b8"/><path d="m125 351 1 1-1-1z" fill="#75c3c8"/><path d="m162 351 1 1-1-1z" fill="#cf53b8"/><path d="m163 351 1 1-1-1z" fill="#75c3c8"/><path d="M240 351v1c14 4 30.4 3 45 3l-9-1.3-36-2.7m40 1v1l30-1h-30z" fill="#cf53b8"/><path d="m370 353 3-1-3 1z" fill="#68663f"/><path d="m373 351 1 1-1-1m15 0 1 1-1-1m-227 1 1 1-1-1z" fill="#993f99"/><path d="m163 352 1 1-1-1z" fill="#68663f"/><path d="m226.3 352.7.4.6-.4-.6z" fill="#f9cd73"/><path d="m371 352 1 1-1-1z" fill="#993f99"/><path d="m389 352 1 1-1-1z" fill="#cf53b8"/><path d="m124 353 1 1-1-1z" fill="#75c3c8"/><path d="m160 353 1 1-1-1z" fill="#cf53b8"/><path d="m164 353 3 2-3-2z" fill="#68663f"/><path d="M275 353v1h12l-12-1z" fill="#993f99"/><path d="M320 353v5h1l-1-5z" fill="#75c3c8"/><path d="m368.7 353.3.6.4-.6-.4z" fill="#68663f"/><path d="m389 353 1 1-1-1z" fill="#993f99"/><path d="m123 354 1 1-1-1z" fill="#75c3c8"/><path d="m159 354 1 1-1-1z" fill="#cf53b8"/><path d="m225.3 354.7.4.6-.4-.6z" fill="#75c3c8"/><path d="m366.7 354.3.6.4-.6-.4z" fill="#68663f"/><path d="m390 354 1 1-1-1z" fill="#cf53b8"/><path d="m122 355 1 1-1-1z" fill="#75c3c8"/><path d="m158 355 1 1-1-1z" fill="#cf53b8"/><path d="m167 355 1 1-1-1z" fill="#68663f"/><path d="m168 355 1 1-1-1m196 0 1 1-1-1z" fill="#75c3c8"/><path d="m365 355 1 1-1-1z" fill="#68663f"/><path d="m390 355 1 1-1-1z" fill="#993f99"/><path d="m157 356 1 1-1-1z" fill="#cf53b8"/><path d="m168 356 1 1-1-1z" fill="#993f99"/><path d="m169 356 1 1-1-1z" fill="#68663f"/><path d="m225.3 356.7.4.6-.4-.6z" fill="#d3e5d4"/><path d="m362 356 1 1-1-1z" fill="#75c3c8"/><path d="m363 356 1 1-1-1z" fill="#68663f"/><path d="m364 356 1 1-1-1z" fill="#993f99"/><path d="m391 356 1 1-1-1z" fill="#cf53b8"/><path d="m121 357 1 1-1-1z" fill="#75c3c8"/><path d="m156 357 1 1-1-1z" fill="#cf53b8"/><path d="m170 357 3 2-3-2m191 0 1 1-1-1z" fill="#68663f"/><path d="m362 357 1 1-1-1m29 0 1 1-1-1z" fill="#993f99"/><path d="m155 358 1 1-1-1z" fill="#cf53b8"/><path d="m224.3 358.7.4.6-.4-.6m96.7-.7v3h1l-1-3z" fill="#75c3c8"/><path d="m358 360 3-1-3 1z" fill="#68663f"/><path d="m154 359 1 1-1-1z" fill="#cf53b8"/><path d="m173 359 1 1-1-1z" fill="#68663f"/><path d="m359 359 1 1-1-1z" fill="#993f99"/><path d="m392 359 1 1-1-1z" fill="#cf53b8"/><path d="m119 360 1 1-1-1z" fill="#75c3c8"/><path d="m153 360 1 1-1-1z" fill="#cf53b8"/><path d="m174.7 360.3.6.4-.6-.4z" fill="#68663f"/><path d="m224 360 1 1-1-1z" fill="#d3e5d4"/><path d="m356.7 360.3.6.4-.6-.4z" fill="#68663f"/><path d="m392 360 1 1-1-1z" fill="#993f99"/><path d="M418 360v7h1l-1-7z" fill="#75c3c8"/><path d="m152 361 1 1-1-1z" fill="#cf53b8"/><path d="m176 361 1 1-1-1z" fill="#68663f"/><path d="m223 361-1 3h1v-3z" fill="#75c3c8"/><path d="m355 361 1 1-1-1z" fill="#68663f"/><path d="m393 361 1 1-1-1z" fill="#cf53b8"/><path d="m118 362 1 1-1-1z" fill="#75c3c8"/><path d="m151 362 1 1-1-1z" fill="#cf53b8"/><path d="m177.7 362.3.6.4-.6-.4z" fill="#68663f"/><path d="m223 362 1 1-1-1z" fill="#d3e5d4"/><path d="m322.3 362.7.4.6-.4-.6z" fill="#75c3c8"/><path d="m353.7 362.3.6.4-.6-.4z" fill="#68663f"/><path d="m393 362 1 1-1-1z" fill="#993f99"/><path d="m117 363 1 1-1-1z" fill="#75c3c8"/><path d="m150 363 1 1-1-1z" fill="#cf53b8"/><path d="m179 363 1 1-1-1m173 0 1 1-1-1z" fill="#68663f"/><path d="m394 363 1 1-1-1m-245 1 1 1-1-1z" fill="#cf53b8"/><path d="m181 364 1 1-1-1z" fill="#68663f"/><path d="m221 364-1 3 1-3z" fill="#75c3c8"/><path d="m350 364 1 1-1-1z" fill="#68663f"/><path d="m351 364 1 1-1-1m43 0 1 1-1-1z" fill="#993f99"/><path d="m116 365 1 1-1-1z" fill="#75c3c8"/><path d="m148 365 1 1-1-1z" fill="#cf53b8"/><path d="m182.7 365.3.6.4-.6-.4z" fill="#68663f"/><path d="m323.3 365.7.4.6-.4-.6z" fill="#75c3c8"/><path d="m349 365 1 1-1-1z" fill="#68663f"/><path d="m395 365 1 1-1-1z" fill="#cf53b8"/><path d="m115 366 1 1-1-1z" fill="#75c3c8"/><path d="m147 366 1 1-1-1z" fill="#993f99"/><path d="m184.7 366.3.6.4-.6-.4z" fill="#68663f"/><path d="m221 366 1 1-1-1z" fill="#d3e5d4"/><path d="m347.7 366.3.6.4-.6-.4z" fill="#68663f"/><path d="m395 366 1 1-1-1z" fill="#993f99"/><path d="m114 367 1 1-1-1z" fill="#75c3c8"/><path d="m146 367 1 1-1-1z" fill="#993f99"/><path d="m186 367 1 1-1-1z" fill="#68663f"/><path d="m220 367 1 1-1-1z" fill="#d3e5d4"/><path d="m324.3 367.7.4.6-.4-.6z" fill="#75c3c8"/><path d="m344 369 3-1-3 1z" fill="#68663f"/><path d="m396 367 1 1-1-1z" fill="#cf53b8"/><path d="m145 368 1 1-1-1z" fill="#993f99"/><path d="m187.7 368.3.6.4-.6-.4z" fill="#68663f"/><path d="m219 368-1 3h1v-3z" fill="#75c3c8"/><path d="m345 368 1 1-1-1m51 0 1 1-1-1z" fill="#993f99"/><path d="M419 368v6h1l-1-6m-306 1-1 2 1-2z" fill="#75c3c8"/><path d="m144 369 1 1-1-1z" fill="#993f99"/><path d="m189 369 1 1-1-1z" fill="#68663f"/><path d="m219 369 1 1-1-1z" fill="#d3e5d4"/><path d="m325.3 369.7.4.6-.4-.6z" fill="#75c3c8"/><path d="m342.7 369.3.6.4-.6-.4z" fill="#68663f"/><path d="m113 370 1 1-1-1z" fill="#d3e5d4"/><path d="m143 370 1 1-1-1m47 0 1 1-1-1z" fill="#993f99"/><path d="m191 370 1 1-1-1m150 0 1 1-1-1z" fill="#68663f"/><path d="m397 370 1 1-1-1z" fill="#cf53b8"/><path d="m112 371-3 7h1l2-7z" fill="#d3e5d4"/><path d="m142 371 1 1-1-1z" fill="#993f99"/><path d="m192.7 371.3.6.4-.6-.4z" fill="#68663f"/><path d="m217 371 1 1-1-1m109.3.7.4.6-.4-.6z" fill="#75c3c8"/><path d="m339.7 371.3.6.4-.6-.4z" fill="#68663f"/><path d="m111 372 1 1-1-1z" fill="#75c3c8"/><path d="m141 372 1 1-1-1z" fill="#993f99"/><path d="m194 372 1 1-1-1z" fill="#68663f"/><path d="m217 372 1 1-1-1z" fill="#f9cd73"/><path d="m338 372 1 1-1-1z" fill="#68663f"/><path d="m398 372 1 1-1-1m-259 1 1 1-1-1z" fill="#cf53b8"/><path d="m140 373 1 1-1-1z" fill="#993f99"/><path d="m195.7 373.3.6.4-.6-.4z" fill="#68663f"/><path d="m216 373 1 1-1-1z" fill="#75c3c8"/><path d="m336.7 373.3.6.4-.6-.4z" fill="#68663f"/><path d="m398 373 1 1-1-1z" fill="#993f99"/><path d="m110 374 1 1-1-1z" fill="#75c3c8"/><path d="m138 374 1 1-1-1z" fill="#cf53b8"/><path d="m197 374 1 1-1-1z" fill="#68663f"/><path d="m215 374 1 1-1-1m112 0 1 4h1l-2-4z" fill="#75c3c8"/><path d="m335 374 1 1-1-1z" fill="#68663f"/><path d="m399 374 1 1-1-1z" fill="#cf53b8"/><path d="m109 375 1 1-1-1z" fill="#75c3c8"/><path d="m137 375 1 1-1-1z" fill="#cf53b8"/><path d="m198.7 375.3.6.4-.6-.4z" fill="#68663f"/><path d="m215 375 1 1-1-1z" fill="#d3e5d4"/><path d="m333.7 375.3.6.4-.6-.4z" fill="#68663f"/><path d="m399 375 1 1-1-1z" fill="#993f99"/><path d="M420 375v6h1l-1-6m-311.7 1.7.4.6-.4-.6z" fill="#75c3c8"/><path d="m136 376 1 1-1-1z" fill="#cf53b8"/><path d="m200 376 1 1-1-1m131.7.3.6.4-.6-.4z" fill="#68663f"/><path d="m400 376 1 1-1-1m-265 1 1 1-1-1z" fill="#cf53b8"/><path d="m201.7 377.3.6.4-.6-.4m12.6.4.4.6-.4-.6z" fill="#68663f"/><path d="m215.7 377.3.6.4-.6-.4z" fill="#993f99"/><path d="M217 377v1h3l-3-1m108.7.3.6.4-.6-.4z" fill="#cf53b8"/><path d="m329.7 377.3.6.4-.6-.4z" fill="#68663f"/><path d="m400 377 1 1-1-1z" fill="#993f99"/><path d="m107 378-1 2 1-2z" fill="#75c3c8"/><path d="m134 378 1 1-1-1z" fill="#993f99"/><path d="m203.7 378.3.6.4-.6-.4z" fill="#68663f"/><path d="m220 378 1 1-1-1z" fill="#993f99"/><path d="M221 378v1h3l-3-1m100.7.3.6.4-.6-.4z" fill="#cf53b8"/><path d="m323 378 1 1-1-1m4.7.3.6.4-.6-.4z" fill="#993f99"/><path d="m107 379-10 16c4-1.3 12-12.4 10-16z" fill="#d3e5d4"/><path d="m133 379 1 1-1-1z" fill="#993f99"/><path d="m205 379 1 1-1-1m8 0-5 2v1c2.9.8 7.6.9 5-3z" fill="#68663f"/><path d="m224.7 379.3.6.4-.6-.4z" fill="#993f99"/><path d="M226 379v1h4l-4-1m89 0v1h3l-3-1z" fill="#cf53b8"/><path d="m318.7 379.3.6.4-.6-.4z" fill="#993f99"/><path d="m401.3 379.7.4.6-.4-.6z" fill="#cf53b8"/><path d="m132 380 1 1-1-1z" fill="#993f99"/><path d="m207 380 1 1-1-1z" fill="#68663f"/><path d="M231 380v1h3l-3-1z" fill="#993f99"/><path d="M234 380v1h4l-4-1m74 0v1h4l-4-1z" fill="#cf53b8"/><path d="M312 380v1h3l-3-1z" fill="#993f99"/><path d="m105 381 1 1-1-1z" fill="#75c3c8"/><path d="m130 381 1 1-1-1z" fill="#cf53b8"/><path d="m131 381 1 1-1-1m107 0v1h3l-3-1z" fill="#993f99"/><path d="M241 381v1h6l-6-1m58 0v1h5l-5-1z" fill="#cf53b8"/><path d="M304 381v1h4l-4-1z" fill="#993f99"/><path d="m400 381-19 22c4.5-2.6 20.9-16.8 19-22z" fill="#68663f"/><path d="m401 381 2 2-2-2z" fill="#75c3c8"/><path d="m403 381 1 5h1l-2-5z" fill="#d3e5d4"/><path d="m420 381 1 1-1-1z" fill="#f9cd73"/><path d="m104 382 1 1-1-1z" fill="#75c3c8"/><path d="m130 382 1 1-1-1m118 0v1h6l-6-1z" fill="#993f99"/><path d="M254 382v1h13l-13-1m30 0v1h8l-8-1z" fill="#cf53b8"/><path d="M292 382v1h5l-5-1z" fill="#993f99"/><path d="M400 382c-9 15.6-28 30-44 38 .9 3.1 4.7 8.7 8 9.8 4.7 1.6 12 .2 17 .2 13 0 34.2 4 46-1-4-4.7-9.8-7-12.8-13-4.4-8.7-2.8-30.6-14.2-34z" fill="#4ad10f"/><path d="M421 382v5h1l-1-5z" fill="#75c3c8"/><path d="m128 383-2 3 2-3z" fill="#d3e5d4"/><path d="m129 383-1 2h2l-1-2z" fill="#75c3c8"/><path d="M130 383c3.7 13 26.9 29.5 39 34v-1l-39-33z" fill="#68663f"/><path d="m275.7 383.3.6.4-.6-.4m2.3-.3 1 1-1-1z" fill="#993f99"/><path d="m103 384 1 1-1-1m-.7 1.7.4.6-.4-.6z" fill="#75c3c8"/><path d="M89 430c22 0 44.2.7 66 1 7.8.1 17.5-2.5 20-11a114.6 114.6 0 0 1-33-23c-3.5-3.2-7.3-10.7-12-11.8-4-1-7.4 4.4-10 6.6-10.3 8.7-12.3 18-19.8 28.2-3.3 4.3-8.5 5.5-11.2 10z" fill="#4ad10f"/><path d="m125 386 1 1-1-1m279 0 1 1-1-1z" fill="#75c3c8"/><path d="m405.3 386.7.4.6-.4-.6z" fill="#f9cd73"/><path d="m101 387 1 1-1-1m23 0 1 1-1-1m-1 1 1 1-1-1m282 0 1 1-1-1m17 0v5h1l-1-5m-322 1 1 1-1-1z" fill="#75c3c8"/><path d="m121 389-7 7 7-7z" fill="#d3e5d4"/><path d="m122 389 1 1-1-1z" fill="#75c3c8"/><path d="m406 389 2 2-2-2z" fill="#f9cd73"/><path d="m99 390 1 1-1-1m22 0 1 1-1-1m285 0 1 1-1-1m-307.7 1.7.4.6-.4-.6m21.7-.7 1 1-1-1z" fill="#75c3c8"/><path d="m407 391 1 3h1l-2-3z" fill="#d3e5d4"/><path d="m119 392 1 1-1-1m288 0 1 1-1-1m-310 1 1 1-1-1z" fill="#75c3c8"/><path d="M409 394c3.4 18.6 7.9 34.9 29 38l2-2c0-10.3 0-21-7.3-28.8-3-3.2-7.4-4.6-9.7-8.2l-14 1z" fill="#f9cd73"/><path d="m96 394 1 1-1-1z" fill="#75c3c8"/><path d="M77 428c-.7 5.2 4.2 3.7 8 3v-1h-2v-1c16.3 0 22.9-17 28-30l-3 1c-.9-8.1-8.8-6-14-3.5-9 4.5-16.2 10-17.8 20.5-.5 3.2-2.1 9.8.8 11z" fill="#f9cd73"/><path d="m408 394 1 1-1-1m15 0 1 1-1-1z" fill="#75c3c8"/><path d="m95 395 1 1-1-1z" fill="#d3e5d4"/><path d="m115 395 1 1-1-1m309 0 1 1-1-1z" fill="#75c3c8"/><path d="m93.7 396.3.6.4-.6-.4z" fill="#d3e5d4"/><path d="m114 396 1 1-1-1m295 0 1 1-1-1z" fill="#75c3c8"/><path d="m90.7 397.3.6.4-.6-.4z" fill="#d3e5d4"/><path d="m113 397 1 1-1-1z" fill="#75c3c8"/><path d="m88.7 398.3.6.4-.6-.4z" fill="#d3e5d4"/><path d="m112 398 1 1-1-1m317 0 1 1-1-1z" fill="#75c3c8"/><path d="m87 399 1 1-1-1z" fill="#d3e5d4"/><path d="m111 399 1 1-1-1m299 0 1 1-1-1m20 0 1 1-1-1z" fill="#75c3c8"/><path d="m84 402 3-2-3 2z" fill="#d3e5d4"/><path d="m110 400 1 1-1-1z" fill="#75c3c8"/><path d="m83 402 1 1-1-1z" fill="#d3e5d4"/><path d="m379 403 1 1-1-1z" fill="#68663f"/><path d="m411 403 1 1-1-1z" fill="#75c3c8"/><path d="m378 404 1 1-1-1z" fill="#68663f"/><path d="m81 405 1 1-1-1z" fill="#d3e5d4"/><path d="m107 405 1 1-1-1z" fill="#75c3c8"/><path d="m377 405 1 1-1-1m-1 1 1 1-1-1m-1 1 1 1-1-1m52 0 1 3h1v-3h-2z" fill="#68663f"/><path d="m79 408 1 1-1-1z" fill="#d3e5d4"/><path d="m87 408-1 2h2l-1-2z" fill="#68663f"/><path d="m88 408 1 1-1-1z" fill="#d75009"/><path d="m373 408 1 1-1-1z" fill="#68663f"/><path d="m429 408 2 2-2-2z" fill="#d75009"/><path d="m372 409 1 1-1-1z" fill="#68663f"/><path d="m412 409 1 1-1-1z" fill="#75c3c8"/><path d="m429 409 1 4h1l-2-4z" fill="#7b0659"/><path d="m85 410 1 1-1-1z" fill="#d75009"/><path d="m86 410-2 6h1l1-6z" fill="#7b0659"/><path d="m87 410 1 1-1-1z" fill="#d75009"/><path d="m105 410 1 1-1-1z" fill="#75c3c8"/><path d="m371 410 1 1-1-1z" fill="#68663f"/><path d="m428 410 1 1-1-1z" fill="#d75009"/><path d="m430 410 1 1-1-1z" fill="#993f99"/><path d="m77 411 1 1-1-1z" fill="#75c3c8"/><path d="m85 411 1 1-1-1m284 0 1 1-1-1z" fill="#68663f"/><path d="m428 411 1 1-1-1z" fill="#fca7fc"/><path d="m429 411 2 4 1-3-3-1z" fill="#68663f"/><path d="m431 411 1 1-1-1m-347 1 1 1-1-1z" fill="#d75009"/><path d="m86 412 1 1-1-1m282 0 1 1-1-1z" fill="#68663f"/><path d="m84 413 1 1-1-1z" fill="#993f99"/><path d="m86 413 1 1-1-1z" fill="#d75009"/><path d="m366 413 1 1-1-1z" fill="#68663f"/><path d="m429 413 1 1-1-1m-346 1v6h1l-1-6z" fill="#d75009"/><path d="m85 414 1 1-1-1m279.7.3.6.4-.6-.4z" fill="#68663f"/><path d="m413 414 1 1-1-1z" fill="#75c3c8"/><path d="m431.3 414.7.4.6-.4-.6z" fill="#7b0659"/><path d="m432.3 414.7.4.6-.4-.6z" fill="#d75009"/><path d="m76 415 1 1-1-1z" fill="#75c3c8"/><path d="m85 415 1 1-1-1z" fill="#d75009"/><path d="m363 415 1 1-1-1z" fill="#68663f"/><path d="m430 415 1 1-1-1z" fill="#d75009"/><path d="m84 416 1 1-1-1m277.7.3.6.4-.6-.4z" fill="#68663f"/><path d="m414 416 1 1-1-1z" fill="#d3e5d4"/><path d="M431 416v2h2v-2h-2m-261 1 1 1-1-1m190 0 1 1-1-1m-188.3 1.3.6.4-.6-.4M354 422l5-3c-2.4-1.4-4.1.3-5 3z" fill="#68663f"/><path d="m432.3 418.7.4.6-.4-.6z" fill="#d75009"/><path d="m173.7 419.3.6.4-.6-.4m1.3.7v1l4 1v-1l-4-1z" fill="#68663f"/><path d="m173 424 4-2-4 2z" fill="#75c3c8"/><path d="m179 421 1 1-1-1m170.7.3.6.4-.6-.4z" fill="#993f99"/><path d="m351 421 1 1-1-1z" fill="#68663f"/><path d="m352.7 421.3.6.4-.6-.4z" fill="#75c3c8"/><path d="M172 466c-1.2-4-4.4-7-5.7-11-3.4-11.2 5.5-26 15.7-30v-2c-19.1-8-33 43-10 43z" fill="#d3e5d4"/><path d="m181 422 1 1-1-1z" fill="#cf53b8"/><path d="m182 422 1 1-1-1m165 0 1 1-1-1z" fill="#993f99"/><path d="m348 422 1 1-1-1z" fill="#cf53b8"/><path d="M347 425c21.9.6 11.3 29.2 9 40 17 0 10.6-30 3.7-39-2.9-3.7-10.6-6.8-12.7-1z" fill="#d3e5d4"/><path d="m356 422 1 1-1-1m62 0 1 1-1-1z" fill="#75c3c8"/><path d="m182.3 423.7.4.6-.4-.6z" fill="#f9cd73"/><path d="m183.3 423.7.4.6-.4-.6z" fill="#fca7fc"/><path d="m184.7 423.3.6.4-.6-.4M345 423l1 1-1-1z" fill="#993f99"/><path d="m346 423-1 2h2l-1-2z" fill="#fca7fc"/><path d="m357 423 1 1-1-1z" fill="#75c3c8"/><path d="m75 424 1 1-1-1z" fill="#d3e5d4"/><path d="m171 424 1 1-1-1z" fill="#75c3c8"/><path d="M184 424v1h3l-3-1z" fill="#cf53b8"/><path d="M167 448h1c3.4-18.7 18.4-18 34-18-14.6-12.6-34.5.3-35 18z" fill="#c31922"/><path d="m344 424 1 1-1-1z" fill="#cf53b8"/><path d="m358 424 1 1-1-1z" fill="#75c3c8"/><path d="m92.7 425.3.6.4-.6-.4z" fill="#d3e5d4"/><path d="m180 425 1 1-1-1z" fill="#f9cd73"/><path d="m181 425 1 1-1-1z" fill="#fca7fc"/><path d="m182 425 1 1-1-1z" fill="#cf53b8"/><path d="m183 425 1 1-1-1z" fill="#d75009"/><path d="M323 430v1c11.4 0 28.7-5.7 35 7 2-3.5-3.5-10.4-7-12.2-8.6-4.2-19.4 3.5-28 4.2z" fill="#c31922"/><path d="m350 425 1 1-1-1z" fill="#cf53b8"/><path d="m351 425 1 1-1-1z" fill="#fca7fc"/><path d="m359 425 1 1-1-1z" fill="#75c3c8"/><path d="m91 426 1 1-1-1z" fill="#d3e5d4"/><path d="m169 426 1 1-1-1z" fill="#75c3c8"/><path d="m178 426 1 1-1-1z" fill="#f9cd73"/><path d="m179 426 1 1-1-1z" fill="#fca7fc"/><path d="m180 426 1 1-1-1m172 0 4 4-4-4z" fill="#cf53b8"/><path d="m353 426 1 1-1-1z" fill="#fca7fc"/><path d="m360 426 2 3-2-3m-270 1 1 1-1-1m78 0 1 1-1-1z" fill="#75c3c8"/><path d="m177 427 1 1-1-1z" fill="#fca7fc"/><path d="m178 427 1 1-1-1z" fill="#cf53b8"/><path d="m354 427 1 1-1-1z" fill="#fca7fc"/><path d="m361 427 1 1-1-1z" fill="#68663f"/><path d="m76 428 1 1-1-1z" fill="#d3e5d4"/><path d="m89 428 1 1-1-1z" fill="#75c3c8"/><path d="m167 428-3 2v1l3-3z" fill="#68663f"/><path d="m168 428 1 1-1-1m8 0 1 1-1-1m179 0 1 1-1-1z" fill="#fca7fc"/><path d="m75 429 1 1-1-1z" fill="#75c3c8"/><path d="m77 429 2 2-2-2m6 0v1h4l-4-1z" fill="#d3e5d4"/><path d="m87.7 429.3.6.4-.6-.4z" fill="#75c3c8"/><path d="m167 429 1 1-1-1m7 0 1 1-1-1z" fill="#fca7fc"/><path d="m175 429 1 1-1-1z" fill="#cf53b8"/><path d="m362 429 1 3c19.5-5.6 46.6-1 67-1v-1c-21-5.5-46.7 5.2-68-1M0 430v1h77l-21-1H0m85 0v1h66l-18-1H85z" fill="#68663f"/><path d="m166 430 1 1-1-1z" fill="#fca7fc"/><path d="m174 430 1 1-1-1z" fill="#cf53b8"/><path d="M183 430v1h4l-4-1z" fill="#d75009"/><path d="m187 430 1 1-1-1z" fill="#cf53b8"/><path d="M188 430v1h7l-7-1z" fill="#fca7fc"/><path d="M195 430v1h8l-8-1z" fill="#d75009"/><path d="M203 430v1h5l-5-1z" fill="#c31922"/><path d="M333 430v1h16l-16-1z" fill="#d75009"/><path d="m356 430 1 3h1l-2-3z" fill="#fca7fc"/><path d="m437 430 1 1-1-1z" fill="#d3e5d4"/><path d="m438 430 1 1-1-1z" fill="#fca7fc"/><path d="M439 430v1h73l-20-1h-53z" fill="#68663f"/><path d="M10 431v1h5l-5-1z" fill="#993f99"/><path d="m77 431 1 1-1-1m5 0 1 1-1-1z" fill="#cf53b8"/><path d="m83.7 431.3.6.4-.6-.4m65.3-.3v1h13l-13-1z" fill="#993f99"/><path d="m165 431 1 1-1-1z" fill="#cf53b8"/><path d="m172 431 1 1-1-1z" fill="#fca7fc"/><path d="m173 431 1 1-1-1z" fill="#cf53b8"/><path d="m179.7 431.3.6.4-.6-.4z" fill="#d75009"/><path d="m181 431 1 1-1-1z" fill="#fca7fc"/><path d="M208 458a57 57 0 0 1 4-26c-10.3 0-26.7-4.8-36 1.3-7.4 5-11.9 23-2 27.7 9.4 4.5 24.5-1.3 34-3z" fill="#f9cd73"/><path d="M204 431v1h3l-3-1z" fill="#fca7fc"/><path d="M207 431v1h3l-3-1z" fill="#cf53b8"/><path d="M210 431v1h3l-3-1z" fill="#d75009"/><path d="m213 431-6 17 1 11c3.9.8 9.9 5.4 13.7 1.7 4.2-4.2-3-12.6-2.7-17.7.1-2.6 2.7-6.5 1.5-9-1.2-2.5-5.2-2.8-7.5-3m100 0-1.3 14-5.5 10 2.8 5.5 11-1.5-1-3c11.2-4 1-18.7 1-25h-7z" fill="#c31922"/><path d="m319 432 3 3-2-3h5-6z" fill="#d75009"/><path d="m325 431 1 1-1-1z" fill="#fca7fc"/><path d="M321 432c2.4 11.4 3.4 14.9-1 26 9.4 3 24.4 6.8 34 2.7 8.6-3.8 6.4-24.7-1-28.5-8.5-4.5-23-.4-32-.2z" fill="#f9cd73"/><path d="m351 431 1 1-1-1z" fill="#fca7fc"/><path d="m352 431 1 1-1-1z" fill="#d75009"/><path d="m356 431 1 1-1-1z" fill="#cf53b8"/><path d="m362 431 1 1-1-1z" fill="#fca7fc"/><path d="M364 434h1l4-2c-2.4-1.8-4.6-1.3-5 2m7-3v1h7l-7-1m33 0v1h12l-12-1z" fill="#993f99"/><path d="m431.7 431.3.6.4-.6-.4z" fill="#68663f"/><path d="m436 431 1 1-1-1z" fill="#d3e5d4"/><path d="m438 431 1 1-1-1m56.7.3.6.4-.6-.4M78 432v1h3l-3-1m86 0 1 1-1-1z" fill="#993f99"/><path d="m172 432 1 1-1-1z" fill="#cf53b8"/><path d="m177 432 1 1-1-1z" fill="#d75009"/><path d="m212 432 1 1-1-1z" fill="#cf53b8"/><path d="m320 432 1 1-1-1z" fill="#fca7fc"/><path d="m353.7 432.3.6.4-.6-.4z" fill="#d75009"/><path d="m363 432 1 1-1-1z" fill="#cf53b8"/><path d="m365 432 1 1-1-1z" fill="#c31922"/><path d="m433 432 1 1-1-1z" fill="#993f99"/><path d="m434 432 1 1-1-1z" fill="#68663f"/><path d="m435 432 1 1-1-1z" fill="#fca7fc"/><path d="m436 432 1 1-1-1z" fill="#cf53b8"/><path d="m437 432 1 1-1-1z" fill="#993f99"/><path d="m164 433 1 1-1-1m7 0 1 1-1-1z" fill="#fca7fc"/><path d="m175 433 1 1-1-1z" fill="#d75009"/><path d="m211 433 1 1-1-1z" fill="#fca7fc"/><path d="m355 433 1 1-1-1m2 0 1 1-1-1z" fill="#d75009"/><path d="m358 433 1 1-1-1z" fill="#f9cd73"/><path d="m363 433 1 1-1-1z" fill="#fca7fc"/><path d="m163 434 1 1-1-1z" fill="#cf53b8"/><path d="m171 434 1 1-1-1m3 0 1 1-1-1m37 0 1 1-1-1z" fill="#d75009"/><path d="m358 434 1 1-1-1z" fill="#fca7fc"/><path d="m364 434 1 1-1-1z" fill="#cf53b8"/><path d="m163 435 1 1-1-1z" fill="#fca7fc"/><path d="m170 435 1 1-1-1z" fill="#cf53b8"/><path d="m173 435 1 1-1-1m37.3.7.4.6-.4-.6M356 435l1 1-1-1m2 0 1 1-1-1z" fill="#d75009"/><path d="m364.3 435.7.4.6-.4-.6z" fill="#fca7fc"/><path d="m365.3 435.7.4.6-.4-.6z" fill="#993f99"/><path d="m162 436 1 1-1-1z" fill="#cf53b8"/><path d="m169 436 1 1-1-1z" fill="#fca7fc"/><path d="m172 436 1 1-1-1m150.3.7.4.6-.4-.6m35 0 .4.6-.4-.6z" fill="#d75009"/><path d="m359 436 1 1-1-1m-197 1 1 1-1-1z" fill="#fca7fc"/><path d="m169 437 1 1-1-1z" fill="#cf53b8"/><path d="m171 437 1 1-1-1m38.3.7.4.6-.4-.6z" fill="#d75009"/><path d="m359 437 1 1-1-1m6 0 1 1-1-1z" fill="#cf53b8"/><path d="m161 438 1 1-1-1z" fill="#993f99"/><path d="m168 438 1 1-1-1m3 0 1 1-1-1z" fill="#fca7fc"/><path d="M358 438v3h1l1-3h-2z" fill="#d75009"/><path d="m365.3 438.7.4.6-.4-.6z" fill="#fca7fc"/><path d="m161 439 1 1-1-1m7 0 1 1-1-1z" fill="#cf53b8"/><path d="m170 439 1 1-1-1m38.3.7.4.6-.4-.6m115 0 .4.6-.4-.6z" fill="#d75009"/><path d="M359 439v3h1l-1-3z" fill="#c31922"/><path d="m360 439 1 1-1-1z" fill="#f9cd73"/><path d="m161.3 440.7.4.6-.4-.6m8.7-.7 1 1-1-1m190 0 1 1-1-1z" fill="#fca7fc"/><path d="m366.3 440.7.4.6-.4-.6m-206 1 .4.6-.4-.6z" fill="#993f99"/><path d="m167 441 1 1-1-1z" fill="#fca7fc"/><path d="m169.3 441.7.4.6-.4-.6z" fill="#d75009"/><path d="m207 441 1 1-1-1z" fill="#fca7fc"/><path d="m360 441 1 1-1-1m-193 1 1 1-1-1z" fill="#cf53b8"/><path d="M207 442v4h1l-1-4m152 0v8h1l1-8h-2z" fill="#d75009"/><path d="m366 442 1 1-1-1m-206 1 1 1-1-1z" fill="#cf53b8"/><path d="m167 443 1 1-1-1z" fill="#993f99"/><path d="m169 443 1 1-1-1m155 0v3h1l-1-3z" fill="#fca7fc"/><path d="m360 443-1 9h1v-9z" fill="#993f99"/><path d="M366 443v5h1l-1-5m-206 1v3h1l-1-3z" fill="#fca7fc"/><path d="M361 444v5h1l-1-5z" fill="#f9cd73"/><path d="m166.3 445.7.4.6-.4-.6z" fill="#fca7fc"/><path d="m168.3 445.7.4.6-.4-.6z" fill="#d75009"/><path d="M166 447v7h1l-1-7m2 0 1 1-1-1z" fill="#cf53b8"/><path d="m367.3 447.7.4.6-.4-.6z" fill="#993f99"/><path d="M167 448v6h1l-1-6z" fill="#7b0659"/><path d="m323.3 449.7.4.6-.4-.6z" fill="#d75009"/><path d="m168.3 450.7.4.6-.4-.6M366 450v4h1l-1-4z" fill="#fca7fc"/><path d="M207 451v3h1l-1-3z" fill="#d75009"/><path d="m360.3 451.7.4.6-.4-.6z" fill="#cf53b8"/><path d="m160.3 452.7.4.6-.4-.6z" fill="#fca7fc"/><path d="m168 452 1 1-1-1z" fill="#cf53b8"/><path d="m322.3 452.7.4.6-.4-.6z" fill="#d75009"/><path d="m359 452 1 1-1-1z" fill="#c31922"/><path d="m168.3 453.7.4.6-.4-.6m190 0 .4.6-.4-.6z" fill="#d75009"/><path d="m359.3 453.7.4.6-.4-.6z" fill="#993f99"/><path d="m360 453 1 1-1-1z" fill="#fca7fc"/><path d="m160 454 1 1-1-1z" fill="#cf53b8"/><path d="m166 454 1 1-1-1z" fill="#fca7fc"/><path d="M167 454c6 19.1 20.5 9.1 35 8v-1c-8.4 0-21.1 5-29 .5-2.9-1.6-3.4-5.6-6-7.5z" fill="#c31922"/><path d="m321 454 1 1-1-1z" fill="#d75009"/><path d="m366.3 454.7.4.6-.4-.6z" fill="#cf53b8"/><path d="m160.3 455.7.4.6-.4-.6z" fill="#993f99"/><path d="m166 455 1 1-1-1z" fill="#f9cd73"/><path d="m167 455 1 1-1-1z" fill="#993f99"/><path d="M208 455v3h1l-1-3z" fill="#d75009"/><path d="m358 455 1 1-1-1z" fill="#c31922"/><path d="m359 455 1 1-1-1m-192 1 1 1-1-1z" fill="#cf53b8"/><path d="m169 456 1 1-1-1m150 0v2l2-2h-2m38 0-2 5h1l1-5z" fill="#d75009"/><path d="m358.3 456.7.4.6-.4-.6z" fill="#993f99"/><path d="m359 456 1 1-1-1z" fill="#fca7fc"/><path d="m366 456 1 1-1-1z" fill="#993f99"/><path d="m161 457 1 1-1-1m6 0 1 1-1-1m3 0 1 1-1-1z" fill="#fca7fc"/><path d="m161 458 1 1-1-1z" fill="#cf53b8"/><path d="m168 458 1 1-1-1m2 0 1 1-1-1z" fill="#d75009"/><path d="m205 458 1 1-1-1z" fill="#fca7fc"/><path d="M198 460v1l10-2-10 1m122-2v1l4 1v-1l-4-1z" fill="#d75009"/><path d="m357 458 1 1-1-1z" fill="#c31922"/><path d="m358 458 1 1-1-1m7 0 1 1-1-1z" fill="#fca7fc"/><path d="m161 459 1 1-1-1z" fill="#993f99"/><path d="m168 459 1 1-1-1z" fill="#f9cd73"/><path d="m171 459 5 3v-1l-5-2z" fill="#d75009"/><path d="m201.7 459.3.6.4-.6-.4z" fill="#fca7fc"/><path d="m206 459 1 1-1-1m115 0 1 1-1-1z" fill="#c31922"/><path d="m324 459 1 1-1-1z" fill="#fca7fc"/><path d="m357 459 1 1-1-1z" fill="#993f99"/><path d="m365 459 1 1-1-1z" fill="#cf53b8"/><path d="m162 460 1 1-1-1m7 0 1 1-1-1m26.7.3.6.4-.6-.4z" fill="#fca7fc"/><path d="m197 460 1 1-1-1z" fill="#cf53b8"/><path d="m203 460 1 1-1-1m119 0v1c9.4 1.7 30.7 10.8 35-1-11.5 4.2-23.2 1-35 0z" fill="#c31922"/><path d="M325 460v1h4l-4-1z" fill="#d75009"/><path d="m329 460 1 1-1-1m25 0 1 1-1-1m3 0 1 1-1-1z" fill="#fca7fc"/><path d="m365 460 1 1-1-1m-203 1 1 1-1-1z" fill="#993f99"/><path d="m169 461 1 1-1-1z" fill="#f9cd73"/><path d="m170 461 2 2-2-2z" fill="#d75009"/><path d="m188 461 1 1-1-1z" fill="#fca7fc"/><path d="M189 461v1h8l-8-1m141 0v1h8l-8-1z" fill="#d75009"/><path d="m338 461 1 1-1-1m12 0 1 1-1-1z" fill="#fca7fc"/><path d="M351 461v1h3l-3-1z" fill="#d75009"/><path d="m356 461 1 1-1-1z" fill="#993f99"/><path d="m364 461 1 1-1-1m-201 1 1 1-1-1m7 0 1 1-1-1z" fill="#fca7fc"/><path d="M178 462v1h8l-8-1z" fill="#d75009"/><path d="m356 462 1 1-1-1z" fill="#f9cd73"/><path d="m364 462 1 1-1-1m-201 1 1 1-1-1z" fill="#993f99"/><path d="m171 463 1 1-1-1z" fill="#fca7fc"/><path d="m355 463 1 1-1-1z" fill="#d75009"/><path d="m363 463 1 1-1-1z" fill="#993f99"/><path d="m164 464 1 1-1-1m8.3.7.4.6-.4-.6z" fill="#fca7fc"/><path d="m355 464 2 2-2-2z" fill="#cf53b8"/><path d="m362 464 1 1-1-1z" fill="#993f99"/><path d="m165 465 1 1-1-1z" fill="#fca7fc"/><path d="m173 465 1 1-1-1z" fill="#cf53b8"/><path d="m355 465 1 1-1-1z" fill="#993f99"/><path d="m357 465 1 1-1-1z" fill="#75c3c8"/><path d="m358.7 465.3.6.4-.6-.4z" fill="#fca7fc"/><path d="m360 465 1 1-1-1z" fill="#cf53b8"/><path d="M166 466v1h4l-4-1z" fill="#fca7fc"/><path d="m170 466 1 1-1-1z" fill="#cf53b8"/><path d="m171 466 1 1-1-1z" fill="#993f99"/></svg>