<svg xmlns="http://www.w3.org/2000/svg" viewBox="0 0 400 400">
<g fill-rule="evenodd"><path d="M0 200v200h400V0H0v200M204.5 39.6c15 3.1 23.3 19 19.7 38.4-.4 1.9-.9 4.4-1 5.6a5.3 5.3 0 0 1-2 3.6c-1 1-1.6 1.8-1.6 2.4 0 1.8-3 5.8-6.1 8.4-3.5 2.9-3.6 3.2-3.1 8 1.8 16.2 8 21.9 32 29.4 15.8 5 19.3 10.7 21.6 35.4 1 11.6 6.3 43 8 48.2 6.8 20.2 28.7 44.2 43.8 47.6l4.3 1.1c2 .6 2.3.2 2.3-3.4 0-4.2 1.3-4.2 1.8.1a36 36 0 0 0 1 5c.7 2 .9 3.5.7 6.6-.1 3.6 0 3.9.6 3.6 1.8-1 2.7-8.2 1.9-15.8-.3-2.7 1-3.1 1.5-.5l1.3 4.9c1.4 5.2.9 9.8-1.4 14.1-1.5 2.8-1.7 3.7-.8 3.7 1.4 0 2.2-1 4.4-5 2.6-5 4-7 4.8-7 .8 0 .8.3-.1 1.5-.5.6-1 2.1-1.4 3.4-.4 1.2-1.3 3-2.1 4.2-1.4 1.8-2 2.9-3.5 5.3l-.6 1-9.6.4c-10.7.3-10.5.2-10.5 3.2 0 11.4-9.8 22.3-24.4 27-17.2 5.4-30.9 4.8-60.2-2.8a706.9 706.9 0 0 0-26.4-6.3 49 49 0 0 0-8.4 2.3c-31.4 10.2-57.8 12.9-78 7.8-17.9-4.5-25.8-12.4-25.8-25.8 0-5.7.9-5.2-8.6-5.2-4.4 0-8.3-.2-8.6-.4-2-1-7.3-10.7-8.3-14.7-.4-1.8 1.2-.8 2.5 1.5 4.3 7.5 6.1 10 7.3 10 .8 0 .6-1-.7-2.4-2.4-2.6-3.2-13.6-1.3-19.5 1.4-4.4 3-4.3 2.2.2-1.2 5.8-.3 13 1.9 16.4 1.3 1.9 1.3 1.9 1 .5-1.2-4.9.3-20.2 2-20.2.7 0 .8.3 1 2.9v2.9h2.6c13 0 35.9-24.5 44.8-48.1 2.1-5.7 7-31.4 9.2-49.1 3.1-24.3 6.4-29.6 21.1-34 23.7-7.1 29.6-12.4 31.7-28.3.9-6.6 1-6.2-2.1-9.4a18.5 18.5 0 0 1-5.3-8.2c-.5-1.7-1-2.4-1.8-2.8-2.6-1.3-4.5-15-3.2-23.3 2.6-17 15.3-27.4 29.9-24.4M174.4 81c1 5 1.3 6 2.7 7 .7.4 1.5 1.5 1.7 2.3 1 3 3 6 5.2 8.3 3 2.8 3 3.2 2.2 8.8-2.1 15-6.8 19.7-26.6 26.2-8 2.7-10.5 3.2-11 2.5-1.4-2.3 9-30.8 15.7-42.8 3.4-6.1 5.4-10.2 7-14 1.5-4.2 2-4 3 1.7m53.6.2c.7 1.9 3.8 8.4 6.9 14.6 8.2 16.5 11 23.3 14 35.2 1.7 6.4 2.4 6.3-10.2 2.2-20.6-6.8-26.9-13.4-27.5-29-.1-3 0-3.1 1.1-4 4.1-3.5 5-4.4 6.3-6.3.8-1.1 1.6-2.8 1.9-3.6.2-.8 1-1.9 1.6-2.3 1.3-1 1.8-2.1 2.4-6.2 1-5.3 1.5-5.4 3.5-.6M161 202.6c-.2.3-.6 2.7-1 5.3-2.2 12.5-7.6 19.8-36.8 48.7a271.7 271.7 0 0 0-15.3 16c0 .8.2.8 5.7-.6 2.5-.6 11-2 18.6-3.2 29.7-4.4 28.8-3.8 29.3-18.4a64 64 0 0 1 1.4-13.2c2.1-10 2.3-11.4 2-18.4-.2-9.7-2.7-19.5-4-16.2m75.3.2c-.8 1.2-2.9 9.3-3.5 13.6-.8 5.2-.3 13.2 1.4 20a50 50 0 0 1 1.7 14c.5 14.4.5 14.3 25.3 18 7.6 1 16 2.4 18.8 2.8 8.2 1.4 8 1.4 8 .7 0-.3-4.6-4.9-10.1-10.2-28.9-27.4-38-39.8-39.5-54.2-.6-5-1.1-6.2-2.1-4.7m-73.6 6.7c.5 3.5.4 8.7-.3 8.8-2 .4-2.2-.7-1.4-5.8.8-5.3 1.2-6 1.7-3m74.5 1.8c.4 4 .2 5-1 5.2-1.2.2-1.3-.8-.6-5.3.8-4.8 1.1-4.8 1.6 0m-30.8 102.6 17.4 4.2c29 7.4 39.6 8.2 57.6 4.6 9.3-1.9 10.5-1.7 13.4 1.7 3 3.6 0 5.7-10.2 7l-9 1.3a977.2 977.2 0 0 1-124.2 2c-34.5-.5-52.3-4-50.8-10 .9-3.4 4-4 12.3-2.2 21.4 4.7 48 2 77.6-7.8 7.9-2.6 7.7-2.6 15.9-.8" fill="#6c7170"/><path d="M193.9 39.8c-10 2.5-17.4 11.7-19.3 24.2-1.2 8 .7 22.2 3 23.2 1.4.5 1.4.5 2.6-7.7 2.2-15.8 5.4-20.6 12.4-19 4.1 1.1 8.4 1.3 12.5.5 6.5-1 7.5-.9 9.7 2.4 2.4 3.4 3.2 6.4 3.6 13.3.4 5.6 1 11.3 1.3 11.6.6.6 3-2.8 3.4-4.7l1-5.6c4.6-24.2-10.3-43-30.2-38.2m-46.1 99c-8.7 5.4-11 10.6-13.6 31.2a707 707 0 0 1-7.6 44c-5.7 22.1-31.8 52.9-45.1 53.2h-1.3l1.1.4c1.7.5 2 .9 4.8 5.1 5.9 8.8 6 9.8 3.5 14.2a13 13 0 0 1-2.1 3c-.8.2-.2 11 .7 13.3 9.5 22.8 51.2 26.8 102.8 10a49 49 0 0 1 8.4-2.3l9 2c4.5 1 12.3 3 17.4 4.3 29.3 7.6 43 8.2 60.2 2.7 14.5-4.6 24.4-15.5 24.4-26.8 0-.8.2-1.9.4-2.3.2-.5 0-1.3-.7-2.8-1.7-3.6-1.7-5.7.1-9.2 2-4.1 5-8.8 6.3-10.3 1-1 1-1.3.7-1.5l-2.9-.8c-14.5-4-35.8-27.8-42.3-47.2-1.7-5.3-7-36.6-8-48.2-1.5-16.4-3.5-23-8.3-28.3-2.3-2.5-6.5-5.3-6.5-4.3 0 .4-1 1.7-2.1 3-6.6 7-7.2 8.7-7.5 23.1-.2 9.5-.3 11.4-.8 11.7-.7.4-77 .5-79 0l-1.2-.2-.2-10.8c-.4-14.6-1-16.8-6-23a21.7 21.7 0 0 1-2.5-3.7c0-.6-.4-.5-2.1.6m14.6 64c1.3 2.3 2.5 9.4 2.7 15.9.2 7 0 8.4-2.1 18.4a64 64 0 0 0-1.4 13.2c-.5 14.6.4 14-29.3 18.4a283 283 0 0 0-18.6 3.2c-5.5 1.4-5.7 1.4-5.7.5 0-.3 6.9-7.5 15.3-15.9 29.2-29 34.6-36.2 36.7-48.7 1-6.3 1.4-7 2.4-5m76 4.6c1.6 14.4 10.6 26.8 39.5 54.2 5.5 5.3 10.1 9.9 10.1 10.2 0 .7.2.7-8-.7l-18.8-2.8c-24.8-3.7-24.8-3.6-25.3-18a50 50 0 0 0-1.7-14 51 51 0 0 1 .2-27.8c2.1-8.2 3.1-8.5 4-1.1m-160.6 60c.2.4 2.2.2 2.2-.1l-1.2-.2c-.7 0-1.2.2-1 .3m244.2 0c0 .3-.3.5-.6.5s-.5.2-.3.6c0 .3.3.6.5.6.4 0 .9-1.7.6-2-.1 0-.2 0-.2.3m6.9 3.1c0 .9 0 1.2.2.7v-1.6c-.1-.4-.2 0-.2.9m-251.5 2.3-.3 4.1c-.1 2.8-1.5 3.5-2.6 1.4-.6-1-.6-.8.2 4 .4 2.4 3.3 3.4 6.2 2 .9-.5 1-2.1 0-3.4a32 32 0 0 1-1.8-5.3c-1.4-5-1.4-5-1.7-2.8m242.8 4c-.5 1.3-1.4 3-2 3.8-2 2.9-1 4.1 3.2 4.1 1.9 0 2.4-.2 3.1-1 1.2-1.2 3.3-5 3-5.3-.2-.1-.3 0-.3.2 0 .3-.4.7-.8.9-.8.4-.8.3-.6-1.3.2-1.5.2-1.6-.2-.9-1.5 2.3-2.7 1.8-3.4-1.5-.3-1.6-.9-1.3-2 1m-69.1 3c3.3 1.3 6.9 4.6 6.9 6.2 0 1.2 0 1.2-5.2 1.8-5 .6-12.1 3.2-23 8.3a117.6 117.6 0 0 1-20 8.5c-.4-.2-.6-1.9-.8-8.5-.3-9.2-.3-9.4 2.2-9.4 3.2 0 22.2-4.4 29.4-6.8 4.6-1.5 7-1.5 10.5-.1m-84.4 6c12 6 10.8 6.6-6.7 3.6-3.8-.6-9.1-1.3-11.7-1.4-5.6-.3-6.1-.6-4.6-2.9 2.1-3.1 4.6-4 10-3.9l4 .2 9 4.5m-97.1-3.8c0 .5 1.7 2.7 1.9 2.4l-.8-1.4c-.6-.7-1.1-1.1-1.1-1" fill="#7ad3bb"/><path d="M186.6 61.3c-3 2.6-5 8.1-6.4 18l-1.2 7.8c-.7 1.9 2.2 7.3 5.9 11.2 3 3.2 3 2.8 2.1 9.4-2.1 16-8 21.2-32.9 28.7-4.9 1.5-4.9 1.4-1.7 5.5 5 6.3 5.6 8.5 6 23.1l.2 10.8 1.2.2c2 .5 78.3.4 79 0 .5-.3.6-2.2.8-11.7.3-14.4.9-16.1 7.5-23.2 3-3.3 3-3.2-5.3-5.9-24.2-7.7-31-14.4-31.5-31.4l-.1-3 1.8-1.5c6.5-5.3 8-7.8 7.3-13.2-.3-2.1-.7-6.5-.9-9.8-.4-6.4-1.3-9.5-3.6-12.9-2.2-3.3-3.2-3.5-9.7-2.4-4 .8-8.4.6-12.5-.4-3.5-.9-4.4-.8-6 .7M70.9 261.5c-3.1 1.1-3.2 18 0 22 1.4 1.8 1.5 2.9.2 2.9-.8 0-4-4-4.7-6.2-.7-1.6-3.8-6.2-4.3-6.2-1.9 0 5.3 14.2 7.9 15.6.4.2 4.4.3 9.2.3l8.6-.1 1.7-2.8c2.7-4.4 2.5-5.4-3.4-14.3-3.3-5-4.5-5.8-7.7-5-.5 0-.6-.5-.8-3.1-.5-7.7-2.9-1.7-3.4 8.4-.3 5 .1 6.4 1.8 6.4 1 0 1 0 1.2-3.9.3-5 .5-5.1 1.8-.2a34 34 0 0 0 1.9 5.4c1.4 2.7.9 3.8-2.3 4.2-5.2.8-8.8-10-7-20.4.5-2.5.3-3.4-.7-3m251.7.2-.3 3.8c-.1 3.8-.3 4-1.6 2.7-2.1-2-3.8-1-7.2 4.6-4.8 7.9-5.4 10.2-3.9 14 1.3 3.5.7 3.3 11.4 3l9.5-.3.7-1.2c.8-1.6 1.7-3 3.4-5.2.8-1.1 1.7-3 2-4.2a14 14 0 0 1 1.5-3.4c.9-1.2.9-1.5.1-1.5s-2.2 2-4.8 7c-2.2 4-3 5-4.4 5-1 0-.7-1 .8-3.7 2.3-4.3 2.8-8.9 1.4-14.1l-1.3-4.9c-.3-1.6-1.1-2.2-1.7-1.3 0 .2 0 2.2.4 4.4a22 22 0 0 1-2.5 15.1c-1.6 2.9-2.2 3.3-4.7 3.3-4.2 0-5.1-1.3-3.2-4.1.6-.9 1.5-2.5 2-3.7 1.2-2.7 2.2-2.8 2.2-.2 0 1.1 1 2.1 1.9 1.8 1.8-.5 2.3-5 1-9.5-.5-1.4-1-3.4-1-4.6-.4-3-1.2-4.3-1.7-2.8m-82 18.3c-7.2 2.4-26.2 6.8-29.4 6.8-2.5 0-2.5.2-2.2 9.4.2 6.6.4 8.3.9 8.5.7.2 6.8-2.4 20-8.5 10.8-5.1 17.9-7.7 22.9-8.3 5.2-.6 5.2-.6 5.2-1.8 0-1.6-3.6-4.9-7-6.2-3.4-1.4-5.8-1.4-10.4.1m-92.3 1.7a8.1 8.1 0 0 0-4.6 3.5c-1.5 2.3-1 2.6 4.6 3 2.6 0 7.8.7 11.7 1.3 17.5 3 18.7 2.4 6.7-3.5l-9-4.5-4-.2c-2.7 0-4.4 0-5.4.4" fill="#f8e56b"/><path d="M172.6 80.5a129.3 129.3 0 0 1-6 11.8c-7.5 13.4-18 41.3-16.2 43 .5.6 16.2-4.6 20.3-6.7 9.8-5 13-9 14.7-19.6 1.1-6.7 1-7.1-2.2-10.4-2.5-2.6-5.2-7-5.2-8.5 0-.2-.7-1-1.6-1.7-1.3-1-1.6-1.6-2.2-3.9-1.2-4.7-1.2-4.6-1.6-4m52.9.1c-.2.4-.5 2-.7 3.6-.4 2.4-.7 3-2 4.2-.8.8-1.6 1.8-1.8 2.4a26 26 0 0 1-8.4 10c-1.1.9-1.1.9-.8 4.3 1.2 15.2 6.6 20.6 27.5 27.5 9.8 3.3 9.5 3.4 7.9-2.2A154.5 154.5 0 0 0 235 99.7c-2.3-4.5-5-10.2-6-12.5-3.6-8-3.4-7.5-3.6-6.6" fill="#292e2d"/><path d="M171.2 79.2c-1.5 3.9-3.5 8-6.9 14-6.7 12.1-17 40.6-15.7 42.9.5.7 3 .2 11-2.5 19.8-6.5 24.5-11.1 26.6-26.2.9-5.6.8-6-2.2-8.8a21 21 0 0 1-5.2-8.3c-.2-.8-1-1.9-1.7-2.3-1.4-1-1.8-2-2.7-7-1.1-5.7-1.6-6-3.2-1.8m54-1-.8 3.6c-.6 4-1.1 5.3-2.4 6.2-.6.4-1.4 1.5-1.6 2.3-.3.8-1.1 2.5-2 3.6-1.2 2-2 2.8-6.2 6.2-1.2 1-1.2 1.1-1 4.1.5 15.6 6.8 22.2 27.4 29 12.6 4 12 4.2 10.2-2.2a156.8 156.8 0 0 0-14-35.2c-3-6.2-6.2-12.7-7-14.6-1.4-3.5-1.9-4.1-2.5-3m-51.1 6.3c.6 2.3 1 2.9 2.2 4 .9.6 1.6 1.4 1.6 1.6 0 1.5 2.7 5.9 5.2 8.5 3.2 3.3 3.3 3.7 2.2 10.4-1.7 10.5-4.9 14.7-14.7 19.6-4.1 2-19.8 7.3-20.3 6.7-1.8-1.7 8.7-29.6 16.2-43l4.4-8.7c2-4.5 1.8-4.5 3.2.9m54.8 2.7 6 12.5c6 12 8.8 19 12.2 30.7 1.6 5.6 2 5.5-8 2.2-20.8-6.9-26.2-12.3-27.4-27.5-.3-3.4-.3-3.4.8-4.4a26 26 0 0 0 8.4-9.9c.2-.5 1-1.6 1.8-2.4 1.3-1.2 1.6-1.8 2-4.2.9-5.3.4-5.6 4.2 3m-68 125.3c-.8 5.2-.5 6.2 1.4 5.8 1-.2.6-10.7-.3-10.7-.2 0-.7 2.2-1 4.9m75.1-4.5c-.3 1-1 5.7-1 7.2 0 1.7 1.7 2 2.2.3.4-2-.6-9-1.2-7.5m-45.7 106.6c-29.5 9.8-56.2 12.5-77.6 7.8-8.2-1.8-11.4-1.2-12.3 2.2-1.5 6 16.3 9.5 50.8 10 6.6 0 16.5.4 21.9.6 24.8 1.2 86.7-.4 102.3-2.6l9-1.2c10.1-1.4 13.2-3.5 10.2-7.1-2.9-3.4-4-3.6-13.4-1.7-18 3.6-28.6 2.8-57.6-4.6-25-6.3-24.5-6.3-33.3-3.4" fill="#424445"/></g></svg>