<svg xmlns="http://www.w3.org/2000/svg" fill-rule="evenodd" clip-rule="evenodd" image-rendering="optimizeQuality" shape-rendering="geometricPrecision" text-rendering="geometricPrecision" viewBox="0 0 512 512">
  <path fill="#1b2840" d="M235.5 6.5a70.3 70.3 0 0 1-11-3c-2.37.34-4.7.84-7 1.5a4.6 4.6 0 0 0-2.5 2.5l-1-2c-.58 3.83-2.08 6.83-4.5 9h-12a17.94 17.94 0 0 1-6 8c.43-4.44 2.77-7.44 7-9 3.83.57 7.16-.1 10-2 3.36-8.68 9.7-12.18 19-10.5a17.33 17.33 0 0 1 8 5.5Z"/>
  <path fill="#1d2740" d="M191.5 27.5a17.42 17.42 0 0 0-5.5 3c-2.1-.75-4.1-1.08-6-1a69.7 69.7 0 0 0-3 12 40 40 0 0 1-8.5 6 9.86 9.86 0 0 0-1 6h-3v3c-1.69-7.9 1.65-12.56 10-14-.83-12.5 4.84-17.5 17-15Z"/>
  <path fill="#0a203d" stroke="#09203f" d="M309.22 46.2c-.22 1.23-.53 2.41-1.64 3.18a36.38 36.38 0 0 1 6.7 7.64c-1.23.78-2.08 2.06-3.52 2.28.7 1.07.9 1.33 1.2 2.6 2.07.24 3.58-.1 5.84-1-.08 1.43-.05 3.36.7 4.6-.9 1.09-1.23 2.6-2.34 1.5-.93 1.2-.48 1.14-1.66 2.5-5.88.48-8.1-2.13-7.66-7.28-3.17 3.82-2.2-.05-3.56 1.4.21.59.72 1.75 1.18 2.16a17.7 17.7 0 0 0-1.56 5.08c-.33-.33-.57-.03-.9-.36-.91 3.69-1.2 7.34-1.62 2.99-.58 5.34-1.09 5.22-3.8 10.09 1.78 5.55 1.7 11.8 1.92 17.92.28 3.24 1.12 3.58 2.5 1 .04 2.98-.12 5.97-.5 9a57.4 57.4 0 0 1-9-2c-2.28 7.84-6.28 14.01-12 18.5.6.87 1.44 1.37 2.5 1.5a26 26 0 0 1 7-6c2.03 1.85 2.03 2.52 0 2a16.6 16.6 0 0 0 .5 7h3v3c-2.6.64-5.1.64-7.5 0l-1 2h-4c-.75 1.14-.58 2.13.5 3 .7-.53 1.2-1.2 1.5-2 .3 1.27.8 2.43 1.5 3.5a15.74 15.74 0 0 0-.5 7.5 8.97 8.97 0 0 0-7 0c-1.45-2.11-1.28-4.28.5-6.5-2.26-2.18-2.26-4.51 0-7-2.31-3.04-4.81-3.2-7.5-.5a4.25 4.25 0 0 0 0 4 24.36 24.36 0 0 1 2.5 5.5l-1 1c1.24 4.67 2.07 4.5 2.5-.5l.5 2.5a7.67 7.67 0 0 1-3 4.5l1 2c2.38.51 4.38 1.51 6 3-6.55.62-9.71-2.38-9.5-9a49.23 49.23 0 0 1 0-14 50.3 50.3 0 0 0 17.5-18c1.67-2.7 2.84-5.7 3.5-9a13.79 13.79 0 0 0 7-8 42.3 42.3 0 0 0 0-13 4.4 4.4 0 0 0-3.5-1c.17-4.35 0-8.68-.5-13a5.54 5.54 0 0 0-1.5-3 10.7 10.7 0 0 0-3-8c.07-1.53-.6-2.53-2-3a7.53 7.53 0 0 0-4-5 11.05 11.05 0 0 0-6-5 7.07 7.07 0 0 0-3-2 10.03 10.03 0 0 0-8-3 40.35 40.35 0 0 0-25 3.5 28.86 28.86 0 0 0-6 4.5 28.35 28.35 0 0 0-12 13 22.59 22.59 0 0 0-4 8 5.54 5.54 0 0 0-1.5 3c-.5 3.32-.67 6.65-.5 10-1.97-.24-3.8.1-5.5 1a22.4 22.4 0 0 0 3 17l4 2a52.27 52.27 0 0 0 5.5 12 61.27 61.27 0 0 0 13.5 16c.5 4.66.67 9.32.5 14v1c-.97 2.1-1.3 4.44-1 7-4.82 1.17-9.5 2.5-14 4a26.93 26.93 0 0 0-11 3 6.86 6.86 0 0 0-5 1h-1c-2.65-.09-4.99.58-7 2-2.65-.09-4.99.58-7 2-6.16-.24-9.16-3.57-9-10-3.92.54-6.92-.8-9-4 2.8 1.08 5.64 2.08 8.5 3 .7-.53 1.2-1.2 1.5-2a43.29 43.29 0 0 0-3-5.5 19.96 19.96 0 0 0 4-11.5 58.78 58.78 0 0 1 0-13.5 306.86 306.86 0 0 0-5-20c1.73-2.43 2.4-4.93 2-7.5a10.25 10.25 0 0 1 4-1.5c-2.23-2.47-2.23-4.8 0-7-4.24-2.79-4.9-6.12-2-10a6.54 6.54 0 0 0-3-3c2.5-2.18 4.5-4.18 6-6a6.8 6.8 0 0 1-3-1.5 26.33 26.33 0 0 1 7-7.5c-1.33-1.84-1.17-2.34.5-1.5.7-.53 1.2-1.2 1.5-2-1.12.1-2.12-.4-3-1.5 1.4-2.01 1.73-4.01 1-6 6.89-7.39 15.56-14.05 26-20 1.64-1.4 3.14-2.9 4.5-4.5.41.46.91.8 1.5 1 3.8-1.25 6.3-3.25 7.5-6l1 1c.75-1.83 1.75-3.5 3-5 1.57-.56 2.9.1 4 2 3.78-.46 7.62-.8 11.5-1a22 22 0 0 1 9 4c7.5-.96 15.5-.62 24 1 3.68 2.4 6.68 5.4 9 9a9.1 9.1 0 0 1 1 5c3.34.87 6.68 1.87 10 3 1.67 3.31 4.72 5.68 7.72 7.7z"/>
  <path fill="#141e40" stroke="#141e40" d="M243.5-.5h21c1.59 5.66 5.25 7.82 11 6.5a11 11 0 0 1 6.5-4.5c9.37.4 14.87 5.06 16.5 14 4.93-1.63 9.6-1.3 14 1 1.1 2.73 2.1 5.56 3 8.5 0 1.81-.66 3.31-2 4.5.87 2.03 1.89 2.4 4.02 3.04.48-.95-.25-2.07-.4-3.12l6.52.96c.17 1.32-.52 2.19-1.36 3.2 2.7-.6 5.24.26 7.88 1.86a17.85 17.85 0 0 0-2.76 4.94c.6 1.3 1.3 2.25 2.7 2.62-3.11 2-4.3 3.72-2.86 6.72 3.05-4.26 6.48-3.81 10.76-.22 1.02-1.2 2.36-.93 2.34.94-.05 1.24-.92 3.8-1.86 4.56-1.11-1.2-3.42-2.17-4.64-.96-1.24-2.64 5.44 5.14-4.74-2.44-.82 3.3-1.02 3.97-1.2 7.68.72-2.74 2.34-1.24 4.62.16-.76 1.22-1.16 2.22-2.4 3a16.2 16.2 0 0 1 2.64 4.7c4.42 2.84 7.16 6.53 10.74 10.36.33-.17-.33-.55 0-.72-1.97-2.44-3.23-5.38-4.6-7.94l3.6.66c.33 2.5 2.5 3.98 4.84 5.14-.84 2.59-1.1 3.55-4.34 6.28 2.48 3.49 4.14 5.74 8 7.58 1.7 8.41-.86 13.22-8.9 13.48 1.21 1.22 1.4 1.97.18 3.08.8.3 1.42 1.23 1.94 1.92-1.1 2.14-2.1 3.77-3 5.96a16.75 16.75 0 0 0 5.38 4.2c.48.95.71 2.79.56 3.84-7.47.08-8.8 1.9-4 7.16.98 2.59.65 5.61.34 8.36-1.37-.16-2.35.61-3.64 1.1a10.77 10.77 0 0 1-5.82 3.26c-.43.8-.58 1.15-.82 2.02 1.78 2.22 1.56 4.85.78 7.62-1.97.8-3 2.62-4.02 4.48-2.13 1.1-5.02 2.82-7.22 3.72-3.15-1.92-3.8-5.4-.98-7.82-.74-1.79-1.89-3.98-2.48-5.86 1.33-2.67 1.51-4.91.18-7.58.48-.98 2.16-1.75 3.02-2.44a10.1 10.1 0 0 0-1-5c.63-3.52 1.3-7.02 2-10.5l-2-25a49.8 49.8 0 0 1 2-11.5 66.98 66.98 0 0 0-2-12c.46-.41.8-.91 1-1.5a49.3 49.3 0 0 0-8-14.5l1-1a48.15 48.15 0 0 1-5-2.5 25.7 25.7 0 0 0-2-5 20.7 20.7 0 0 1-7-8 140.28 140.28 0 0 0-10-3 9.1 9.1 0 0 0-1-5 30.03 30.03 0 0 0-9-9c-8.5-1.62-16.5-1.96-24-1a22 22 0 0 0-9-4c-3.88.2-7.72.54-11.5 1-1.1-1.9-2.43-2.56-4-2a18.91 18.91 0 0 0-3 5l-1-1c-1.2 2.75-3.7 4.75-7.5 6a3.65 3.65 0 0 1-1.5-1 38.96 38.96 0 0 1-4.5 4.5c-10.44 5.95-19.11 12.61-26 20 .73 1.99.4 3.99-1 6 .88 1.1 1.88 1.6 3 1.5-.3.8-.8 1.47-1.5 2-1.67-.84-1.83-.34-.5 1.5a26.33 26.33 0 0 0-7 7.5 6.8 6.8 0 0 0 3 1.5 53.31 53.31 0 0 1-6 6 6.54 6.54 0 0 1 3 3c-2.9 3.88-2.24 7.21 2 10-2.23 2.2-2.23 4.53 0 7-1.44.22-2.77.72-4 1.5.4 2.57-.27 5.07-2 7.5 1.97 6.93 3.64 13.6 5 20a58.78 58.78 0 0 0 0 13.5 19.96 19.96 0 0 1-4 11.5 43.29 43.29 0 0 1 3 5.5c-.3.8-.8 1.48-1.5 2-2.86-.92-5.7-1.92-8.5-3a3.3 3.3 0 0 1-1.5-2c-.5-3.32-.67-6.65-.5-10-6.56-.4-9.9-3.9-10-10.5-.13-2.6.54-4.94 2-7-8.43-6.14-9.1-12.97-2-20.5-7.11-7.66-6.45-14.66 2-21-7.66-8.38-6.33-15.04 4-20a11.22 11.22 0 0 1-2-6v-3h3c-.3-2.1.03-4.1 1-6a40 40 0 0 0 8.5-6 69.7 69.7 0 0 1 3-12c1.9-.08 3.9.25 6 1a17.42 17.42 0 0 1 5.5-3v-5a17.94 17.94 0 0 0 6-8h12c2.42-2.17 3.92-5.17 4.5-9l1 2a4.6 4.6 0 0 1 2.5-2.5c2.3-.66 4.63-1.16 7-1.5a70.3 70.3 0 0 0 11 3l8-7z"/>
  <path fill="#a1605c" d="M285.5 58.5c1.4.47 2.07 1.47 2 3-1.4-.47-2.07-1.47-2-3Z"/>
  <path fill="#b66443" d="M233.5 51.5a22.53 22.53 0 0 0-5.5 8 25.54 25.54 0 0 1-6.5 5 28.35 28.35 0 0 1 12-13Z"/>
  <path fill="#b56b58" d="M281.5 53.5a7.53 7.53 0 0 1 4 5 7.53 7.53 0 0 1-4-5Z"/>
  <path fill="#e2733d" stroke="#e5733a" d="M275.5 48.5c2.59.92 4.59 2.59 6 5a7.53 7.53 0 0 0 4 5c-.07 1.53.6 2.53 2 3a10.7 10.7 0 0 1 3 8 12.27 12.27 0 0 1-4-7 6.48 6.48 0 0 1-4.5-1 4.93 4.93 0 0 0-.5 3h3a4.71 4.71 0 0 0 2 4l-1 2c.98 4.72 1.65 9.22 2 13.5a9.62 9.62 0 0 1-1.5 4.5 7.38 7.38 0 0 0-4.5 0c.13-.74-.04-1.4-.5-2a2.86 2.86 0 0 1-2.5 1c-3.77.24-7.44-.26-11-1.5a92.5 92.5 0 0 1-3-4.5c1.09-1.5 2.26-1.84 3.5-1 1.11-1.26 1.28-2.43.5-3.5a155 155 0 0 1 10-1.5c.24-1.3-.1-2.3-1-3a84.02 84.02 0 0 0-16 1c2.67-1.5 2.5-2.5-.5-3-4.14.66-8.31 1.16-12.5 1.5 3.37.17 4.37 1.67 3 4.5l3 4a25.98 25.98 0 0 0-3.5 11l-1 1a12.8 12.8 0 0 1-.5-5 4.8 4.8 0 0 0-4 2v-3c-6.2.23-12.37-.1-18.5-1l-2.5 1c.12.6.46.94 1 1l5 4v1c-4.2.3-4.88 1.96-2 5-.53.7-1.2 1.2-2 1.5a20.86 20.86 0 0 0 3 6.5l-1 1c-1.35-1.68-3.02-2.18-5-1.5 2.7 2.55 2.03 3.72-2 3.5-.13 3.07.2 6.07 1 9a52.27 52.27 0 0 1-5.5-12l-4-2a22.4 22.4 0 0 1-3-17 9.09 9.09 0 0 1 5.5-1 94.29 94.29 0 0 0 2-13 22.59 22.59 0 0 1 4-8c2.4-1.3 4.57-2.96 6.5-5 1.27-3.1 3.1-5.76 5.5-8 1-.09 1.83.25 2.5 1a11.53 11.53 0 0 1 4.5-3.5 69.41 69.41 0 0 1 16-3.5 131.6 131.6 0 0 1 19 3Z"/>
  <path fill="#d0754b" d="M264.5 43.5a28.56 28.56 0 0 0 8 3 7.07 7.07 0 0 1 3 2 130.82 130.82 0 0 0-19-3 69.41 69.41 0 0 0-16 3.5 11.53 11.53 0 0 0-4.5 3.5 2.86 2.86 0 0 0-2.5-1 28.86 28.86 0 0 1 6-4.5 40.35 40.35 0 0 1 25-3.5Z"/>
  <path fill="#754d4b" d="M264.5 43.5c3.22-.15 5.88.85 8 3a28.56 28.56 0 0 1-8-3Z"/>
  <path fill="#17213f" d="M312.5 16.5a8.55 8.55 0 0 1 5 6v5h7c7.47 3.14 10.13 8.81 8 17h5c7.25 4 8.92 9.83 5 17.5 7.67 5.18 9 11.68 4 19.5a74.79 74.79 0 0 1 5.5 6c.5 2.98.67 5.98.5 9a15.26 15.26 0 0 1-6 7c4.22 4.76 5.05 10.1 2.5 16a12.83 12.83 0 0 0-5.5 5.5c2.65 3.96 2.65 7.8 0 11.5.31-2.75-.02-5.41-1-8-4.8-5.25-3.48-7.92 4-8a4.93 4.93 0 0 0-.5-3 18.12 18.12 0 0 1-5.5-4.5c.9-2.2 1.9-4.36 3-6.5-.53-.7-1.2-1.2-2-1.5 1.21-1.11 1.21-2.28 0-3.5 8.04-.26 11.2-4.59 9.5-13a24.38 24.38 0 0 1-9.5-8 8.63 8.63 0 0 0 5-5.5 6.84 6.84 0 0 1-4-5.5h-3a47.5 47.5 0 0 0 5 7.5l-1 .5a63.14 63.14 0 0 0-12-10 18.91 18.91 0 0 0-3-5 9.42 9.42 0 0 0 3-3c-2.28-1.4-3.78-.73-4.5 2 .18-3.71.68-7.21 1.5-10.5 2.76-.98 4.76-.14 6 2.5 1.22-1.21 2.39-1.21 3.5 0a3.92 3.92 0 0 0 1.5-3c.02-1.87-.48-2.2-1.5-1-4.28-3.6-7.95-3.26-11 1-1.45-3-.61-5.5 2.5-7.5a4.33 4.33 0 0 1-3-2.5c.75-1.83 1.75-3.5 3-5-2.64-1.6-5.3-2.1-8-1.5a4.39 4.39 0 0 0 1-3.5h-4a4.93 4.93 0 0 1-.5 3c-2.13-.64-4.9-2.58-5.76-4.6 1.34-1.19 2-2.09 2-3.9-.9-2.94-.63-5.77-1.74-8.5z"/>
  <path fill="#66342c" d="M234.5 72.5v2c-6.5-.1-6.5-.76 0-2Z"/>
  <path fill="#361c27" d="M234.5 72.5c4.68.17 9.35.5 14 1-1.2 1.28-2.86 1.94-5 2-3.02-.27-6.02-.6-9-1v-2Z"/>
  <path fill="#ac5e48" d="M248.5 73.5c.9.7 1.24 1.7 1 3-4.01.17-8.01 0-12-.5a5.55 5.55 0 0 1-3-1.5c2.98.4 5.98.73 9 1 2.14-.06 3.8-.72 5-2Z"/>
  <path fill="#8b574a" d="M290.5 69.5a5.54 5.54 0 0 1 1.5 3c.5 4.32.67 8.65.5 13a185.4 185.4 0 0 1-2-16Z"/>
  <path fill="#09203f" d="M309.22 46.2c.8 1.5 1.83 2.56 2.36 4.4 1.61.93 2.44 1.94 4.16 2.68-.33.33 2.28 1.57.56 2.14 3.47 4.36 5 7.75 6.86 13.06-.2.58-.12 2.35-.58 2.76a60.55 60.55 0 0 1 1.64 11.52 52.11 52.11 0 0 0-1.82 11.8c.68 8.52 1.4 16.61 2.06 24.76a516.7 516.7 0 0 0-2 10.68c.8 1.79 1.2 3.64 1.06 5.18-.86.69-2.54 1.34-3.02 2.32a8.5 8.5 0 0 1 0 8c.6 1.88 1.26 3.71 2 5.5-2.81 2.41-2.65 4.58.5 6.5 2.2-.9 4.37-1.9 6.5-3a8.8 8.8 0 0 1 4.5-4 7.95 7.95 0 0 0-1.5-7.5c.23-.87.57-1.7 1-2.5a11.64 11.64 0 0 0 6-3.5 8.43 8.43 0 0 1 4-.5 21.53 21.53 0 0 1-9 6c2.64 7.73.14 13.06-7.5 16a17.5 17.5 0 0 1-5.5 8l-13-2h-2a11.14 11.14 0 0 0-7-2h-1a127.35 127.35 0 0 0-17-4 4.61 4.61 0 0 1-4-1c-1.62-1.49-3.56-1.53-5.94-2.04l-1.6-3.32c1.53-1.11 3.07-2.25 3.54-4.14l-.5-2.5c-.43 5-1.26 5.17-2.5.5l1-1a24.36 24.36 0 0 0-2.5-5.5 4.25 4.25 0 0 1 0-4c2.69-2.7 5.19-2.54 7.5.5-2.26 2.48-2.26 4.82 0 7-1.78 2.22-1.52 3.49-.08 5.6 2.19-.95 2.48-1 4.96-.06-.44-2.56.69-3.68 1.46-6.12-.7-1.07-.77-1.51-1.08-2.78-.3.81-1.53.82-2.22 1.34-1.08-.86-1.25-2.95-.5-4.08l3.58-.72c.33-.67 2.23-.61 2.56-1.28 2.4.64 4.71 1.24 7.32.6l-1.32-1.74-1.68-1.26c-3.26-3.36-1.57-5.48-.98-7.72 2.03.51 2.15 1.23.12-.62-2.34 1.29-3.77 3.22-6.1 5.94-1.06-.13-3.45-.69-4.06-1.56a38.33 38.33 0 0 0 13.02-19.04 57.4 57.4 0 0 0 9 2c.38-3.03.54-6.03.5-9-1.38 2.58-2.22 2.24-2.5-1a64.66 64.66 0 0 0-3-17.5c1.75-5 2.92-10.16 3.5-15.5.42 4.35 1.09 4.69 2 1l1 1c.25-1.93.75-3.77 1.5-5.5-.46-.41-.8-.91-1-1.5a6.04 6.04 0 0 1 5-2c-.43 5.15 1.9 7.82 7 8a4.85 4.85 0 0 1 1-4c1.1 1.09 2.1 1.09 3 0a6.85 6.85 0 0 1-1-4c-2.26.9-4.43 1.24-6.5 1-.3-1.27-.8-2.43-1.5-3.5 1.44-.22 2.77-.72 4-1.5a39.8 39.8 0 0 0-7-8c1.11-.77 2.5-2.07 2.72-3.3z"/>
  <path fill="#7f4b3d" d="M217.5 72.5a94.29 94.29 0 0 1-2 13c-.17-3.35 0-6.68.5-10a5.54 5.54 0 0 1 1.5-3Z"/>
  <path fill="#241a2e" d="m230.5 91.5-5-4c.06-.54.4-.88 1-1a18.11 18.11 0 0 0 8 2c3.06-.83 6.06-.83 9 0a17.9 17.9 0 0 1-13 3Z"/>
  <path fill="#b5694d" d="M245.5 89.5a11.9 11.9 0 0 1-4 2.5c-3.65.5-7.32.67-11 .5v-1a17.9 17.9 0 0 0 13-3 16.67 16.67 0 0 0-9 0 18.11 18.11 0 0 1-8-2c-.6.12-.94.46-1 1-.54-.06-.88-.4-1-1l2.5-1c6.13.9 12.3 1.23 18.5 1v3Z"/>
  <path fill="#d87446" d="M292.5 85.5a4.4 4.4 0 0 1 3.5 1 42.3 42.3 0 0 1 0 13 13.79 13.79 0 0 1-7 8c-.66 3.3-1.83 6.3-3.5 9 .15-2.94.81-5.78 2-8.5-.44-1.76-.94-1.6-1.5.5-1.24-4.3-.4-5.3 2.5-3a10.26 10.26 0 0 0 1.5-4c1.09 2.43 1.59 2.1 1.5-1h3c.07-2.7.4-5.36 1-8a9.42 9.42 0 0 0-3-7Z"/>
  <path fill="#e5733a" stroke="#e5733a" d="M290.5 69.5a185.4 185.4 0 0 0 2 16 9.42 9.42 0 0 1 3 7c-.6 2.64-.93 5.3-1 8h-3c.09 3.1-.41 3.43-1.5 1a10.26 10.26 0 0 1-1.5 4c-2.9-2.3-3.74-1.3-2.5 3 .56-2.1 1.06-2.26 1.5-.5a24.12 24.12 0 0 0-2 8.5c-3.3-.38-5.63.95-7 4l1 2a10.26 10.26 0 0 1-4 1.5l1 1a10.76 10.76 0 0 0-3 2.5c-.7-.53-1.2-1.2-1.5-2a4.39 4.39 0 0 1-3.5 1v3a13 13 0 0 1-5.5-1 33.5 33.5 0 0 0-6 5l-1-2c-.44 4.35-2.94 6.35-7.5 6a27.34 27.34 0 0 1-11-4 52.66 52.66 0 0 1-8.5-13c-.54 1.77-1.37 2.1-2.5 1a6.85 6.85 0 0 1-1-4h-3a29.23 29.23 0 0 1-1-9c4.03.22 4.7-.95 2-3.5 1.98-.68 3.65-.18 5 1.5l1-1a20.86 20.86 0 0 1-3-6.5c.8-.3 1.48-.8 2-1.5-2.88-3.04-2.2-4.7 2-5 3.68.17 7.35 0 11-.5a11.9 11.9 0 0 0 4-2.5 4.8 4.8 0 0 1 4-2c-.16 1.7 0 3.37.5 5l1-1a25.98 25.98 0 0 1 3.5-11l-3-4c1.37-2.83.37-4.33-3-4.5 4.19-.34 8.36-.84 12.5-1.5 3 .5 3.17 1.5.5 3v1c-1.33 0-2 .67-2 2 .94 4.63 1.77 9.3 2.5 14 .67.75 1.5 1.09 2.5 1a18.34 18.34 0 0 0 17-3c1.7-.47 3.2-.47 4.5 0a9.62 9.62 0 0 0 1.5-4.5c-.35-4.28-1.02-8.78-2-13.5l1-2a4.71 4.71 0 0 1-2-4h-3a4.93 4.93 0 0 1 .5-3 6.48 6.48 0 0 0 4.5 1c.6 2.87 1.93 5.2 4 7Z"/>
  <path fill="#9f3d26" d="M259.5 98.5c2.34.27 2.34 1.1 0 2.5-3.8.84-7.46.5-11-1 1.98-.19 3.98-.02 6 .5 2.06.06 3.72-.6 5-2Z"/>
  <path fill="#3d1b34" d="M281.5 88.5a18.34 18.34 0 0 1-17 3c-.64-.98-1.3-1.98-2-3l2-1a26.65 26.65 0 0 0 14 0c1 .09 1.83-.25 2.5-1 .46.6.63 1.26.5 2Z"/>
  <path fill="#d57248" d="M277.5 72.5c.9.7 1.24 1.7 1 3a155 155 0 0 0-10 1.5c.78 1.07.61 2.24-.5 3.5-1.24-.84-2.41-.5-3.5 1a92.5 92.5 0 0 0 3 4.5 27.88 27.88 0 0 0 11 1.5 26.65 26.65 0 0 1-14 0l-2 1c.7 1.02 1.36 2.02 2 3-1 .09-1.83-.25-2.5-1-.73-4.7-1.56-9.37-2.5-14a52.1 52.1 0 0 0 14-2c1.88.27 3.21-.4 4-2Z"/>
  <path fill="#371d34" d="M273.5 74.5a51.65 51.65 0 0 1-14 2c0-1.33.67-2 2-2a23.48 23.48 0 0 1 12 0Z"/>
  <path fill="#5f373e" d="M277.5 72.5c-.79 1.6-2.12 2.27-4 2a23.48 23.48 0 0 0-12 0v-1a84.02 84.02 0 0 1 16-1Z"/>
  <path fill="#c24729" d="M265.5 114.5v-2a7.06 7.06 0 0 1 2-2.5c-8.66-.5-17.33-.67-26-.5-1.26 3.87-2.6 3.87-4 0a126.38 126.38 0 0 1 33-1 11.16 11.16 0 0 1-5 6Z"/>
  <path fill="#f9e2c0" d="M241.5 109.5c8.67-.17 17.34 0 26 .5a7.06 7.06 0 0 0-2 2.5h-1a22 22 0 0 0-9.5-2l-9.5 1c.36.68.7 1.35 1 2-2.7-.17-4.37-1.5-5-4Z"/>
  <path fill="#fbf9f4" d="M264.5 112.5c-.93.81-1.93 1.65-3 2.5-3.65.5-7.32.67-11 .5a5.81 5.81 0 0 1-4-2 41.4 41.4 0 0 0-1-2l9.5-1a22 22 0 0 1 9.5 2Z"/>
  <path fill="#fa9351" d="M264.5 112.5h1v2c-4.53 7.08-10.53 8.58-18 4.5 1.93-.42 2.93-1.59 3-3.5 3.68.17 7.35 0 11-.5a81.32 81.32 0 0 0 3-2.5Z"/>
  <path fill="#d07247" d="M222.5 117.5h3a6.85 6.85 0 0 0 1 4c1.13 1.1 1.97.77 2.5-1a52.66 52.66 0 0 0 8.5 13c.32 4.86-.01 9.53-1 14 .17-4.68 0-9.35-.5-14a61.27 61.27 0 0 1-13.5-16Z"/>
  <path fill="#b16041" d="M236.5 148.5c.28 2.95-.06 5.78-1 8.5a29.35 29.35 0 0 1-14 2.5c4.5-1.5 9.18-2.83 14-4-.3-2.56.03-4.9 1-7Z"/>
  <path fill="#de7038" d="M285.5 116.5a50.3 50.3 0 0 1-17.5 18 49.23 49.23 0 0 0 0 14c-.21 6.62 2.95 9.62 9.5 9a4.61 4.61 0 0 0 4 1 42.96 42.96 0 0 0 16 4 7.07 7.07 0 0 0 2 3 38.64 38.64 0 0 1-2 15 82.25 82.25 0 0 1-5 11 209.45 209.45 0 0 1-12 12.5 185.97 185.97 0 0 1-16 8.5c-14.9 3.27-28.24.27-40-9-9.75-6.82-15.41-16.15-17-28-.16-4.72.84-9.06 3-13 2.5-.25 5-.58 7.5-1 1.68-.1 2.85-.78 3.5-2 4.93.3 9.6-.53 14-2.5a19.93 19.93 0 0 0 1-8.5v-1a49.62 49.62 0 0 0 1-14 27.34 27.34 0 0 0 11 4c4.56.35 7.06-1.65 7.5-6l1 2a33.5 33.5 0 0 1 6-5 13 13 0 0 0 5.5 1v-3a4.39 4.39 0 0 0 3.5-1c.3.8.8 1.48 1.5 2a10.76 10.76 0 0 1 3-2.5l-1-1c1.44-.22 2.77-.72 4-1.5l-1-2c1.38-3.05 3.7-4.38 7-4Z"/>
  <path fill="#b56348" d="M221.5 159.5c-.65 1.23-1.82 1.9-3.5 2-2.5.42-5 .75-7.5 1a26.93 26.93 0 0 1 11-3Z"/>
  <path fill="#674a4f" d="M281.5 158.5c5.87.97 11.54 2.3 17 4h-1a42.96 42.96 0 0 1-16-4Z"/>
  <path fill="#5f6e84" d="M299.5 162.5c2.65-.09 4.99.58 7 2-2.65.09-4.99-.58-7-2Z"/>
  <path fill="#a0aaad" d="m204.5 163.5-3 2h-4a11.14 11.14 0 0 1 7-2Z"/>
  <path fill="#fcfdfc" stroke="#fcfdfc" d="M297.5 162.5h2a11.14 11.14 0 0 0 7 2h2c2.58.99 5.25 1.99 8 3 10.82 2.63 19 8.96 24.5 19a128.98 128.98 0 0 1 9.5 34l-1 2h-1c-5 1.16-10 2.66-15 4.5-4.99.75-9.99 1.42-15 2-.79 3.46-1.45 6.96-2 10.5l-4 8a3 3 0 0 0-2 2 101.04 101.04 0 0 0-5 30h-7c-8.65.58-17.32.92-26 1-20.34.05-40.67-.28-61-1h-5c-2.27.36-4.1-.3-5.5-2-.61-5-1.11-10-1.5-15a74.06 74.06 0 0 0-1.5-12 2.26 2.26 0 0 0-1.5-1 39.17 39.17 0 0 1-9-20 18.88 18.88 0 0 0-10-3l-14-5v-1c-1.24-4.66-1.24-9.65 0-15a318.51 318.51 0 0 0 4.5-17l8.5-11c5.81-3.9 11.81-7.24 18-10l3-2h4c.59 3.29 1.76 3.62 3.5 1-2.93 9.37-1.1 18.54 5.5 27.5-3.29 1.08-3.79 2.91-1.5 5.5l2.5 3c.7-.53 1.2-1.2 1.5-2a9.45 9.45 0 0 0 2.5 1.5c-1.77.54-2.1 1.37-1 2.5a5.43 5.43 0 0 1 6 0c.68 2.66 2.18 5.33 4.5 8a9.92 9.92 0 0 1 6 4c2.2-2.33 4.2-2.33 6 0 8.06 0 16.23-.16 24.5-.5 3.48-.9 6.48-2.57 9-5 6.5 0 11.84-2.5 16-7.5 2.13-4.02 4.13-8.02 6-12a82.25 82.25 0 0 0 5-11 4.25 4.25 0 0 0 2.5-3c.81-4.19.65-8.19-.5-12a7.07 7.07 0 0 1-2-3Z"/>
  <path fill="#3d5c62" d="m308.5 164.5 13 2a6.86 6.86 0 0 1-5 1 647.54 647.54 0 0 1-8-3Z"/>
  <path fill="#97acb0" d="m197.5 165.5-3 2h-4a11.14 11.14 0 0 1 7-2Z"/>
  <path fill="#ce8163" d="M205.5 163.5a6.86 6.86 0 0 1 5-1 24.73 24.73 0 0 0-3 13 16 16 0 0 1 0-11c-.46-.8-1.12-1.13-2-1Z"/>
  <path fill="#e9ceae" d="M299.5 165.5a24.76 24.76 0 0 1 .5 12 4.25 4.25 0 0 1-2.5 3 38.64 38.64 0 0 0 2-15Z"/>
  <path fill="#fcf8ef" stroke="#fcf8ef" d="M204.5 163.5h1c.88-.13 1.54.2 2 1a16 16 0 0 0 0 11c1.59 11.85 7.25 21.18 17 28 .8 3.32 2.64 5.98 5.5 8l1-1c11.1 4.31 22.26 4.98 33.5 2a188.1 188.1 0 0 0 16-8.5c4.23-4.06 8.23-8.23 12-12.5a272.71 272.71 0 0 1-6 12c-4.16 5-9.5 7.5-16 7.5a19.97 19.97 0 0 1-9 5c-8.27.34-16.44.5-24.5.5-1.8-2.33-3.8-2.33-6 0a9.92 9.92 0 0 0-6-4c-2.32-2.67-3.82-5.34-4.5-8a5.43 5.43 0 0 0-6 0c-1.1-1.13-.77-1.97 1-2.5a9.45 9.45 0 0 1-2.5-1.5c-.3.8-.8 1.48-1.5 2l-2.5-3c-2.29-2.59-1.79-4.42 1.5-5.5-6.6-8.96-8.43-18.13-5.5-27.5-1.74 2.62-2.91 2.29-3.5-1l3-2Z"/>
  <path fill="#f9ecd6" stroke="#f9ecd6" d="M224.5 203.5c11.76 9.27 25.1 12.27 40 9-11.24 2.98-22.4 2.31-33.5-2l-1 1a13.38 13.38 0 0 1-5.5-8Z"/>
  <path fill="#eecec5" d="M177.5 226.5c3.71.09 7.05 1.09 10 3-3.79.18-7.12-.82-10-3Z"/>
  <path fill="#df723a" stroke="#df723a" d="M389.5 321.5a135.65 135.65 0 0 0 30 25 11.3 11.3 0 0 0 8 .5c5.12-7.78 7.45-6.95 7 2.5v5a8.8 8.8 0 0 0 4 1.5 260 260 0 0 0-23 1.5c-.67 0-1 .33-1 1-4.53-2.1-8.87-4.43-13-7a19.6 19.6 0 0 1-4.5-6c-4.13 1.03-7.63-.14-10.5-3.5a52.56 52.56 0 0 0-7-1.5 40.3 40.3 0 0 0-2.5-9c-3.73 1.51-7.06.84-10-2l-2 2a2.86 2.86 0 0 0-2.5-1 12.18 12.18 0 0 1-5-3 7.54 7.54 0 0 0-5-4 75.5 75.5 0 0 1-24-28 9.32 9.32 0 0 1 0-8c-.35-1.2-.85-1.2-1.5 0a174.69 174.69 0 0 1-9-21 7.97 7.97 0 0 1 .5-6.5 8.26 8.26 0 0 1-4-2.5 27.55 27.55 0 0 1-2-10l4-8c2.42 1.51 4.08.85 5-2-.6-2.2-1.27-4.38-2-6.5 9.76-1.2 19.1-3.7 28-7.5.77 8 .93 16 .5 24-1.36-2.28-2.86-2.45-4.5-.5a9.45 9.45 0 0 1 1.5 2.5c1.67-1.33 3.33-1.33 5 0a77.96 77.96 0 0 1 4.5 16.5c-.14 1.23-.48 2.4-1 3.5 1.13.76 2.3 1.43 3.5 2a44.88 44.88 0 0 0 5.5 15 4.93 4.93 0 0 1-3-.5c1.1-1.13.77-1.97-1-2.5l-1 1a7.76 7.76 0 0 1 0 7.5 29.66 29.66 0 0 0 8 7 63 63 0 0 0-7 15.5c1.22 1.11 2.56 1.28 4 .5 2.17-3.2 4.34-6.37 6.5-9.5.75 1.83 1.75 3.5 3 5 .83-1.9 2-2.24 3.5-1-1.52 2.65-1.02 3.32 1.5 2a15.87 15.87 0 0 0 5.5 3.5 10.97 10.97 0 0 1 2.5 6.5c1.41-.91 2.91-.91 4.5 0Z"/>
  <path fill="#bec2ca" d="M301.5 254.5a3.1 3.1 0 0 1 3 1 35.33 35.33 0 0 1-18 10.5 163.32 163.32 0 0 1-61 1 33.8 33.8 0 0 1-18-9.5c29.93-1.1 59.93-1.26 90-.5 1.57-.6 2.9-1.44 4-2.5Z"/>
  <path fill="#df713a" stroke="#df713a" d="m163.5 221.5 14 5a14.89 14.89 0 0 0 10 3 39.17 39.17 0 0 0 9 20 116.7 116.7 0 0 1-3 21c-6.36 23.53-19.36 42.7-39 57.5l-18 12a283.07 283.07 0 0 0-20 10.5 64.99 64.99 0 0 0-16 9 6.92 6.92 0 0 1-4 1l-19-2c2.69.16 5.35 0 8-.5-2.35-.58-3.35-2.08-3-4.5a54.79 54.79 0 0 1 3-7h1c2.72 1.59 5.05 1.25 7-1 8.04-6.18 23.67-17.3 28-22 6.33-6.54 21.13-24.2 24-32a161.3 161.3 0 0 0 10-22c2.52-8.07 5.4-18.23 6.5-26 .83-7.32 1.33-14.65 1.5-22z"/>
  <path fill="#d4714a" d="M314.5 257.5a8.26 8.26 0 0 0 4 2.5 7.97 7.97 0 0 0-.5 6.5 174.69 174.69 0 0 0 9 21c.65-1.2 1.15-1.2 1.5 0a9.32 9.32 0 0 0 0 8 139.96 139.96 0 0 1-10-20 214.18 214.18 0 0 0-4-16v-2Z"/>
  <path fill="#e7c4b8" d="M211.5 279.5c20.32.72 40.66 1.05 61 1-13.49 1-27.16 1.33-41 1h-4l-16-2Z"/>
  <path fill="#dd6f36" d="M227.5 281.5h4a616.32 616.32 0 0 0 63 0 92.11 92.11 0 0 0 0 17 39.47 39.47 0 0 1-2 12c-24.58 8.12-49.58 9.12-75 3a9.57 9.57 0 0 0-5-2.5 7.93 7.93 0 0 1-1-3.5 58.28 58.28 0 0 0 1-26h15Z"/>
  <path fill="#d4754d" d="M298.5 279.5a51.68 51.68 0 0 0-2 27c.33 3-1 4.33-4 4a39.47 39.47 0 0 0 2-12 92.11 92.11 0 0 1 0-17 616.32 616.32 0 0 1-63 0c13.84.33 27.51 0 41-1 8.68-.08 17.34-.42 26-1Z"/>
  <path fill="#d57047" d="M206.5 279.5h5l16 2h-15a58.28 58.28 0 0 1-1 26 7.9 7.9 0 0 0 1 3.5c2 .37 3.66 1.2 5 2.5-2.36-.17-4.7-.5-7-1-.67 0-1-.33-1-1a72.14 72.14 0 0 0 1.5-23 32.7 32.7 0 0 0-4.5-9Z"/>
  <path fill="#dc7140" d="M348.5 222.5c1.87 6.43 2.86 21.55 5 32a156.36 156.36 0 0 0 36 67c-1.59-.91-3.09-.91-4.5 0a11 11 0 0 0-2.5-6.5 15.87 15.87 0 0 1-5.5-3.5c-2.52 1.32-3.02.66-1.5-2-1.5-1.24-2.67-.9-3.5 1a18.92 18.92 0 0 1-3-5c-2.16 3.13-4.33 6.3-6.5 9.5-1.44.78-2.78.61-4-.5a63 63 0 0 1 7-15.5 29.66 29.66 0 0 1-8-7 7.76 7.76 0 0 0 0-7.5l1-1c1.77.54 2.1 1.37 1 2.5.95.48 1.95.65 3 .5a44.88 44.88 0 0 1-5.5-15 26.58 26.58 0 0 1-3.5-2c.52-1.1.85-2.27 1-3.5a77.96 77.96 0 0 0-4.5-16.5c-1.67-1.33-3.33-1.33-5 0a9.45 9.45 0 0 0-1.5-2.5c1.64-1.95 3.14-1.78 4.5.5.43-8 .27-16-.5-24-8.9 3.8-18.24 6.3-28 7.5.73 2.12 1.4 4.3 2 6.5-.92 2.85-2.58 3.52-5 2 .55-3.54 1.21-7.04 2-10.5 5.01-.58 10.01-1.25 15-2 5-1.84 10-3.34 15-4.5z"/>
  <path fill="#54103b" d="M209.5 311.5c0 .67.33 1 1 1a21.92 21.92 0 0 0 7 3c-.83.95-1 1.95-.5 3a27.12 27.12 0 0 1 5 6c.91-1.15 1.75-.99 2.5.5-2.15 2.47-1.98 4.3.5 5.5 1.28-1.07 1.62-2.4 1-4l3 2c3.94-1.1 7.6-1.1 11 0 3.01 1.5 2.51 2.33-1.5 2.5 6.08.37 12.08 1.2 18 2.5a3.1 3.1 0 0 1 1-3 9.81 9.81 0 0 1 5-3.5l-3-1c3.72-1.78 6.89-.94 9.5 2.5h4a25.51 25.51 0 0 1 4.5-4 4.33 4.33 0 0 0-3-2.5c3.1.64 5.92-.19 8.5-2.5a11.84 11.84 0 0 0 5.5 8 15.69 15.69 0 0 0 4-2 3.65 3.65 0 0 0-1-1.5 6.98 6.98 0 0 0 3.5-2.5c2.75 3.83 4.25 3.17 4.5-2a3.1 3.1 0 0 1-3-1c.85-1.9 1.18-3.9 1-6a251.96 251.96 0 0 0 18 36 58.96 58.96 0 0 0-14 5h-1a134.02 134.02 0 0 1-22 12.5c-3.46 2.24-4.8 5.4-4 9.5-2.36-.16-4.69 0-7 .5a4.39 4.39 0 0 0-1 3.5l-8 2a8.67 8.67 0 0 0-6.5 0 104.28 104.28 0 0 1-29.5-17.5 444.32 444.32 0 0 1-20-10.5c-7-2.08-14-3.74-21-5 3.5.5 6.67-.16 9.5-2a442.98 442.98 0 0 0 18.5-35Z"/>
  <path fill="#59103b" d="M296.5 306.5a9.6 9.6 0 0 1 1 6c.18 2.1 2.85 5.1 2 7 .82.89.86.64.6 1.78-.26 5.17-3.03 4.9-5.78 1.07-.9 1.2 1.25 3.65-.19 4.11.46.42-2.52-.7-2.31-.11a15.69 15.69 0 0 1-4 2 11.84 11.84 0 0 1-5.5-8c-2.57 2.31-.14 6.2-3.23 5.56 1.41.37-2.86-1.86-2.27-.56a25.51 25.51 0 0 0-4.5 4h-4c-2.61-3.45-1.7-2.66-5.42-.89 1 .34-2.08-.94-1.08-.61-2.06.65-1.78 5.05-3.05 6.73-.88.82-3.17-1.4-2.95-.23a118.29 118.29 0 0 0-18-2.5c4.01-.17 5.7 1.72 2.69.22-3.4-1.1-8.25-3.82-12.19-2.72-1-.67-.3 2.83-1.3 2.16.62 1.6-1.42-1.23-2.7-.16-2.48-1.2-2.65-3.03-.5-5.5-.75-1.49-1.59-1.65-2.5-.5a27.12 27.12 0 0 0-5-6c-.5-1.05-.33-2.05.5-3-2.6-.63-4.26-2.48-6.32-3.85 2.3.5 4.64.83 7 1 25.42 6.12 50.42 5.12 75-3 3 .33 4.33-1 4-4z"/>
  <path fill="#bb6d5e" d="M352.5 323.5a7.54 7.54 0 0 1 5 4 7.54 7.54 0 0 1-5-4Z"/>
  <path fill="#b06d5f" d="M436.5 330.5c-.84.34-1.17 1-1 2-1.82-1.58-2.82-1.08-3 1.5.27 1.53.6 3.03 1 4.5a2.26 2.26 0 0 1-1.5-1c-.5-2.65-.66-5.31-.5-8a4.39 4.39 0 0 0-3.5 1c-.5 2.31-.66 4.64-.5 7-3.06-10.27-.06-12.6 9-7Z"/>
  <path fill="#d97e56" d="M84.5 332.5h1c.09 3.2-.24 6.38-1 9.5a5.83 5.83 0 0 0 2 4.5h-1a2.26 2.26 0 0 1-1.5-1l-1-12a5.55 5.55 0 0 1-1.5 3 8.4 8.4 0 0 1 .5-4c.77-1.1 1.6-1.1 2.5 0Z"/>
  <path fill="#b16e5c" d="M84.5 332.5c-.9-1.1-1.73-1.1-2.5 0a8.43 8.43 0 0 0-.5 4h-1a8.43 8.43 0 0 0-.5-4 19.17 19.17 0 0 0-3.5 4c.13-.74-.04-1.4-.5-2a25.15 25.15 0 0 1-4.5 4 19.64 19.64 0 0 1 8-8.5c2.76-1.08 4.43-.24 5 2.5Z"/>
  <path fill="#d17846" d="M441.31 341.38c1.5 1.8.36 5.64.2 8.19 0 1.7-3.35 4.51-7.63 6.3.45-9.44-1.26-16.65-6.38-8.87-2.87.8-5.53.63-8-.5 6.5.5 9.16-2.5 8-9-.16-2.36 0-4.69.5-7a4.39 4.39 0 0 1 3.5-1c-.16 2.69 4.81.9 5.3 3.55.4.56 3.9 8.22 4.51 8.33z"/>
  <path fill="#dc7d51" d="M436.5 330.5c6.51 5.04 9.18 11.7 8 20a26.41 26.41 0 0 1-5 6.5c-8 .5-16 .67-24 .5a260 260 0 0 1 23-1.5 8.8 8.8 0 0 1-4-1.5 6.34 6.34 0 0 0 4.5-4 31.65 31.65 0 0 0-3.5-18c-.17-1 .16-1.66 1-2Z"/>
  <path fill="#df713a" d="M85.5 346.5a54.79 54.79 0 0 0-3 7c-.35 2.42.65 3.92 3 4.5-2.65.5-5.31.66-8 .5-3.82 0-6.49-1.66-8-5v-1c1-.09 1.83.25 2.5 1 .18-2.87.68-5.53 1.5-8-.16 2.36 0 4.69.5 7 .38.56.88.89 1.5 1 .32 1.55 1.32 2.21 3 2-.1-5.37.23-10.7 1-16 .61-.9.94-1.9 1-3h1a5.55 5.55 0 0 0 1.5-3l1 12c.38.56.88.89 1.5 1Z"/>
  <path fill="#d86f44" d="M401.5 351.5a42.39 42.39 0 0 0-12-4 26.18 26.18 0 0 0-7-5c-7.34-3-14-7-20-12 1-.09 1.83.25 2.5 1l2-2c2.94 2.84 6.28 3.51 10 2a40.3 40.3 0 0 1 2.5 9c2.35.34 4.69.84 7 1.5 2.87 3.36 6.37 4.53 10.5 3.5a19.6 19.6 0 0 0 4.5 6Z"/>
  <path fill="#df713a" d="M80.7 332.23c-.66 2 1.08 2.8.41 4.8-.9.71-1.42 18.12-1.18 19.4-.82 2.48-7.75-5.8-7.93-2.93a2.86 2.86 0 0 0-2.5-1c.02-4.77.69-9.44 2-14a25.15 25.15 0 0 0 4.5-4c.46.6 4.84-3 4.7-2.27z"/>
  <path fill="#902a67" d="M341.5 344.5a323 323 0 0 1 36 1 652.1 652.1 0 0 0-44 1l8-2Z"/>
  <path fill="#773876" d="m341.5 344.5-8 2-14 2a43.3 43.3 0 0 1 22-4Z"/>
  <path fill="#aa6268" d="M382.5 342.5a26.18 26.18 0 0 1 7 5h-3l-3-2a5.73 5.73 0 0 0-1-3Z"/>
  <path fill="#be8162" d="M71.5 338.5a51.27 51.27 0 0 0-2 14v1a17.37 17.37 0 0 1-.5-10c.1-2.15.93-3.82 2.5-5Z"/>
  <path fill="#b50f50" d="M377.5 345.5h6l3 2a212.04 212.04 0 0 0-34-.5c-2.41 2.04-1.75 3.04 2 3-1.2.65-1.2 1.15 0 1.5.7-.53 1.2-1.2 1.5-2a3.6 3.6 0 0 0 2 2c4.98-1.22 9.81-.05 14.5 3.5-2.13 1.5-4.13 2.33-6 2.5a11.22 11.22 0 0 1 2 6h-4c2.76-2.25 2.42-4.09-1-5.5a176 176 0 0 0-24-2.5 148.5 148.5 0 0 0-33 0c-2.14-.06-3.8-.72-5-2a58.96 58.96 0 0 1 14-5h4l14-2a652.72 652.72 0 0 1 44-1Z"/>
  <path fill="#8b3466" d="M143.5 349.5v1c-9.2.17-18.2.17-27 0 8.97-.88 17.97-1.22 27-1Z"/>
  <path fill="#be124d" stroke="#be124d" d="M116.5 350.5c8.8.17 17.8.17 27 0 17.03-.3 34.03.2 51 1.5a7.89 7.89 0 0 0 4 2l-32 1a5.54 5.54 0 0 0-3 1.5c-5.7.79-11.36 1.79-17 3 .03-1-.47-1.66-1.5-2-1.44.65-2.94.98-4.5 1a6.85 6.85 0 0 0-1-4 27.14 27.14 0 0 1-4.5-3l-2.5.5 1 1-9 1a15.69 15.69 0 0 1-7.5 4.5 3.94 3.94 0 0 1-2-1c-2.96 2.58-5.96 2.58-9 0a5.77 5.77 0 0 1-5.5 2 64.99 64.99 0 0 1 16-9Z"/>
  <path fill="#a31a56" d="M181.5 348.5c7 1.26 14 2.92 21 5 .17 1-.16 1.66-1 2-12.7-.23-25.36.1-38 1a5.54 5.54 0 0 1 3-1.5l32-1a7.89 7.89 0 0 1-4-2 546.45 546.45 0 0 0-51-1.5v-1c12.62-.96 25.28-1.3 38-1Z"/>
  <path fill="#bf0e52" stroke="#bf0e52" d="M386.5 347.5h3a42.5 42.5 0 0 1 12 4c4.13 2.57 8.47 4.9 13 7 1.4 3.88 2.4 7.88 3 12v16a21.96 21.96 0 0 1-8 13.5 50.94 50.94 0 0 1-17 8.5h-3a3.3 3.3 0 0 1 2-1.5c-1.8-.32-2.13-.98-1-2a24.65 24.65 0 0 1-8.5-2.5c-3.26 1.93-6.26 1.27-9-2-.3.8-.8 1.48-1.5 2-3.49-1.32-5.32.01-5.5 4l-1-2-3 4c-1.67-.84-1.83-.34-.5 1.5a23.26 23.26 0 0 0-8.5-1.5l-3 2a26.67 26.67 0 0 0-2.5-7.5l1-1.5a512.1 512.1 0 0 1 5.5-3 13 13 0 0 0 5.5 1 4.93 4.93 0 0 0-.5-3c-1.4 0-2.9.34-4.5 1l-1-2a19.95 19.95 0 0 1-4.5 3 11.19 11.19 0 0 0-4.5-1 4.39 4.39 0 0 0-1-3.5c-1.63.43-3.13.6-4.5.5-.31-1.24.19-2.24 1.5-3-3.35-1.4-3.52-2.74-.5-4l1 2c2.59-2.3 5.25-3.63 8-4a22.14 22.14 0 0 0 7.5 3l7-4c-.54-1.77-1.37-2.1-2.5-1a9.87 9.87 0 0 1-1-5 5.9 5.9 0 0 0 5.5.5l-3-1c3.97-.41 7.3-1.41 10-3a7.3 7.3 0 0 0-3-2c.34-1.5.34-2.84 0-4a6.55 6.55 0 0 1-3-3 230.65 230.65 0 0 0-37 9c-2.65.5-5.31.66-8 .5a1404.3 1404.3 0 0 1 43-12h4a11.22 11.22 0 0 0-2-6c1.87-.17 3.87-1 6-2.5-4.69-3.55-9.52-4.72-14.5-3.5a3.63 3.63 0 0 1-2-2c-.3.8-.8 1.48-1.5 2-1.2-.35-1.2-.85 0-1.5-3.75.04-4.41-.96-2-3 11.36-.74 22.7-.58 34 .5Z"/>
  <path fill="#710c3c" d="M300.5 353.5h1c1.2 1.28 2.86 1.94 5 2a148.5 148.5 0 0 1 33 0 692.3 692.3 0 0 0-41 2 4.8 4.8 0 0 1 2-4Z"/>
  <path fill="#c10e52" stroke="#c10e52" d="M146.5 359.5a37.28 37.28 0 0 1-8 2.5c-1.4 1.34-1.07 2.18 1 2.5a907.87 907.87 0 0 1 62 13.5c5.3.83 10.64 1.33 16 1.5 8.04 1.04 16.04 2.04 24 3a12.03 12.03 0 0 1 1 6c.26 3.77-.08 7.44-1 11a63.97 63.97 0 0 0-13 5c-3.92.63-7.25 2.3-10 5a219.96 219.96 0 0 1-51 12h-25c-9.6-2.16-19.26-4.33-29-6.5a87.45 87.45 0 0 1-11-6 118.79 118.79 0 0 1-9-9.5 34.25 34.25 0 0 1-4-13c-.17-3.35 0-6.68.5-10a23.9 23.9 0 0 0 2.5-9l4-7a6.9 6.9 0 0 0 4-1 5.77 5.77 0 0 0 5.5-2c3.04 2.58 6.04 2.58 9 0a4 4 0 0 0 2 1 15.69 15.69 0 0 0 7.5-4.5l9-1-1-1 2.5-.5c1.09.94 2.59 1.94 4.5 3a6.85 6.85 0 0 1 1 4c1.56-.02 3.06-.35 4.5-1 1.03.34 1.53 1 1.5 2Z"/>
  <path fill="#5d0d3b" stroke="#5d0d3b" d="M202.5 353.5c6.5 3.63 13.16 7.13 20 10.5a104.1 104.1 0 0 0 29.5 17.5 8.67 8.67 0 0 1 6.5 0l8-2a4.39 4.39 0 0 1 1-3.5c2.31-.5 4.64-.66 7-.5-.8-4.1.54-7.26 4-9.5 7.83-3.53 15.16-7.7 22-12.5a4.8 4.8 0 0 0-2 4 686.68 686.68 0 0 1 41-2 176 176 0 0 1 24 2.5c3.42 1.41 3.76 3.25 1 5.5a1404.3 1404.3 0 0 0-43 12 929.43 929.43 0 0 0-34 7c-6.59-2.67-12.92-2.34-19 1a6.86 6.86 0 0 0-5 1 85.9 85.9 0 0 1-22-2c-7.96-.96-15.96-1.96-24-3a42.64 42.64 0 0 0-22-4.5 68.63 68.63 0 0 0-22-7l3-1-2-.5c-1.74.93-3.57 1.6-5.5 2-28.63-3.74-28.47-7.58.5-11.5 10.84-.17 21.5-.67 32-1.5.84-.34 1.17-1 1-2Z"/>
  <path fill="#6d0c3c" d="M201.5 355.5c-10.5.83-21.16 1.33-32 1.5-28.97 3.92-29.13 7.76-.5 11.5 1.93-.4 3.76-1.07 5.5-2l2 .5-3 1a68.63 68.63 0 0 1 22 7 42.64 42.64 0 0 1 22 4.5c-5.36-.17-10.7-.67-16-1.5a907.87 907.87 0 0 0-62-13.5c-2.07-.32-2.4-1.16-1-2.5 2.8-.54 5.46-1.38 8-2.5 5.64-1.21 11.3-2.21 17-3a426.1 426.1 0 0 1 38-1Z"/>
  <path fill="#9e2b66" d="M92.5 367.5a23.9 23.9 0 0 1-2.5 9c-.5 3.32-.67 6.65-.5 10a22.8 22.8 0 0 1 3-19Z"/>
  <path fill="#c1553e" stroke="#c1553e" d="M241.5 382.5a85.9 85.9 0 0 0 22 2c1.73.34 2.23 1.34 1.5 3a17.61 17.61 0 0 1-11.5 3.5 146.86 146.86 0 0 0-9 4.5 246.7 246.7 0 0 0-2-7 12.1 12.1 0 0 0-1-6Z"/>
  <path fill="#c10e51" stroke="#c10e51" d="M389.5 408.5c-2.63.29-4.3 1.62-5 4h-1a382.32 382.32 0 0 1-12.5 3c-1.03.34-1.53 1-1.5 2h-3a1150.96 1150.96 0 0 1-98 15 4.25 4.25 0 0 1-2.5-3 54.32 54.32 0 0 0-3.5-10 68.34 68.34 0 0 1 3-24 33.31 33.31 0 0 0 7-12h-4c6.08-3.34 12.41-3.67 19-1a929.43 929.43 0 0 1 34-7c2.69.16 5.35 0 8-.5a230.65 230.65 0 0 1 37-9 6.55 6.55 0 0 0 3 3c.34 1.16.34 2.5 0 4a7.3 7.3 0 0 1 3 2c-2.7 1.59-6.03 2.59-10 3l3 1a5.9 5.9 0 0 1-5.5-.5 9.87 9.87 0 0 0 1 5c1.13-1.1 1.97-.77 2.5 1l-7 4a22.14 22.14 0 0 1-7.5-3c-2.75.37-5.41 1.7-8 4l-1-2c-3.02 1.26-2.85 2.6.5 4-1.31.76-1.81 1.76-1.5 3 1.37.1 2.87-.07 4.5-.5a4.39 4.39 0 0 1 1 3.5c1.56.02 3.06.35 4.5 1a19.95 19.95 0 0 0 4.5-3l1 2c1.6-.67 3.1-1 4.5-1 .48.95.65 1.95.5 3a13 13 0 0 1-5.5-1c-1.76.95-3.6 1.95-5.5 3l-1 1.5a26.67 26.67 0 0 1 2.5 7.5l3-2c2.8-.05 5.64.45 8.5 1.5-1.33-1.84-1.17-2.34.5-1.5l3-4 1 2c.18-3.99 2.01-5.32 5.5-4 .7-.53 1.2-1.2 1.5-2 2.74 3.27 5.74 3.93 9 2a24.65 24.65 0 0 0 8.5 2.5c-1.13 1.02-.8 1.68 1 2a3.3 3.3 0 0 0-2 1.5Z"/>
  <path fill="#c2453e" d="M263.5 384.5a6.86 6.86 0 0 1 5-1h4a33.31 33.31 0 0 1-7 12v-3c-3.66-.34-7 .33-10 2a62.5 62.5 0 0 0-14 5 34.32 34.32 0 0 0 1-11c.67 2.2 1.33 4.53 2 7 2.92-1.59 5.92-3.09 9-4.5 4.32.16 8.15-1 11.5-3.5.72-1.66.23-2.66-1.5-3Z"/>
  <path fill="#b52532" d="M228.5 404.5a37.53 37.53 0 0 1-10 6v-1a17.92 17.92 0 0 1 10-5Z"/>
  <path fill="#e16542" d="M265.5 395.5a68.34 68.34 0 0 0-3 24 13.98 13.98 0 0 1-2-7.5 70.77 70.77 0 0 1 3-17.5 15.4 15.4 0 0 0-8 0c3-1.68 6.34-2.34 10-2v3Z"/>
  <path fill="#72406f" d="M389.5 408.5h3c-2.3 1.3-4.64 2.63-7 4h-1c.7-2.38 2.37-3.71 5-4Z"/>
  <path fill="#b05142" d="M383.5 412.5h2a29.93 29.93 0 0 1 10 13l-2-1a85.58 85.58 0 0 0-10-12Z"/>
  <path fill="#691522" d="M218.5 409.5v1a105.53 105.53 0 0 1-51 11 219.96 219.96 0 0 0 51-12Z"/>
  <path fill="#f7f5f3" d="M383.5 412.5c3.71 3.7 7.04 7.7 10 12-.07 1.53.6 2.53 2 3 .86 3.93 1.2 7.93 1 12a18.92 18.92 0 0 1-3 5 450.22 450.22 0 0 1-41-5.5 70.8 70.8 0 0 0 12-1.5c3.97-.57 6.13-2.9 6.5-7 .94-4.56.45-8.9-1.5-13-.03-1 .47-1.66 1.5-2 4.27-.95 8.44-1.95 12.5-3Z"/>
  <path fill="#c1553e" stroke="#c1553e" d="M366.5 417.5h3a20.08 20.08 0 0 1 1.5 13c-.36 4.1-2.53 6.43-6.5 7-20-1.14-40-2.14-60-3a31.83 31.83 0 0 0-8-1.5c-2.67-.67-2.67-1.33 0-2l19-1a5.54 5.54 0 0 0 3-1.5c7.9-1.63 15.9-2.8 24-3.5 3.96-.73 7.8-1.9 11.5-3.5 1.14.41 2.31.74 3.5 1a20.7 20.7 0 0 1 9-5Z"/>
  <path fill="#de7036" stroke="#de7036" d="M262.5 419.5a54.32 54.32 0 0 1 3.5 10 4.25 4.25 0 0 0 2.5 3v1a1831.2 1831.2 0 0 0-115 5c-2.33-.33-3.67-1.67-4-4-.03-4.37.3-8.7 1-13h17c17.94.6 34.94-3.07 51-11a37.53 37.53 0 0 0 10-6 63.97 63.97 0 0 1 13-5 62.5 62.5 0 0 1 14-5c2.74-.7 5.41-.7 8 0a70.77 70.77 0 0 0-3 17.5c.03 2.93.7 5.43 2 7.5Z"/>
  <path fill="#d1b88f" d="M142.5 421.5h2a14.7 14.7 0 0 1-3 3.5 160.88 160.88 0 0 0-24 17.5h-1c-.17-1 .16-1.66 1-2a115.27 115.27 0 0 1 25-19Z"/>
  <path fill="#fbf9f5" d="M144.5 421.5h5a24.67 24.67 0 0 0 0 13c.33 2.33 1.67 3.67 4 4a3.27 3.27 0 0 1-2 3.5 270.96 270.96 0 0 0-34 3.5v-3a160.88 160.88 0 0 1 24-17.5 14.7 14.7 0 0 0 3-3.5Z"/>
  <path fill="#c2453e" d="M366.5 417.5c-3.4.9-6.4 2.56-9 5a27.4 27.4 0 0 1-3.5-1 53.04 53.04 0 0 1-11.5 3.5c-8.1.7-16.1 1.88-24 3.5a256.5 256.5 0 0 1-25 1c24.35-3.2 48.69-7.2 73-12Z"/>
  <path fill="#eaad5f" d="m393.5 424.5 2 1v2c-1.4-.47-2.07-1.47-2-3Z"/>
  <path fill="#df9978" d="M149.5 421.5h1a77.1 77.1 0 0 0-1 13 24.67 24.67 0 0 1 0-13Z"/>
  <path fill="#c2453e" stroke="#c2453e" d="M318.5 428.5a5.54 5.54 0 0 1-3 1.5l-19 1c-2.67.67-2.67 1.33 0 2 2.87.18 5.53.68 8 1.5a688.8 688.8 0 0 1-17-1 3.3 3.3 0 0 0-2-1.5 19.25 19.25 0 0 0 8-2.5c8.35.07 16.69-.26 25-1Z"/>
  <path fill="#c2453e" d="M293.5 429.5a19.25 19.25 0 0 1-8 2.5 3.3 3.3 0 0 1 2 1.5h-19v-1c8.35-.94 16.68-1.94 25-3Z"/>
  <path fill="#ac704c" d="M395.5 425.5c.62.11 1.12.44 1.5 1 2.14 4.58 1.97 8.91-.5 13 .2-4.07-.14-8.07-1-12v-2Z"/>
</svg>
