<svg xmlns="http://www.w3.org/2000/svg" viewBox="0 0 512 512" clip-rule="evenodd" fill-rule="evenodd" image-rendering="optimizeQuality" text-rendering="geometricPrecision" shape-rendering="geometricPrecision">
  <path d="M235.5 6.5c-3.736-.69896-7.403-1.69896-11-3-2.367.34167-4.7.84167-7 1.5-1.167.5-2 1.33333-2.5 2.5-.333-.66667-.667-1.33333-1-2-.579 3.83092-2.079 6.8309-4.5 9h-12c-1.251 3.2479-3.251 5.9146-6 8 .433-4.4379 2.767-7.4379 7-9 3.829.569 7.163-.0977 10-2 3.362-8.68453 9.696-12.184527 19-10.5 3.256 1.11596 5.922 2.94929 8 5.5Z" fill="#1b2840"/>
  <path d="M191.5 27.5c-1.948.6312-3.781 1.6312-5.5 3-2.093-.7461-4.093-1.0795-6-1-1.355 3.9086-2.355 7.9086-3 12-2.57 2.3688-5.404 4.3688-8.5 6-.966 1.896-1.299 3.896-1 6h-3v3c-1.687-7.8977 1.646-12.5644 10-14-.829-12.5089 4.837-17.5089 17-15Z" fill="#1d2740"/>
  <path d="M308.5 46.5c-.221 1.2348-.888 2.2348-2 3 2.706 2.3706 5.039 5.0372 7 8-1.229.7811-2.562 1.2811-4 1.5.691 1.0674 1.191 2.2341 1.5 3.5 2.072.2425 4.239-.0908 6.5-1-.079 1.4305.254 2.7638 1 4-.891 1.0896-1.891 1.0896-3 0-.929 1.1888-1.262 2.5222-1 4-5.101-.1849-7.434-2.8516-7-8-1.984-.1168-3.65.5499-5 2 .209.586.543 1.086 1 1.5-.749 1.7337-1.249 3.567-1.5 5.5-.333-.3333-.667-.6667-1-1-.914 3.6851-1.581 3.3518-2-1-.582 5.3394-1.749 10.506-3.5 15.5 1.78 5.5521 2.78 11.3855 3 17.5.283 3.242 1.117 3.576 2.5 1 .044 2.975-.123 5.975-.5 9-3.064-.428-6.064-1.094-9-2-2.28 7.844-6.28 14.011-12 18.5.608.87 1.441 1.37 2.5 1.5 2.329-2.716 4.663-4.716 7-6 2.033 1.85 2.033 2.516 0 2-.334 2.347-.167 4.681.5 7h3v3c-2.606.636-5.106.636-7.5 0-.333.667-.667 1.333-1 2h-4c-.749 1.135-.583 2.135.5 3 .692-.525 1.192-1.192 1.5-2 .309 1.266.809 2.433 1.5 3.5-.771 2.44-.938 4.94-.5 7.5-2.478-.947-4.812-.947-7 0-1.445-2.112-1.278-4.278.5-6.5-2.256-2.182-2.256-4.515 0-7-2.313-3.037-4.813-3.204-7.5-.5-.667 1.333-.667 2.667 0 4 1.057 1.719 1.89 3.553 2.5 5.5l-1 1c1.239 4.665 2.072 4.498 2.5-.5.167.833.333 1.667.5 2.5-.469 1.887-1.469 3.387-3 4.5.333.667.667 1.333 1 2 2.384.511 4.384 1.511 6 3-6.546.622-9.712-2.378-9.5-9-.667-4.667-.667-9.333 0-14 7.375-4.542 13.209-10.542 17.5-18 1.672-2.698 2.839-5.698 3.5-9 3.42-1.751 5.754-4.418 7-8 .667-4.3333.667-8.6667 0-13-1.011-.8366-2.178-1.17-3.5-1 .166-4.3461-.001-8.6794-.5-13-.232-1.2375-.732-2.2375-1.5-3 .085-3.1489-.915-5.8155-3-8 .073-1.5269-.594-2.5269-2-3-.58-2.2488-1.913-3.9154-4-5-1.411-2.414-3.411-4.0806-6-5-.79-.9013-1.79-1.5679-3-2-2.117-2.1545-4.784-3.1545-8-3-8.652-1.5153-16.985-.3486-25 3.5-2.247 1.2775-4.247 2.7775-6 4.5-5.387 3.0537-9.387 7.387-12 13-1.841 2.3485-3.174 5.0152-4 8-.768.7625-1.268 1.7625-1.5 3-.498 3.3168-.665 6.6501-.5 10-1.967-.2394-3.801.0939-5.5 1-1.266 6.095-.266 11.7616 3 17 1.333.667 2.667 1.333 4 2 1.379 4.348 3.213 8.348 5.5 12 3.514 6.027 8.014 11.36 13.5 16 .499 4.655.666 9.321.5 14v1c-.968 2.107-1.302 4.441-1 7-4.824 1.168-9.491 2.502-14 4-3.979.242-7.646 1.242-11 3-1.915-.284-3.581.049-5 1h-1c-2.652-.09-4.985.576-7 2-2.652-.09-4.985.576-7 2-6.158-.239-9.158-3.572-9-10-3.916.539-6.916-.794-9-4 2.807 1.077 5.64 2.077 8.5 3 .692-.525 1.192-1.192 1.5-2-.88-1.929-1.88-3.763-3-5.5 2.514-3.368 3.847-7.201 4-11.5-.518-4.223-.518-8.723 0-13.5-1.364-6.408-3.031-13.075-5-20 1.734-2.43 2.4-4.9298 2-7.5 1.229-.7811 2.562-1.2811 4-1.5-2.231-2.4698-2.231-4.8031 0-7-4.24-2.7886-4.907-6.1219-2-10-.667-1.3333-1.667-2.3333-3-3 2.492-2.1754 4.492-4.1754 6-6-1.124-.2492-2.124-.7492-3-1.5 1.808-2.9229 4.141-5.4229 7-7.5-1.333-1.8402-1.166-2.3402.5-1.5.692-.5253 1.192-1.1919 1.5-2-1.116.098-2.116-.402-3-1.5 1.396-2.0131 1.729-4.0131 1-6 6.89-7.3862 15.557-14.0529 26-20 1.64-1.3946 3.14-2.8946 4.5-4.5.414.4574.914.7907 1.5 1 3.795-1.2465 6.295-3.2465 7.5-6 .333.3333.667.6667 1 1 .748-1.8325 1.748-3.4991 3-5 1.566-.5606 2.899.1061 4 2 3.784-.4592 7.617-.7925 11.5-1 3.313.6579 6.313 1.9912 9 4 7.506-.9559 15.506-.6226 24 1 3.679 2.3931 6.679 5.3931 9 9 .809 1.5709 1.143 3.2376 1 5 3.343.8676 6.676 1.8676 10 3 1.67 3.3143 4.003 5.981 7 8Z" fill="#0a203d"/>
  <path d="M243.5-.5h21c1.586 5.65804 5.252 7.8247 11 6.5 1.657-2.33773 3.824-3.83773 6.5-4.5 9.37.3966 14.87 5.06327 16.5 14 4.934-1.6273 9.601-1.2939 14 1 1.107 2.7307 2.107 5.564 3 8.5.007 1.8122-.66 3.3122-2 4.5.87 2.0259 2.37 3.3592 4.5 4 .483-.948.649-1.948.5-3h4c.17 1.3221-.163 2.4887-1 3.5 2.695-.6025 5.362-.1025 8 1.5-1.252 1.5009-2.252 3.1675-3 5 .59 1.2989 1.59 2.1322 3 2.5-3.113 1.9985-3.947 4.4985-2.5 7.5 3.05-4.2577 6.717-4.591 11-1 1.018-1.2059 1.518-.8726 1.5 1-.056 1.237-.556 2.237-1.5 3-1.113-1.2111-2.28-1.2111-3.5 0-1.241-2.644-3.241-3.4774-6-2.5-.819 3.2896-1.319 6.7896-1.5 10.5.718-2.7337 2.218-3.4004 4.5-2-.763 1.2193-1.763 2.2193-3 3 1.252 1.5009 2.252 3.1675 3 5 4.418 2.84 8.418 6.1734 12 10 .333-.1667.667-.3333 1-.5-1.967-2.4359-3.634-4.9359-5-7.5h3c.328 2.5044 1.662 4.3378 4 5.5-.837 2.5885-2.503 4.4219-5 5.5 2.478 3.4884 5.645 6.1551 9.5 8 1.709 8.4096-1.458 12.743-9.5 13 1.211 1.22 1.211 2.387 0 3.5.808.308 1.475.808 2 1.5-1.101 2.142-2.101 4.308-3 6.5 1.518 1.848 3.351 3.348 5.5 4.5.483.948.649 1.948.5 3-7.475.082-8.808 2.748-4 8 .98 2.586 1.313 5.253 1 8-1.373-.157-2.707.01-4 .5-1.589 1.745-3.589 2.912-6 3.5-.431.793-.765 1.627-1 2.5 1.778 2.225 2.278 4.725 1.5 7.5-1.972.805-3.472 2.139-4.5 4-2.132 1.098-4.298 2.098-6.5 3-3.148-1.921-3.314-4.087-.5-6.5-.74-1.785-1.407-3.618-2-5.5 1.333-2.667 1.333-5.333 0-8 .477-.978 1.143-1.811 2-2.5.134-1.545-.2-3.212-1-5 .627-3.517 1.293-7.017 2-10.5-.657-8.145-1.323-16.478-2-25 .216-3.9136.883-7.7469 2-11.5-.271-3.8703-.938-7.8703-2-12 .457-.414.791-.914 1-1.5-1.862-5.307-4.528-10.1403-8-14.5.333-.3333.667-.6667 1-1-1.721-.7393-3.387-1.5726-5-2.5-.528-1.8361-1.194-3.5028-2-5-2.997-2.019-5.33-4.6857-7-8-3.324-1.1324-6.657-2.1324-10-3 .143-1.7624-.191-3.4291-1-5-2.321-3.6069-5.321-6.6069-9-9-8.494-1.6226-16.494-1.9559-24-1-2.687-2.0088-5.687-3.3421-9-4-3.883.2075-7.716.5408-11.5 1-1.101-1.8939-2.434-2.5606-4-2-1.252 1.5009-2.252 3.1675-3 5-.333-.3333-.667-.6667-1-1-1.205 2.7535-3.705 4.7535-7.5 6-.586-.2093-1.086-.5426-1.5-1-1.36 1.6054-2.86 3.1054-4.5 4.5-10.443 5.9471-19.11 12.6138-26 20 .729 1.9869.396 3.9869-1 6 .884 1.098 1.884 1.598 3 1.5-.308.8081-.808 1.4747-1.5 2-1.666-.8402-1.833-.3402-.5 1.5-2.859 2.0771-5.192 4.5771-7 7.5.876.7508 1.876 1.2508 3 1.5-1.508 1.8246-3.508 3.8246-6 6 1.333.6667 2.333 1.6667 3 3-2.907 3.8781-2.24 7.2114 2 10-2.231 2.1969-2.231 4.5302 0 7-1.438.2189-2.771.7189-4 1.5.4 2.5702-.266 5.07-2 7.5 1.969 6.925 3.636 13.592 5 20-.518 4.777-.518 9.277 0 13.5-.153 4.299-1.486 8.132-4 11.5 1.12 1.737 2.12 3.571 3 5.5-.308.808-.808 1.475-1.5 2-2.86-.923-5.693-1.923-8.5-3-.722-.418-1.222-1.084-1.5-2-.498-3.317-.665-6.65-.5-10-6.563-.397-9.896-3.897-10-10.5-.125-2.609.542-4.942 2-7-8.426-6.139-9.093-12.972-2-20.5-7.112-7.6639-6.446-14.6639 2-21-7.658-8.3775-6.325-15.0441 4-20-1.247-1.823-1.914-3.823-2-6v-3h3c-.299-2.104.034-4.104 1-6 3.096-1.6312 5.93-3.6312 8.5-6 .645-4.0914 1.645-8.0914 3-12 1.907-.0795 3.907.2539 6 1 1.719-1.3688 3.552-2.3688 5.5-3v-5c2.749-2.0854 4.749-4.7521 6-8h12c2.421-2.1691 3.921-5.16908 4.5-9 .333.66667.667 1.33333 1 2 .5-1.16667 1.333-2 2.5-2.5 2.3-.65833 4.633-1.15833 7-1.5 3.597 1.30104 7.264 2.30104 11 3 2.622-2.28189 5.288-4.61522 8-7Z" fill="#141e40"/>
  <path d="M285.5 58.5c1.406.4731 2.073 1.4731 2 3-1.406-.4731-2.073-1.4731-2-3Z" fill="#a1605c"/>
  <path d="M233.5 51.5c-2.393 2.2361-4.227 4.9027-5.5 8-1.926 2.0389-4.093 3.7055-6.5 5 2.613-5.613 6.613-9.9463 12-13Z" fill="#b66443"/>
  <path d="M281.5 53.5c2.087 1.0846 3.42 2.7512 4 5-2.087-1.0846-3.42-2.7512-4-5Z" fill="#b56b58"/>
  <path d="M275.5 48.5c2.589.9194 4.589 2.586 6 5 .58 2.2488 1.913 3.9154 4 5-.073 1.5269.594 2.5269 2 3 2.085 2.1845 3.085 4.8511 3 8-2.069-1.7923-3.403-4.1256-4-7-1.644.2135-3.144-.1198-4.5-1-.483.948-.649 1.948-.5 3h3c-.02 1.643.647 2.9763 2 4-.333.6667-.667 1.3333-1 2 .98 4.7222 1.647 9.2222 2 13.5-.125 1.6268-.625 3.1268-1.5 4.5-1.299-.4662-2.799-.4662-4.5 0 .131-.7389-.036-1.4056-.5-2-.671.7524-1.504 1.0858-2.5 1-3.773.2367-7.44-.2633-11-1.5-1.083-1.5295-2.083-3.0295-3-4.5 1.09-1.503 2.257-1.8363 3.5-1 1.113-1.2604 1.28-2.427.5-3.5 3.327-.6103 6.661-1.1103 10-1.5.237-1.291-.096-2.291-1-3-5.38-.1757-10.713.1576-16 1 2.674-1.5012 2.507-2.5012-.5-3-4.144.6645-8.311 1.1645-12.5 1.5 3.371.1736 4.371 1.6736 3 4.5 1 1.3333 2 2.6667 3 4-1.977 3.3592-3.144 7.0259-3.5 11-.333.3333-.667.6667-1 1-.494-1.6341-.66-3.3008-.5-5-1.699.0271-3.033.6938-4 2v-3c-6.202.2269-12.369-.1064-18.5-1-.833.3333-1.667.6667-2.5 1 .124.6067.457.94 1 1 1.642 1.303 3.309 2.6363 5 4v1c-4.208.2937-4.875 1.9604-2 5-.525.6924-1.192 1.1924-2 1.5.627 2.343 1.627 4.51 3 6.5l-1 1c-1.354-1.684-3.021-2.184-5-1.5 2.694 2.552 2.027 3.719-2 3.5-.132 3.07.201 6.07 1 9-2.287-3.652-4.121-7.652-5.5-12-1.333-.667-2.667-1.333-4-2-3.266-5.2384-4.266-10.905-3-17 1.699-.9061 3.533-1.2394 5.5-1 .949-4.1565 1.616-8.4898 2-13 .826-2.9848 2.159-5.6515 4-8 2.407-1.2945 4.574-2.9611 6.5-5 1.273-3.0973 3.107-5.7639 5.5-8 .996-.0858 1.829.2476 2.5 1 1.214-1.5488 2.714-2.7155 4.5-3.5 5.184-1.7956 10.517-2.9623 16-3.5 6.429.5372 12.762 1.5372 19 3Z" fill="#e2733d"/>
  <path d="M264.5 43.5c2.436 1.371 5.103 2.371 8 3 1.21.4321 2.21 1.0987 3 2-6.238-1.4628-12.571-2.4628-19-3-5.483.5377-10.816 1.7044-16 3.5-1.786.7845-3.286 1.9512-4.5 3.5-.671-.7524-1.504-1.0858-2.5-1 1.753-1.7225 3.753-3.2225 6-4.5 8.015-3.8486 16.348-5.0153 25-3.5Z" fill="#d0754b"/>
  <path d="M264.5 43.5c3.216-.1545 5.883.8455 8 3-2.897-.629-5.564-1.629-8-3Z" fill="#754d4b"/>
  <path d="M312.5 16.5c2.586 1.1385 4.253 3.1385 5 6v5h7c7.468 3.1443 10.134 8.811 8 17h5c7.254 4.0014 8.921 9.8347 5 17.5 7.67 5.1844 9.003 11.6844 4 19.5 1.932 1.8888 3.765 3.8888 5.5 6 .498 2.9816.665 5.9816.5 9-1.257 2.9274-3.257 5.261-6 7 4.216 4.757 5.049 10.091 2.5 16-2.423 1.285-4.256 3.118-5.5 5.5 2.647 3.962 2.647 7.795 0 11.5.313-2.747-.02-5.414-1-8-4.808-5.252-3.475-7.918 4-8 .149-1.052-.017-2.052-.5-3-2.149-1.152-3.982-2.652-5.5-4.5.899-2.192 1.899-4.358 3-6.5-.525-.692-1.192-1.192-2-1.5 1.211-1.113 1.211-2.28 0-3.5 8.042-.257 11.209-4.5904 9.5-13-3.855-1.8449-7.022-4.5116-9.5-8 2.497-1.0781 4.163-2.9115 5-5.5-2.338-1.1622-3.672-2.9956-4-5.5h-3c1.366 2.5641 3.033 5.0641 5 7.5-.333.1667-.667.3333-1 .5-3.582-3.8266-7.582-7.16-12-10-.748-1.8325-1.748-3.4991-3-5 1.237-.7807 2.237-1.7807 3-3-2.282-1.4004-3.782-.7337-4.5 2 .181-3.7104.681-7.2104 1.5-10.5 2.759-.9774 4.759-.144 6 2.5 1.22-1.2111 2.387-1.2111 3.5 0 .944-.763 1.444-1.763 1.5-3 .018-1.8726-.482-2.2059-1.5-1-4.283-3.591-7.95-3.2577-11 1-1.447-3.0015-.613-5.5015 2.5-7.5-1.41-.3678-2.41-1.2011-3-2.5.748-1.8325 1.748-3.4991 3-5-2.638-1.6025-5.305-2.1025-8-1.5.837-1.0113 1.17-2.1779 1-3.5h-4c.149 1.052-.017 2.052-.5 3-2.13-.6408-3.63-1.9741-4.5-4 1.34-1.1878 2.007-2.6878 2-4.5-.893-2.936-1.893-5.7693-3-8.5Z" fill="#17213f"/>
  <path d="M234.5 72.5v2c-6.508-.0915-6.508-.7582 0-2Z" fill="#66342c"/>
  <path d="M234.5 72.5c4.681.1686 9.348.5019 14 1-1.194 1.2773-2.86 1.9439-5 2-3.017-.2683-6.017-.6016-9-1v-2Z" fill="#361c27"/>
  <path d="M248.5 73.5c.904.709 1.237 1.709 1 3-4.014.1655-8.014-.0012-12-.5-1.237-.2321-2.237-.7321-3-1.5 2.983.3984 5.983.7317 9 1 2.14-.0561 3.806-.7227 5-2Z" fill="#ac5e48"/>
  <path d="M290.5 69.5c.768.7625 1.268 1.7625 1.5 3 .499 4.3206.666 8.6539.5 13-.881-5.1686-1.548-10.5019-2-16Z" fill="#8b574a"/>
  <path d="M308.5 46.5c.806 1.4972 1.472 3.1639 2 5 1.613.9274 3.279 1.7607 5 2.5-.333.3333-.667.6667-1 1 3.472 4.3597 6.138 9.193 8 14.5-.209.586-.543 1.086-1 1.5 1.062 4.1297 1.729 8.1297 2 12-1.117 3.7531-1.784 7.5864-2 11.5.677 8.522 1.343 16.855 2 25-.707 3.483-1.373 6.983-2 10.5.8 1.788 1.134 3.455 1 5-.857.689-1.523 1.522-2 2.5 1.333 2.667 1.333 5.333 0 8 .593 1.882 1.26 3.715 2 5.5-2.814 2.413-2.648 4.579.5 6.5 2.202-.902 4.368-1.902 6.5-3 1.028-1.861 2.528-3.195 4.5-4 .778-2.775.278-5.275-1.5-7.5.235-.873.569-1.707 1-2.5 2.411-.588 4.411-1.755 6-3.5 1.293-.49 2.627-.657 4-.5-2.427 2.724-5.427 4.724-9 6 2.636 7.729.136 13.062-7.5 16-1.104 3.221-2.937 5.888-5.5 8-4.333-.667-8.667-1.333-13-2h-2c-2.015-1.424-4.348-2.09-7-2h-1c-5.463-1.696-11.129-3.029-17-4-1.599.268-2.932-.066-4-1-1.616-1.489-3.616-2.489-6-3-.333-.667-.667-1.333-1-2 1.531-1.113 2.531-2.613 3-4.5-.167-.833-.333-1.667-.5-2.5-.428 4.998-1.261 5.165-2.5.5l1-1c-.61-1.947-1.443-3.781-2.5-5.5-.667-1.333-.667-2.667 0-4 2.687-2.704 5.187-2.537 7.5.5-2.256 2.485-2.256 4.818 0 7-1.778 2.222-1.945 4.388-.5 6.5 2.188-.947 4.522-.947 7 0-.438-2.56-.271-5.06.5-7.5-.691-1.067-1.191-2.234-1.5-3.5-.308.808-.808 1.475-1.5 2-1.083-.865-1.249-1.865-.5-3h4c.333-.667.667-1.333 1-2 2.394.636 4.894.636 7.5 0v-3h-3c-.667-2.319-.834-4.653-.5-7 2.033.516 2.033-.15 0-2-2.337 1.284-4.671 3.284-7 6-1.059-.13-1.892-.63-2.5-1.5 5.72-4.489 9.72-10.656 12-18.5 2.936.906 5.936 1.572 9 2 .377-3.025.544-6.025.5-9-1.383 2.576-2.217 2.242-2.5-1-.22-6.1145-1.22-11.9479-3-17.5 1.751-4.994 2.918-10.1606 3.5-15.5.419 4.3518 1.086 4.6851 2 1 .333.3333.667.6667 1 1 .251-1.933.751-3.7663 1.5-5.5-.457-.414-.791-.914-1-1.5 1.35-1.4501 3.016-2.1168 5-2-.434 5.1484 1.899 7.8151 7 8-.262-1.4778.071-2.8112 1-4 1.109 1.0896 2.109 1.0896 3 0-.746-1.2362-1.079-2.5695-1-4-2.261.9092-4.428 1.2425-6.5 1-.309-1.2659-.809-2.4326-1.5-3.5 1.438-.2189 2.771-.7189 4-1.5-1.961-2.9628-4.294-5.6294-7-8 1.112-.7652 1.779-1.7652 2-3Z" fill="#09203f"/>
  <path d="M217.5 72.5c-.384 4.5102-1.051 8.8435-2 13-.165-3.3499.002-6.6832.5-10 .232-1.2375.732-2.2375 1.5-3Z" fill="#7f4b3d"/>
  <path d="M230.5 91.5c-1.691-1.3637-3.358-2.697-5-4 .06-.5431.393-.8764 1-1 2.511 1.2813 5.178 1.9479 8 2 3.064-.8251 6.064-.8251 9 0-3.882 2.6608-8.216 3.6608-13 3Z" fill="#241a2e"/>
  <path d="M245.5 89.5c-1.1 1.0585-2.434 1.8918-4 2.5-3.652.4986-7.318.6653-11 .5v-1c4.784.6608 9.118-.3392 13-3-2.936-.8251-5.936-.8251-9 0-2.822-.0521-5.489-.7187-8-2-.607.1236-.94.4569-1 1-.543-.06-.876-.3933-1-1 .833-.3333 1.667-.6667 2.5-1 6.131.8936 12.298 1.2269 18.5 1v3Z" fill="#b5694d"/>
  <path d="M292.5 85.5c1.322-.17 2.489.1634 3.5 1 .667 4.3333.667 8.6667 0 13-1.246 3.582-3.58 6.249-7 8-.661 3.302-1.828 6.302-3.5 9 .147-2.943.813-5.776 2-8.5-.444-1.762-.944-1.595-1.5.5-1.236-4.303-.402-5.303 2.5-3 .781-1.229 1.281-2.562 1.5-4 1.087 2.432 1.587 2.098 1.5-1h3c.072-2.6933.405-5.3599 1-8-.049-2.8344-1.049-5.1677-3-7Z" fill="#d87446"/>
  <path d="M290.5 69.5c.452 5.4981 1.119 10.8314 2 16 1.951 1.8323 2.951 4.1656 3 7-.595 2.6401-.928 5.3067-1 8h-3c.087 3.098-.413 3.432-1.5 1-.219 1.438-.719 2.771-1.5 4-2.902-2.303-3.736-1.303-2.5 3 .556-2.095 1.056-2.262 1.5-.5-1.187 2.724-1.853 5.557-2 8.5-3.292-.38-5.625.953-7 4 .333.667.667 1.333 1 2-1.229.781-2.562 1.281-4 1.5l1 1c-1.146.645-2.146 1.478-3 2.5-.692-.525-1.192-1.192-1.5-2-1.011.837-2.178 1.17-3.5 1v3c-1.901.067-3.734-.267-5.5-1-2.192 1.43-4.192 3.097-6 5-.333-.667-.667-1.333-1-2-.442 4.349-2.942 6.349-7.5 6-3.979-.548-7.645-1.881-11-4-3.481-3.921-6.314-8.254-8.5-13-.535 1.771-1.369 2.104-2.5 1-.746-1.236-1.079-2.57-1-4h-3c-.799-2.93-1.132-5.93-1-9 4.027.219 4.694-.948 2-3.5 1.979-.684 3.646-.184 5 1.5l1-1c-1.373-1.99-2.373-4.157-3-6.5.808-.3076 1.475-.8076 2-1.5-2.875-3.0396-2.208-4.7063 2-5 3.682.1653 7.348-.0014 11-.5 1.566-.6082 2.9-1.4415 4-2.5.967-1.3062 2.301-1.9729 4-2-.16 1.6992.006 3.3659.5 5 .333-.3333.667-.6667 1-1 .356-3.9741 1.523-7.6408 3.5-11-1-1.3333-2-2.6667-3-4 1.371-2.8264.371-4.3264-3-4.5 4.189-.3355 8.356-.8355 12.5-1.5 3.007.4988 3.174 1.4988.5 3v1c-1.333 0-2 .6667-2 2 .938 4.6272 1.771 9.2939 2.5 14 .671.7524 1.504 1.0858 2.5 1 6.174 1.8329 11.841.8329 17-3 1.701-.4662 3.201-.4662 4.5 0 .875-1.3732 1.375-2.8732 1.5-4.5-.353-4.2778-1.02-8.7778-2-13.5.333-.6667.667-1.3333 1-2-1.353-1.0237-2.02-2.357-2-4h-3c-.149-1.052.017-2.052.5-3 1.356.8802 2.856 1.2135 4.5 1 .597 2.8744 1.931 5.2077 4 7Z" fill="#e5733a"/>
  <path d="M259.5 98.5c2.342.2748 2.342 1.1081 0 2.5-3.795.837-7.461.504-11-1 1.976-.1878 3.976-.0212 6 .5 2.057.064 3.723-.6024 5-2Z" fill="#9f3d26"/>
  <path d="M281.5 88.5c-5.159 3.8329-10.826 4.8329-17 3-.641-.9822-1.307-1.9822-2-3 .667-.3333 1.333-.6667 2-1 4.817 1.2472 9.484 1.2472 14 0 .996.0858 1.829-.2476 2.5-1 .464.5944.631 1.2611.5 2Z" fill="#3d1b34"/>
  <path d="M277.5 72.5c.904.709 1.237 1.709 1 3-3.339.3897-6.673.8897-10 1.5.78 1.073.613 2.2396-.5 3.5-1.243-.8363-2.41-.503-3.5 1 .917 1.4705 1.917 2.9705 3 4.5 3.56 1.2367 7.227 1.7367 11 1.5-4.516 1.2472-9.183 1.2472-14 0-.667.3333-1.333.6667-2 1 .693 1.0178 1.359 2.0178 2 3-.996.0858-1.829-.2476-2.5-1-.729-4.7061-1.562-9.3728-2.5-14 4.767-.026 9.434-.6927 14-2 1.88.2709 3.213-.3958 4-2Z" fill="#d57248"/>
  <path d="M273.5 74.5c-4.566 1.3073-9.233 1.974-14 2 0-1.3333.667-2 2-2 4.158-1.0392 8.158-1.0392 12 0Z" fill="#371d34"/>
  <path d="M277.5 72.5c-.787 1.6042-2.12 2.2709-4 2-3.842-1.0392-7.842-1.0392-12 0v-1c5.287-.8424 10.62-1.1757 16-1Z" fill="#5f373e"/>
  <path d="M265.5 114.5v-2c.453-.958 1.119-1.792 2-2.5-8.66-.5-17.327-.666-26-.5-1.261 3.871-2.594 3.871-4 0 10.972-1.777 21.972-2.11 33-1-.967 2.629-2.633 4.629-5 6Z" fill="#c24729"/>
  <path d="M241.5 109.5c8.673-.166 17.34 0 26 .5-.881.708-1.547 1.542-2 2.5h-1c-2.758-1.318-5.924-1.985-9.5-2-3.167.333-6.333.667-9.5 1 .363.683.696 1.35 1 2-2.704-.17-4.371-1.503-5-4Z" fill="#f9e2c0"/>
  <path d="M264.5 112.5c-.929.815-1.929 1.648-3 2.5-3.652.499-7.318.665-11 .5-1.653-.16-2.986-.826-4-2-.304-.65-.637-1.317-1-2 3.167-.333 6.333-.667 9.5-1 3.576.015 6.742.682 9.5 2Z" fill="#fbf9f4"/>
  <path d="M264.5 112.5h1v2c-4.527 7.084-10.527 8.584-18 4.5 1.926-.422 2.926-1.589 3-3.5 3.682.165 7.348-.001 11-.5 1.071-.852 2.071-1.685 3-2.5Z" fill="#fa9351"/>
  <path d="M222.5 117.5h3c-.079 1.43.254 2.764 1 4 1.131 1.104 1.965.771 2.5-1 2.186 4.746 5.019 9.079 8.5 13 .319 4.863-.014 9.53-1 14 .166-4.679-.001-9.345-.5-14-5.486-4.64-9.986-9.973-13.5-16Z" fill="#d07247"/>
  <path d="M236.5 148.5c.277 2.948-.056 5.781-1 8.5-4.399 1.97-9.065 2.803-14 2.5 4.509-1.498 9.176-2.832 14-4-.302-2.559.032-4.893 1-7Z" fill="#b16041"/>
  <path d="M285.5 116.5c-4.291 7.458-10.125 13.458-17.5 18-.667 4.667-.667 9.333 0 14-.212 6.622 2.954 9.622 9.5 9 1.068.934 2.401 1.268 4 1 4.968 2.34 10.301 3.673 16 4 .432 1.21 1.099 2.21 2 3 .318 5.159-.348 10.159-2 15-1.407 3.812-3.074 7.478-5 11-3.769 4.271-7.769 8.438-12 12.5-5.268 3.132-10.601 5.965-16 8.5-14.908 3.27-28.241.27-40-9-9.746-6.82-15.413-16.153-17-28-.164-4.725.836-9.058 3-13 2.502-.249 5.002-.583 7.5-1 1.681-.108 2.848-.775 3.5-2 4.935.303 9.601-.53 14-2.5.944-2.719 1.277-5.552 1-8.5v-1c.986-4.47 1.319-9.137 1-14 3.355 2.119 7.021 3.452 11 4 4.558.349 7.058-1.651 7.5-6 .333.667.667 1.333 1 2 1.808-1.903 3.808-3.57 6-5 1.766.733 3.599 1.067 5.5 1v-3c1.322.17 2.489-.163 3.5-1 .308.808.808 1.475 1.5 2 .854-1.022 1.854-1.855 3-2.5l-1-1c1.438-.219 2.771-.719 4-1.5-.333-.667-.667-1.333-1-2 1.375-3.047 3.708-4.38 7-4Z" fill="#de7038"/>
  <path d="M221.5 159.5c-.652 1.225-1.819 1.892-3.5 2-2.498.417-4.998.751-7.5 1 3.354-1.758 7.021-2.758 11-3Z" fill="#b56348"/>
  <path d="M281.5 158.5c5.871.971 11.537 2.304 17 4h-1c-5.699-.327-11.032-1.66-16-4Z" fill="#674a4f"/>
  <path d="M299.5 162.5c2.652-.09 4.985.576 7 2-2.652.09-4.985-.576-7-2Z" fill="#5f6e84"/>
  <path d="M204.5 163.5c-1 .667-2 1.333-3 2h-4c2.015-1.424 4.348-2.09 7-2Z" fill="#a0aaad"/>
  <path d="M297.5 162.5h2c2.015 1.424 4.348 2.09 7 2h2c2.581.988 5.248 1.988 8 3 10.825 2.631 18.991 8.964 24.5 19 4.723 10.891 7.89 22.225 9.5 34-.333.667-.667 1.333-1 2h-1c-5.002 1.164-10.002 2.664-15 4.5-4.989.749-9.989 1.415-15 2-.787 3.455-1.454 6.955-2 10.5-1.333 2.667-2.667 5.333-4 8-1 .333-1.667 1-2 2-3.161 9.63-4.827 19.63-5 30h-7c-8.655.583-17.322.916-26 1-20.341.054-40.675-.279-61-1h-5c-2.266.359-4.099-.308-5.5-2-.611-4.996-1.111-9.996-1.5-15-.172-4.034-.672-8.034-1.5-12-.383-.556-.883-.889-1.5-1-4.944-5.898-7.944-12.564-9-20-2.952-1.91-6.286-2.91-10-3-4.667-1.667-9.333-3.333-14-5v-1c-1.241-4.655-1.241-9.655 0-15 1.653-5.612 3.153-11.279 4.5-17 2.833-3.667 5.667-7.333 8.5-11 5.814-3.902 11.814-7.235 18-10 1-.667 2-1.333 3-2h4c.589 3.285 1.756 3.618 3.5 1-2.931 9.374-1.098 18.541 5.5 27.5-3.289 1.077-3.789 2.91-1.5 5.5.833 1 1.667 2 2.5 3 .692-.525 1.192-1.192 1.5-2 .75.626 1.584 1.126 2.5 1.5-1.771.535-2.104 1.369-1 2.5 2.016-1.206 4.016-1.206 6 0 .682 2.664 2.182 5.331 4.5 8 2.514.589 4.514 1.922 6 4 2.2-2.331 4.2-2.331 6 0 8.06.004 16.227-.163 24.5-.5 3.482-.905 6.482-2.572 9-5 6.503-.002 11.836-2.502 16-7.5 2.131-4.016 4.131-8.016 6-12 1.926-3.522 3.593-7.188 5-11 1.29-.558 2.123-1.558 2.5-3 .812-4.189.645-8.189-.5-12-.901-.79-1.568-1.79-2-3Z" fill="#fcfdfc"/>
  <path d="M308.5 164.5c4.333.667 8.667 1.333 13 2-1.419.951-3.085 1.284-5 1-2.752-1.012-5.419-2.012-8-3Z" fill="#3d5c62"/>
  <path d="M197.5 165.5c-1 .667-2 1.333-3 2h-4c2.015-1.424 4.348-2.09 7-2Z" fill="#97acb0"/>
  <path d="M205.5 163.5c1.419-.951 3.085-1.284 5-1-2.164 3.942-3.164 8.275-3 13-1.293-3.534-1.293-7.201 0-11-.457-.798-1.124-1.131-2-1Z" fill="#ce8163"/>
  <path d="M299.5 165.5c1.145 3.811 1.312 7.811.5 12-.377 1.442-1.21 2.442-2.5 3 1.652-4.841 2.318-9.841 2-15Z" fill="#e9ceae"/>
  <path d="M204.5 163.5h1c.876-.131 1.543.202 2 1-1.293 3.799-1.293 7.466 0 11 1.587 11.847 7.254 21.18 17 28 .805 3.317 2.639 5.983 5.5 8l1-1c11.095 4.31 22.262 4.977 33.5 2 5.399-2.535 10.732-5.368 16-8.5 4.231-4.062 8.231-8.229 12-12.5-1.869 3.984-3.869 7.984-6 12-4.164 4.998-9.497 7.498-16 7.5-2.518 2.428-5.518 4.095-9 5-8.273.337-16.44.504-24.5.5-1.8-2.331-3.8-2.331-6 0-1.486-2.078-3.486-3.411-6-4-2.318-2.669-3.818-5.336-4.5-8-1.984-1.206-3.984-1.206-6 0-1.104-1.131-.771-1.965 1-2.5-.916-.374-1.75-.874-2.5-1.5-.308.808-.808 1.475-1.5 2-.833-1-1.667-2-2.5-3-2.289-2.59-1.789-4.423 1.5-5.5-6.598-8.959-8.431-18.126-5.5-27.5-1.744 2.618-2.911 2.285-3.5-1 1-.667 2-1.333 3-2Z" fill="#fcf8ef"/>
  <path d="M224.5 203.5c11.759 9.27 25.092 12.27 40 9-11.238 2.977-22.405 2.31-33.5-2l-1 1c-2.861-2.017-4.695-4.683-5.5-8Z" fill="#f9ecd6"/>
  <path d="M177.5 226.5c3.714.09 7.048 1.09 10 3-3.786.18-7.119-.82-10-3Z" fill="#eecec5"/>
  <path d="M348.5 222.5h1c.48 5.322.813 10.655 1 16-1.457-5.098-2.124-10.431-2-16Z" fill="#995f55"/>
  <path d="M350.5 240.5c1.49 4.442 2.49 9.109 3 14-.617-.111-1.117-.444-1.5-1-1.075-4.27-1.575-8.603-1.5-13Z" fill="#b96b57"/>
  <path d="M389.5 321.5c8.751 9.744 18.751 18.078 30 25 2.466 1.134 5.133 1.301 8 .5 5.12-7.778 7.454-6.945 7 2.5v5c1.109.79 2.442 1.29 4 1.5-7.844.171-15.511.671-23 1.5-.667 0-1 .333-1 1-4.532-2.097-8.865-4.431-13-7-1.876-1.697-3.376-3.697-4.5-6-4.134 1.029-7.634-.137-10.5-3.5-2.313-.662-4.646-1.162-7-1.5-.577-3.425-1.41-6.425-2.5-9-3.725 1.51-7.058.844-10-2l-2 2c-.671-.752-1.504-1.086-2.5-1-1.934-.61-3.601-1.61-5-3-1.085-2.087-2.751-3.42-5-4-10.347-7.387-18.347-16.721-24-28-1.203-2.673-1.203-5.34 0-8-.346-1.196-.846-1.196-1.5 0-3.449-6.782-6.449-13.782-9-21-.758-2.269-.591-4.436.5-6.5-1.633-.48-2.966-1.313-4-2.5-1.287-3.198-1.953-6.531-2-10 1.333-2.667 2.667-5.333 4-8 2.418 1.515 4.085.849 5-2-.606-2.209-1.273-4.376-2-6.5 9.761-1.203 19.094-3.703 28-7.5.766 7.991.933 15.991.5 24-1.363-2.284-2.863-2.451-4.5-.5.626.75 1.126 1.584 1.5 2.5 1.667-1.333 3.333-1.333 5 0 2.089 5.276 3.589 10.776 4.5 16.5-.145 1.226-.478 2.393-1 3.5 1.128.762 2.295 1.429 3.5 2 .972 5.426 2.805 10.426 5.5 15-1.052.149-2.052-.017-3-.5 1.104-1.131.771-1.965-1-2.5l-1 1c1.288 2.534 1.288 5.034 0 7.5 2.211 2.785 4.877 5.118 8 7-3 4.769-5.333 9.936-7 15.5 1.223 1.114 2.556 1.281 4 .5 2.169-3.201 4.336-6.367 6.5-9.5.748 1.832 1.748 3.499 3 5 .826-1.905 1.993-2.239 3.5-1-1.52 2.655-1.02 3.322 1.5 2 1.586 1.544 3.42 2.711 5.5 3.5 1.614 2.093 2.447 4.26 2.5 6.5 1.414-.913 2.914-.913 4.5 0Z" fill="#df723a"/>
  <path d="M301.5 254.5c1.175-.219 2.175.114 3 1-4.916 5.293-10.916 8.793-18 10.5-20.277 4.165-40.611 4.498-61 1-7.038-1.351-13.038-4.517-18-9.5 29.93-1.094 59.93-1.26 90-.5 1.566-.608 2.9-1.442 4-2.5Z" fill="#bec2ca"/>
  <path d="M163.5 221.5c4.667 1.667 9.333 3.333 14 5 2.881 2.18 6.214 3.18 10 3 1.056 7.436 4.056 14.102 9 20-.362 7.088-1.362 14.088-3 21-6.363 23.526-19.363 42.692-39 57.5l-18 12c-6.854 3.259-13.521 6.759-20 10.5-5.782 2.256-11.116 5.256-16 9-1.2079.734-2.5413 1.067-4 1-6.3333-.667-12.6667-1.333-19-2 2.6873.164 5.354-.003 8-.5-2.3516-.576-3.3516-2.076-3-4.5.8496-2.431 1.8496-4.764 3-7h1c2.7163 1.586 5.0497 1.253 7-1 3.0712-2.398 6.4046-4.398 10-6 1.679-.392 3.346-.892 5-1.5 2.65-5.496 6.984-8.329 13-8.5v-6c2.743-1.739 4.743-4.073 6-7 3.8-2.463 6.467-5.796 8-10 2.823-1.492 4.49-3.826 5-7-.172-.992.162-1.658 1-2 1.826-1.647 3.16-3.647 4-6 3.925-7.174 7.258-14.508 10-22 1.574-1.602 2.241-3.602 2-6v-2c1.842-3.659 2.842-7.659 3-12v-2c.79-1.109 1.29-2.442 1.5-4 .832-7.315 1.332-14.648 1.5-22Z" fill="#df713a"/>
  <path d="M314.5 257.5c1.034 1.187 2.367 2.02 4 2.5-1.091 2.064-1.258 4.231-.5 6.5 2.551 7.218 5.551 14.218 9 21 .654-1.196 1.154-1.196 1.5 0-1.203 2.66-1.203 5.327 0 8-3.881-6.429-7.215-13.096-10-20-1.127-5.382-2.461-10.716-4-16v-2Z" fill="#d4714a"/>
  <path d="M211.5 279.5c20.325.721 40.659 1.054 61 1-13.49.996-27.156 1.329-41 1h-4c-5.333-.667-10.667-1.333-16-2Z" fill="#e7c4b8"/>
  <path d="M227.5 281.5h4c20.836 1.074 41.836 1.074 63 0-.524 5.569-.524 11.236 0 17-.072 4.256-.739 8.256-2 12-24.58 8.121-49.58 9.121-75 3-1.342-1.293-3.009-2.126-5-2.5-.597-1.062-.93-2.228-1-3.5 2.292-8.572 2.625-17.239 1-26h15Z" fill="#dd6f36"/>
  <path d="M298.5 279.5c-3.063 8.777-3.729 17.777-2 27 .333 3-1 4.333-4 4 1.261-3.744 1.928-7.744 2-12-.524-5.764-.524-11.431 0-17-21.164 1.074-42.164 1.074-63 0 13.844.329 27.51-.004 41-1 8.678-.084 17.345-.417 26-1Z" fill="#d4754d"/>
  <path d="M206.5 279.5h5c5.333.667 10.667 1.333 16 2h-15c1.625 8.761 1.292 17.428-1 26 .07 1.272.403 2.438 1 3.5 1.991.374 3.658 1.207 5 2.5-2.361-.174-4.694-.507-7-1-.667 0-1-.333-1-1 1.732-7.577 2.232-15.243 1.5-23-1.058-3.277-2.558-6.277-4.5-9Z" fill="#d57047"/>
  <path d="M348.5 222.5c-.124 5.569.543 10.902 2 16v2c-.075 4.397.425 8.73 1.5 13 .383.556.883.889 1.5 1 6.453 25.236 18.453 47.569 36 67-1.586-.913-3.086-.913-4.5 0-.053-2.24-.886-4.407-2.5-6.5-2.08-.789-3.914-1.956-5.5-3.5-2.52 1.322-3.02.655-1.5-2-1.507-1.239-2.674-.905-3.5 1-1.252-1.501-2.252-3.168-3-5-2.164 3.133-4.331 6.299-6.5 9.5-1.444.781-2.777.614-4-.5 1.667-5.564 4-10.731 7-15.5-3.123-1.882-5.789-4.215-8-7 1.288-2.466 1.288-4.966 0-7.5l1-1c1.771.535 2.104 1.369 1 2.5.948.483 1.948.649 3 .5-2.695-4.574-4.528-9.574-5.5-15-1.205-.571-2.372-1.238-3.5-2 .522-1.107.855-2.274 1-3.5-.911-5.724-2.411-11.224-4.5-16.5-1.667-1.333-3.333-1.333-5 0-.374-.916-.874-1.75-1.5-2.5 1.637-1.951 3.137-1.784 4.5.5.433-8.009.266-16.009-.5-24-8.906 3.797-18.239 6.297-28 7.5.727 2.124 1.394 4.291 2 6.5-.915 2.849-2.582 3.515-5 2 .546-3.545 1.213-7.045 2-10.5 5.011-.585 10.011-1.251 15-2 4.998-1.836 9.998-3.336 15-4.5Z" fill="#dc7140"/>
  <path d="M209.5 311.5c0 .667.333 1 1 1 2.064 1.368 4.398 2.368 7 3-.826.951-.992 1.951-.5 3 1.942 1.742 3.609 3.742 5 6 .914-1.154 1.747-.987 2.5.5-2.15 2.468-1.984 4.301.5 5.5 1.284-1.072 1.617-2.405 1-4 1 .667 2 1.333 3 2 3.941-1.101 7.608-1.101 11 0 3.011 1.5 2.511 2.334-1.5 2.5 6.079.374 12.079 1.207 18 2.5-.219-1.175.114-2.175 1-3 1.269-1.68 2.936-2.847 5-3.5-1-.333-2-.667-3-1 3.719-1.778 6.886-.945 9.5 2.5h4c1.351-1.519 2.851-2.852 4.5-4-.59-1.299-1.59-2.132-3-2.5 3.091.643 5.925-.19 8.5-2.5.715 3.49 2.548 6.156 5.5 8 1.431-.477 2.764-1.143 4-2-.209-.586-.543-1.086-1-1.5 1.431-.465 2.597-1.299 3.5-2.5 2.746 3.833 4.246 3.166 4.5-2-1.175.219-2.175-.114-3-1 .848-1.909 1.182-3.909 1-6 5.054 12.508 11.054 24.508 18 36-4.774 1.039-9.441 2.706-14 5h-1c-6.838 4.803-14.172 8.97-22 12.5-3.462 2.239-4.795 5.406-4 9.5-2.357-.163-4.69.003-7 .5-.837 1.011-1.17 2.178-1 3.5-2.656.658-5.322 1.325-8 2-2.265-.842-4.432-.842-6.5 0-10.494-4.024-20.327-9.858-29.5-17.5-6.835-3.372-13.501-6.872-20-10.5-7.003-2.077-14.003-3.744-21-5 3.507.506 6.674-.16 9.5-2 6.755-11.517 12.921-23.183 18.5-35Z" fill="#54103b"/>
  <path d="M296.5 306.5c.961 1.765 1.295 3.765 1 6 .182 2.091-.152 4.091-1 6 .825.886 1.825 1.219 3 1-.254 5.166-1.754 5.833-4.5 2-.903 1.201-2.069 2.035-3.5 2.5.457.414.791.914 1 1.5-1.236.857-2.569 1.523-4 2-2.952-1.844-4.785-4.51-5.5-8-2.575 2.31-5.409 3.143-8.5 2.5 1.41.368 2.41 1.201 3 2.5-1.649 1.148-3.149 2.481-4.5 4h-4c-2.614-3.445-5.781-4.278-9.5-2.5 1 .333 2 .667 3 1-2.064.653-3.731 1.82-5 3.5-.886.825-1.219 1.825-1 3-5.921-1.293-11.921-2.126-18-2.5 4.011-.166 4.511-1 1.5-2.5-3.392-1.101-7.059-1.101-11 0-1-.667-2-1.333-3-2 .617 1.595.284 2.928-1 4-2.484-1.199-2.65-3.032-.5-5.5-.753-1.487-1.586-1.654-2.5-.5-1.391-2.258-3.058-4.258-5-6-.492-1.049-.326-2.049.5-3-2.602-.632-4.936-1.632-7-3 2.306.493 4.639.826 7 1 25.42 6.121 50.42 5.121 75-3 3 .333 4.333-1 4-4Z" fill="#59103b"/>
  <path d="M352.5 323.5c2.249.58 3.915 1.913 5 4-2.249-.58-3.915-1.913-5-4Z" fill="#bb6d5e"/>
  <path d="M436.5 330.5c-.838.342-1.172 1.008-1 2-1.818-1.578-2.818-1.078-3 1.5.273 1.533.606 3.033 1 4.5-.617-.111-1.117-.444-1.5-1-.497-2.646-.664-5.313-.5-8-1.322-.17-2.489.163-3.5 1-.497 2.31-.663 4.643-.5 7-3.064-10.273-.064-12.606 9-7Z" fill="#b06d5f"/>
  <path d="M84.5 332.5h1c.0893 3.209-.244 6.375-1 9.5.0186 1.833.6852 3.333 2 4.5h-1c-.6174-.111-1.1174-.444-1.5-1-.3333-4-.6667-8-1-12-.2321 1.237-.7321 2.237-1.5 3-.1567-1.373.01-2.707.5-4 .7697-1.098 1.603-1.098 2.5 0Z" fill="#d97e56"/>
  <path d="M84.5 332.5c-.897-1.098-1.7303-1.098-2.5 0-.49 1.293-.6567 2.627-.5 4h-1c.1567-1.373-.01-2.707-.5-4-1.4048 1.231-2.5714 2.564-3.5 4 .131-.739-.0357-1.406-.5-2-1.3712 1.541-2.8712 2.875-4.5 4 1.7629-3.599 4.4295-6.432 8-8.5 2.7617-1.077 4.4283-.244 5 2.5Z" fill="#b16e5c"/>
  <path d="M433.5 338.5c1.497 1.79 2.164 3.956 2 6.5-.008 1.707-.342 3.207-1 4.5.454-9.445-1.88-10.278-7-2.5-2.867.801-5.534.634-8-.5 6.495.502 9.161-2.498 8-9-.163-2.357.003-4.69.5-7 1.011-.837 2.178-1.17 3.5-1-.164 2.687.003 5.354.5 8 .383.556.883.889 1.5 1Z" fill="#d17846"/>
  <path d="M121.5 323.5v6c-6.016.171-10.35 3.004-13 8.5-1.654.608-3.321 1.108-5 1.5 5.677-5.676 11.677-11.009 18-16Z" fill="#ce724e"/>
  <path d="M436.5 330.5c6.513 5.039 9.18 11.706 8 20-1.283 2.368-2.95 4.535-5 6.5-7.993.5-15.993.666-24 .5 7.489-.829 15.156-1.329 23-1.5-1.558-.21-2.891-.71-4-1.5 2.124-.531 3.624-1.865 4.5-4 .611-6.338-.556-12.338-3.5-18-.172-.992.162-1.658 1-2Z" fill="#dc7d51"/>
  <path d="M85.5 346.5c-1.1504 2.236-2.1504 4.569-3 7-.3516 2.424.6484 3.924 3 4.5-2.646.497-5.3127.664-8 .5-3.8206.006-6.4873-1.661-8-5v-1c.9959-.086 1.8292.248 2.5 1 .1829-2.865.6829-5.531 1.5-8-.1633 2.357.0034 4.69.5 7 .3826.556.8826.889 1.5 1 .3212 1.548 1.3212 2.215 3 2-.1079-5.37.2255-10.703 1-16 .6098-.891.9431-1.891 1-3h1c.7679-.763 1.2679-1.763 1.5-3 .3333 4 .6667 8 1 12 .3826.556.8826.889 1.5 1Z" fill="#e7823e"/>
  <path d="M401.5 351.5c-3.756-1.919-7.756-3.252-12-4-2.05-2.047-4.383-3.714-7-5-7.338-2.997-14.005-6.997-20-12 .996-.086 1.829.248 2.5 1l2-2c2.942 2.844 6.275 3.51 10 2 1.09 2.575 1.923 5.575 2.5 9 2.354.338 4.687.838 7 1.5 2.866 3.363 6.366 4.529 10.5 3.5 1.124 2.303 2.624 4.303 4.5 6Z" fill="#d86f44"/>
  <path d="M80.706957 332.23294c-.6667 2 1.070675 2.79802.403975 4.79802-.904.709-1.417598 18.11613-1.180298 19.40713C79.113534 358.90709 72.1829 350.635 72 353.5c-.6708-.752-1.5041-1.086-2.5-1 .0219-4.772.6885-9.439 2-14 1.6288-1.125 3.1288-2.459 4.5-4 .4643.594 4.837957-3.00606 4.706957-2.26706z" fill="#f09541"/>
  <path d="M341.5 344.5c12.178-.328 24.178.005 36 1-14.683-.161-29.349.172-44 1 2.667-.667 5.333-1.333 8-2Z" fill="#902a67"/>
  <path d="M341.5 344.5c-2.667.667-5.333 1.333-8 2-4.667.667-9.333 1.333-14 2 6.85-3.235 14.184-4.568 22-4Z" fill="#773876"/>
  <path d="M382.5 342.5c2.617 1.286 4.95 2.953 7 5h-3c-1-.667-2-1.333-3-2-.057-1.109-.39-2.109-1-3Z" fill="#aa6268"/>
  <path d="M71.5 338.5c-1.3115 4.561-1.9781 9.228-2 14v1c-1.1408-3.14-1.3075-6.473-.5-10 .0995-2.153.9328-3.819 2.5-5Z" fill="#be8162"/>
  <path d="M377.5 345.5h6c1 .667 2 1.333 3 2-11.307-1.077-22.64-1.243-34-.5-2.412 2.035-1.745 3.035 2 3-1.196.654-1.196 1.154 0 1.5.692-.525 1.192-1.192 1.5-2 .388.928 1.055 1.595 2 2 4.981-1.22 9.814-.053 14.5 3.5-2.127 1.491-4.127 2.325-6 2.5 1.247 1.823 1.914 3.823 2 6h-4c2.758-2.255 2.424-4.088-1-5.5-7.947-1.383-15.947-2.216-24-2.5-10.84-1.226-21.84-1.226-33 0-2.14-.056-3.806-.723-5-2 4.559-2.294 9.226-3.961 14-5h4c4.667-.667 9.333-1.333 14-2 14.651-.828 29.317-1.161 44-1Z" fill="#b50f50"/>
  <path d="M143.5 349.5v1c-9.202.17-18.202.17-27 0 8.967-.883 17.967-1.216 27-1Z" fill="#8b3466"/>
  <path d="M116.5 350.5c8.798.17 17.798.17 27 0 17.026-.294 34.026.206 51 1.5 1.123 1.044 2.456 1.71 4 2-10.667.333-21.333.667-32 1-1.237.232-2.237.732-3 1.5-5.695.786-11.362 1.786-17 3 .03-.997-.47-1.664-1.5-2-1.44.648-2.94.981-4.5 1 .079-1.43-.254-2.764-1-4-1.914-1.062-3.414-2.062-4.5-3-.833.167-1.667.333-2.5.5l1 1c-3 .333-6 .667-9 1-2.037 2.189-4.537 3.689-7.5 4.5-.772-.145-1.439-.478-2-1-2.958 2.582-5.958 2.582-9 0-1.444 1.655-3.278 2.322-5.5 2 4.884-3.744 10.218-6.744 16-9Z" fill="#be124d"/>
  <path d="M181.5 348.5c6.997 1.256 13.997 2.923 21 5 .172.992-.162 1.658-1 2-12.692-.232-25.359.102-38 1 .763-.768 1.763-1.268 3-1.5 10.667-.333 21.333-.667 32-1-1.544-.29-2.877-.956-4-2-16.974-1.294-33.974-1.794-51-1.5v-1c12.617-.962 25.284-1.295 38-1Z" fill="#a31a56"/>
  <path d="M386.5 347.5h3c4.244.748 8.244 2.081 12 4 4.135 2.569 8.468 4.903 13 7 1.405 3.885 2.405 7.885 3 12v16c-.966 5.422-3.633 9.922-8 13.5-5.131 3.899-10.798 6.732-17 8.5h-3c.418-.722 1.084-1.222 2-1.5-1.801-.317-2.134-.984-1-2-3.038-.336-5.872-1.169-8.5-2.5-3.263 1.934-6.263 1.267-9-2-.308.808-.808 1.475-1.5 2-3.489-1.32-5.322.013-5.5 4-.333-.667-.667-1.333-1-2-1 1.333-2 2.667-3 4-1.666-.84-1.833-.34-.5 1.5-2.859-1.051-5.692-1.551-8.5-1.5-1 .667-2 1.333-3 2-.49-2.711-1.323-5.211-2.5-7.5.333-.5.667-1 1-1.5 1.902-1.054 3.735-2.054 5.5-3 1.766.733 3.599 1.067 5.5 1 .149-1.052-.017-2.052-.5-3-1.399.001-2.899.335-4.5 1-.333-.667-.667-1.333-1-2-1.374 1.211-2.874 2.211-4.5 3-1.44-.648-2.94-.981-4.5-1 .17-1.322-.163-2.489-1-3.5-1.627.43-3.127.596-4.5.5-.311-1.242.189-2.242 1.5-3-3.352-1.405-3.518-2.739-.5-4 .333.667.667 1.333 1 2 2.588-2.298 5.255-3.631 8-4 2.319 1.461 4.819 2.461 7.5 3 2.339-1.343 4.672-2.676 7-4-.535-1.771-1.369-2.104-2.5-1-.788-1.665-1.122-3.331-1-5 1.726 1.076 3.559 1.243 5.5.5-1-.333-2-.667-3-1 3.971-.411 7.304-1.411 10-3-.828-.915-1.828-1.581-3-2 .335-1.503.335-2.836 0-4-1.333-.667-2.333-1.667-3-3-12.445 1.947-24.778 4.947-37 9-2.646.497-5.313.664-8 .5 14.097-4.177 28.431-8.177 43-12h4c-.086-2.177-.753-4.177-2-6 1.873-.175 3.873-1.009 6-2.5-4.686-3.553-9.519-4.72-14.5-3.5-.945-.405-1.612-1.072-2-2-.308.808-.808 1.475-1.5 2-1.196-.346-1.196-.846 0-1.5-3.745.035-4.412-.965-2-3 11.36-.743 22.693-.577 34 .5Z" fill="#bf0e52"/>
  <path d="M300.5 353.5h1c1.194 1.277 2.86 1.944 5 2 11.16-1.226 22.16-1.226 33 0-13.688.258-27.355.925-41 2 .027-1.699.694-3.033 2-4Z" fill="#710c3c"/>
  <path d="M146.5 359.5c-2.542 1.124-5.208 1.958-8 2.5-1.402 1.342-1.069 2.176 1 2.5 20.835 3.78 41.502 8.28 62 13.5 5.308.83 10.641 1.33 16 1.5 8.04 1.036 16.04 2.036 24 3 .841 1.879 1.175 3.879 1 6 .256 3.769-.077 7.436-1 11-4.525 1.197-8.858 2.864-13 5-3.92.627-7.253 2.293-10 5-16.612 6.053-33.612 10.053-51 12h-25c-9.597-2.159-19.263-4.326-29-6.5-3.827-1.746-7.493-3.746-11-6-3.2322-3.062-6.2322-6.229-9-9.5-2.205-4.074-3.5383-8.407-4-13-.165-3.35.0017-6.683.5-10 1.4301-2.853 2.2634-5.853 2.5-9 1.3333-2.333 2.6667-4.667 4-7 1.4587.067 2.7921-.266 4-1 2.222.322 4.056-.345 5.5-2 3.042 2.582 6.042 2.582 9 0 .561.522 1.228.855 2 1 2.963-.811 5.463-2.311 7.5-4.5 3-.333 6-.667 9-1l-1-1c.833-.167 1.667-.333 2.5-.5 1.086.938 2.586 1.938 4.5 3 .746 1.236 1.079 2.57 1 4 1.56-.019 3.06-.352 4.5-1 1.03.336 1.53 1.003 1.5 2Z" fill="#c10e52"/>
  <path d="M202.5 353.5c6.499 3.628 13.165 7.128 20 10.5 9.173 7.642 19.006 13.476 29.5 17.5 2.068-.842 4.235-.842 6.5 0 2.678-.675 5.344-1.342 8-2-.17-1.322.163-2.489 1-3.5 2.31-.497 4.643-.663 7-.5-.795-4.094.538-7.261 4-9.5 7.828-3.53 15.162-7.697 22-12.5-1.306.967-1.973 2.301-2 4 13.645-1.075 27.312-1.742 41-2 8.053.284 16.053 1.117 24 2.5 3.424 1.412 3.758 3.245 1 5.5-14.569 3.823-28.903 7.823-43 12-11.339 2.114-22.672 4.447-34 7-6.589-2.67-12.922-2.337-19 1-1.915-.284-3.581.049-5 1-7.435.279-14.769-.388-22-2-7.96-.964-15.96-1.964-24-3-6.772-3.433-14.105-4.933-22-4.5-6.881-3.557-14.214-5.891-22-7 1-.333 2-.667 3-1-.667-.167-1.333-.333-2-.5-1.736.925-3.57 1.592-5.5 2-28.634-3.744-28.467-7.578.5-11.5 10.841-.17 21.508-.67 32-1.5.838-.342 1.172-1.008 1-2Z" fill="#5d0d3b"/>
  <path d="M201.5 355.5c-10.492.83-21.159 1.33-32 1.5-28.967 3.922-29.134 7.756-.5 11.5 1.93-.408 3.764-1.075 5.5-2 .667.167 1.333.333 2 .5-1 .333-2 .667-3 1 7.786 1.109 15.119 3.443 22 7 7.895-.433 15.228 1.067 22 4.5-5.359-.17-10.692-.67-16-1.5-20.498-5.22-41.165-9.72-62-13.5-2.069-.324-2.402-1.158-1-2.5 2.792-.542 5.458-1.376 8-2.5 5.638-1.214 11.305-2.214 17-3 12.641-.898 25.308-1.232 38-1Z" fill="#6d0c3c"/>
  <path d="M417.5 370.5c.617.111 1.117.444 1.5 1 .667 4.667.667 9.333 0 14-.383.556-.883.889-1.5 1v-16Z" fill="#992860"/>
  <path d="M92.5 367.5c-.2366 3.147-1.0699 6.147-2.5 9-.4983 3.317-.665 6.65-.5 10-1.8097-6.728-.8097-13.061 3-19Z" fill="#9e2b66"/>
  <path d="M241.5 382.5c7.231 1.612 14.565 2.279 22 2 1.725.343 2.225 1.343 1.5 3-3.351 2.494-7.185 3.66-11.5 3.5-3.079 1.411-6.079 2.911-9 4.5-.668-2.469-1.335-4.802-2-7 .175-2.121-.159-4.121-1-6Z" fill="#c1553e"/>
  <path d="M389.5 408.5c-2.627.29-4.294 1.624-5 4h-1c-4.062 1.049-8.229 2.049-12.5 3-1.03.336-1.53 1.003-1.5 2h-3c-24.313 4.8-48.646 8.8-73 12-8.32 1.065-16.653 2.065-25 3-1.29-.558-2.123-1.558-2.5-3-.878-3.552-2.044-6.886-3.5-10-.421-8.226.579-16.226 3-24 3.178-3.511 5.512-7.511 7-12h-4c6.078-3.337 12.411-3.67 19-1 11.328-2.553 22.661-4.886 34-7 2.687.164 5.354-.003 8-.5 12.222-4.053 24.555-7.053 37-9 .667 1.333 1.667 2.333 3 3 .335 1.164.335 2.497 0 4 1.172.419 2.172 1.085 3 2-2.696 1.589-6.029 2.589-10 3 1 .333 2 .667 3 1-1.941.743-3.774.576-5.5-.5-.122 1.669.212 3.335 1 5 1.131-1.104 1.965-.771 2.5 1-2.328 1.324-4.661 2.657-7 4-2.681-.539-5.181-1.539-7.5-3-2.745.369-5.412 1.702-8 4-.333-.667-.667-1.333-1-2-3.018 1.261-2.852 2.595.5 4-1.311.758-1.811 1.758-1.5 3 1.373.096 2.873-.07 4.5-.5.837 1.011 1.17 2.178 1 3.5 1.56.019 3.06.352 4.5 1 1.626-.789 3.126-1.789 4.5-3 .333.667.667 1.333 1 2 1.601-.665 3.101-.999 4.5-1 .483.948.649 1.948.5 3-1.901.067-3.734-.267-5.5-1-1.765.946-3.598 1.946-5.5 3-.333.5-.667 1-1 1.5 1.177 2.289 2.01 4.789 2.5 7.5 1-.667 2-1.333 3-2 2.808-.051 5.641.449 8.5 1.5-1.333-1.84-1.166-2.34.5-1.5 1-1.333 2-2.667 3-4 .333.667.667 1.333 1 2 .178-3.987 2.011-5.32 5.5-4 .692-.525 1.192-1.192 1.5-2 2.737 3.267 5.737 3.934 9 2 2.628 1.331 5.462 2.164 8.5 2.5-1.134 1.016-.801 1.683 1 2-.916.278-1.582.778-2 1.5Z" fill="#c10e51"/>
  <path d="M263.5 384.5c1.419-.951 3.085-1.284 5-1h4c-1.488 4.489-3.822 8.489-7 12v-3c-3.66-.341-6.993.325-10 2-4.901 1.122-9.567 2.789-14 5 .923-3.564 1.256-7.231 1-11 .665 2.198 1.332 4.531 2 7 2.921-1.589 5.921-3.089 9-4.5 4.315.16 8.149-1.006 11.5-3.5.725-1.657.225-2.657-1.5-3Z" fill="#c2453e"/>
  <path d="M228.5 404.5c-2.966 2.488-6.299 4.488-10 6v-1c2.747-2.707 6.08-4.373 10-5Z" fill="#b52532"/>
  <path d="M265.5 395.5c-2.421 7.774-3.421 15.774-3 24-1.309-2.071-1.975-4.571-2-7.5.266-5.963 1.266-11.796 3-17.5-2.589-.705-5.256-.705-8 0 3.007-1.675 6.34-2.341 10-2v3Z" fill="#e16542"/>
  <path d="M389.5 408.5h3c-2.308 1.293-4.642 2.626-7 4h-1c.706-2.376 2.373-3.71 5-4Z" fill="#72406f"/>
  <path d="M383.5 412.5h2c4.53 3.384 7.863 7.717 10 13-.667-.333-1.333-.667-2-1-2.957-4.292-6.29-8.292-10-12Z" fill="#b05142"/>
  <path d="M218.5 409.5v1c-16.056 7.93-33.056 11.597-51 11 17.388-1.947 34.388-5.947 51-12Z" fill="#691522"/>
  <path d="M383.5 412.5c3.71 3.708 7.043 7.708 10 12-.073 1.527.594 2.527 2 3 .86 3.934 1.193 7.934 1 12-.748 1.832-1.748 3.499-3 5-13.749-1.205-27.415-3.038-41-5.5 4.188-.176 8.188-.676 12-1.5 3.968-.571 6.135-2.904 6.5-7 .945-4.561.445-8.894-1.5-13-.03-.997.47-1.664 1.5-2 4.271-.951 8.438-1.951 12.5-3Z" fill="#f7f5f3"/>
  <path d="M366.5 417.5h3c1.945 4.106 2.445 8.439 1.5 13-.365 4.096-2.532 6.429-6.5 7-19.994-1.138-39.994-2.138-60-3-2.469-.817-5.135-1.317-8-1.5-2.667-.667-2.667-1.333 0-2 6.333-.333 12.667-.667 19-1 1.237-.232 2.237-.732 3-1.5 7.905-1.625 15.905-2.792 24-3.5 3.96-.729 7.794-1.896 11.5-3.5 1.144.411 2.311.744 3.5 1 2.592-2.435 5.592-4.101 9-5Z" fill="#341639"/>
  <path d="M262.5 419.5c1.456 3.114 2.622 6.448 3.5 10 .377 1.442 1.21 2.442 2.5 3v1c-38.39.462-76.723 2.129-115 5-2.333-.333-3.667-1.667-4-4-.033-4.369.3-8.702 1-13h17c17.944.597 34.944-3.07 51-11 3.701-1.512 7.034-3.512 10-6 4.142-2.136 8.475-3.803 13-5 4.433-2.211 9.099-3.878 14-5 2.744-.705 5.411-.705 8 0-1.734 5.704-2.734 11.537-3 17.5.025 2.929.691 5.429 2 7.5Z" fill="#de7036"/>
  <path d="M142.5 421.5h2c-.79 1.294-1.79 2.461-3 3.5-8.561 5.109-16.561 10.942-24 17.5h-1c-.172-.992.162-1.658 1-2 7.481-7.485 15.815-13.818 25-19Z" fill="#d1b88f"/>
  <path d="M144.5 421.5h5c-1.162 4.48-1.162 8.813 0 13 .333 2.333 1.667 3.667 4 4 .14 1.624-.527 2.79-2 3.5-11.422.453-22.755 1.619-34 3.5v-3c7.439-6.558 15.439-12.391 24-17.5 1.21-1.039 2.21-2.206 3-3.5Z" fill="#fbf9f5"/>
  <path d="M366.5 417.5c-3.408.899-6.408 2.565-9 5-1.189-.256-2.356-.589-3.5-1-3.706 1.604-7.54 2.771-11.5 3.5-8.095.708-16.095 1.875-24 3.5-8.312.74-16.646 1.073-25 1 24.354-3.2 48.687-7.2 73-12Z" fill="#44132d"/>
  <path d="M393.5 424.5c.667.333 1.333.667 2 1v2c-1.406-.473-2.073-1.473-2-3Z" fill="#eaad5f"/>
  <path d="M149.5 421.5h1c-.7 4.298-1.033 8.631-1 13-1.162-4.187-1.162-8.52 0-13Z" fill="#df9978"/>
  <path d="M318.5 428.5c-.763.768-1.763 1.268-3 1.5-6.333.333-12.667.667-19 1-2.667.667-2.667 1.333 0 2 2.865.183 5.531.683 8 1.5-5.672-.26-11.339-.593-17-1-.418-.722-1.084-1.222-2-1.5 2.957-.279 5.623-1.113 8-2.5 8.354.073 16.688-.26 25-1Z" fill="#311930"/>
  <path d="M293.5 429.5c-2.377 1.387-5.043 2.221-8 2.5.916.278 1.582.778 2 1.5h-19v-1c8.347-.935 16.68-1.935 25-3Z" fill="#49182b"/>
  <path d="M395.5 425.5c.617.111 1.117.444 1.5 1 2.137 4.58 1.971 8.913-.5 13 .193-4.066-.14-8.066-1-12v-2Z" fill="#ac704c"/>
</svg>
